M48
;GenerationSoftware,Autodesk,EAGLE,9.0.1*%
;CreationDate,2019-05-14T01:44:53Z*%
FMAT,2
ICI,OFF
METRIC,TZ,000.000
T3C0.350
T2C0.813
T1C0.965
%
G90
M71
T1
X90002Y10722
X91798Y12518
X90732Y74018
X92528Y72222
X92798Y67682
X91002Y69478
X7620Y33020
X12700Y33020
X15240Y33020
X17780Y33020
X20320Y33020
X92560Y34250
X92560Y31710
X89710Y27400
X89710Y29940
X27940Y33290
X30480Y33290
X33020Y33290
X35560Y33290
X38100Y33290
X40640Y33290
X10160Y33020
X43180Y33290
X45720Y33290
X48260Y33290
X50800Y33290
X53340Y33290
X55880Y33290
X58420Y33290
X60960Y33290
X60960Y48530
X58420Y48530
X55880Y48530
X53340Y48530
X50800Y48530
X48260Y48530
X45720Y48530
X43180Y48530
X40640Y48530
X38100Y48530
X35560Y48530
X33020Y48530
X30480Y48530
X27940Y48530
X24130Y44450
X21590Y44450
X8000Y9000
X26000Y9000
X8000Y71000
X26000Y71000
X19050Y44450
X16510Y44450
X11430Y44450
X8890Y44450
X6350Y44450
X24130Y36830
X21590Y36830
X19050Y36830
X16510Y36830
X13970Y36830
X11430Y36830
X8890Y36830
X6350Y36830
X39370Y59690
X54880Y68580
X57420Y68580
X92170Y48800
X92170Y46260
X60340Y8620
X62880Y8620
X55610Y11080
X58150Y11080
X59610Y71390
X62150Y71390
X20320Y48260
X17780Y48260
X15240Y48260
X12700Y48260
X10160Y48260
X7620Y48260
X36830Y55880
X39370Y55880
X41910Y55880
X41910Y59690
X13970Y44450
X89710Y50910
X89710Y53450
X50800Y29210
X48260Y29210
X45720Y29210
X43180Y29210
X40640Y29210
X38100Y29210
X35560Y29210
X33020Y29210
X30480Y29210
X88732Y6262
X90528Y8058
T2
X65770Y16700
X53340Y62230
X63500Y62230
X69850Y57150
X80010Y57150
X83820Y34640
X83820Y24480
X80010Y34640
X80010Y24480
X53340Y57150
X63500Y57150
X83820Y54610
X83820Y44450
X80010Y54610
X55610Y20780
X65770Y20780
X55610Y16700
X72390Y17780
X82550Y17780
X72390Y12700
X82550Y12700
X69850Y62230
X80010Y62230
X80010Y44450
T3
X60960Y20320
X58420Y26670
X59690Y35560
X62230Y48260
X40640Y31750
X66040Y31750
X40640Y35560
X49530Y39370
X52070Y40640
X59690Y44450
X63500Y48260
X17000Y50000
X88900Y12700
X82550Y8890
X80010Y7620
X54610Y53340
X52070Y53340
X49530Y62230
X52070Y59690
X71120Y22860
X67310Y53340
X25400Y41910
X25400Y39370
X25400Y27940
X25400Y22860
X25400Y48260
X29210Y44450
X41910Y41910
X48260Y41910
X21000Y50000
X31750Y48260
X31750Y44450
X43180Y44450
X49530Y44450
X36830Y39370
X36830Y50800
X48260Y60960
X63500Y53340
X40640Y36830
X45720Y36830
X54610Y38100
X59690Y38100
X66040Y38100
X35560Y21590
X63500Y38100
X36830Y27940
M30