G04 EAGLE Gerber X2 export*
G75*
%MOMM*%
%FSLAX34Y34*%
%LPD*%
%AMOC8*
5,1,8,0,0,1.08239X$1,22.5*%
G01*
%ADD10C,0.254000*%


D10*
X0Y0D02*
X1000000Y0D01*
X1000000Y800000D01*
X0Y800000D01*
X0Y0D01*
X84826Y89729D02*
X84765Y89190D01*
X84645Y88662D01*
X84466Y88150D01*
X84230Y87662D01*
X83942Y87203D01*
X83604Y86779D01*
X83221Y86396D01*
X82797Y86058D01*
X82338Y85770D01*
X81850Y85534D01*
X81338Y85355D01*
X80810Y85235D01*
X80271Y85174D01*
X79729Y85174D01*
X79190Y85235D01*
X78662Y85355D01*
X78150Y85534D01*
X77662Y85770D01*
X77203Y86058D01*
X76779Y86396D01*
X76396Y86779D01*
X76058Y87203D01*
X75770Y87662D01*
X75534Y88150D01*
X75355Y88662D01*
X75235Y89190D01*
X75174Y89729D01*
X75174Y90271D01*
X75235Y90810D01*
X75355Y91338D01*
X75534Y91850D01*
X75770Y92338D01*
X76058Y92797D01*
X76396Y93221D01*
X76779Y93604D01*
X77203Y93942D01*
X77662Y94230D01*
X78150Y94466D01*
X78662Y94645D01*
X79190Y94765D01*
X79729Y94826D01*
X80271Y94826D01*
X80810Y94765D01*
X81338Y94645D01*
X81850Y94466D01*
X82338Y94230D01*
X82797Y93942D01*
X83221Y93604D01*
X83604Y93221D01*
X83942Y92797D01*
X84230Y92338D01*
X84466Y91850D01*
X84645Y91338D01*
X84765Y90810D01*
X84826Y90271D01*
X84826Y89729D01*
X264826Y89729D02*
X264765Y89190D01*
X264645Y88662D01*
X264466Y88150D01*
X264230Y87662D01*
X263942Y87203D01*
X263604Y86779D01*
X263221Y86396D01*
X262797Y86058D01*
X262338Y85770D01*
X261850Y85534D01*
X261338Y85355D01*
X260810Y85235D01*
X260271Y85174D01*
X259729Y85174D01*
X259190Y85235D01*
X258662Y85355D01*
X258150Y85534D01*
X257662Y85770D01*
X257203Y86058D01*
X256779Y86396D01*
X256396Y86779D01*
X256058Y87203D01*
X255770Y87662D01*
X255534Y88150D01*
X255355Y88662D01*
X255235Y89190D01*
X255174Y89729D01*
X255174Y90271D01*
X255235Y90810D01*
X255355Y91338D01*
X255534Y91850D01*
X255770Y92338D01*
X256058Y92797D01*
X256396Y93221D01*
X256779Y93604D01*
X257203Y93942D01*
X257662Y94230D01*
X258150Y94466D01*
X258662Y94645D01*
X259190Y94765D01*
X259729Y94826D01*
X260271Y94826D01*
X260810Y94765D01*
X261338Y94645D01*
X261850Y94466D01*
X262338Y94230D01*
X262797Y93942D01*
X263221Y93604D01*
X263604Y93221D01*
X263942Y92797D01*
X264230Y92338D01*
X264466Y91850D01*
X264645Y91338D01*
X264765Y90810D01*
X264826Y90271D01*
X264826Y89729D01*
X84826Y709729D02*
X84765Y709190D01*
X84645Y708662D01*
X84466Y708150D01*
X84230Y707662D01*
X83942Y707203D01*
X83604Y706779D01*
X83221Y706396D01*
X82797Y706058D01*
X82338Y705770D01*
X81850Y705534D01*
X81338Y705355D01*
X80810Y705235D01*
X80271Y705174D01*
X79729Y705174D01*
X79190Y705235D01*
X78662Y705355D01*
X78150Y705534D01*
X77662Y705770D01*
X77203Y706058D01*
X76779Y706396D01*
X76396Y706779D01*
X76058Y707203D01*
X75770Y707662D01*
X75534Y708150D01*
X75355Y708662D01*
X75235Y709190D01*
X75174Y709729D01*
X75174Y710271D01*
X75235Y710810D01*
X75355Y711338D01*
X75534Y711850D01*
X75770Y712338D01*
X76058Y712797D01*
X76396Y713221D01*
X76779Y713604D01*
X77203Y713942D01*
X77662Y714230D01*
X78150Y714466D01*
X78662Y714645D01*
X79190Y714765D01*
X79729Y714826D01*
X80271Y714826D01*
X80810Y714765D01*
X81338Y714645D01*
X81850Y714466D01*
X82338Y714230D01*
X82797Y713942D01*
X83221Y713604D01*
X83604Y713221D01*
X83942Y712797D01*
X84230Y712338D01*
X84466Y711850D01*
X84645Y711338D01*
X84765Y710810D01*
X84826Y710271D01*
X84826Y709729D01*
X264826Y709729D02*
X264765Y709190D01*
X264645Y708662D01*
X264466Y708150D01*
X264230Y707662D01*
X263942Y707203D01*
X263604Y706779D01*
X263221Y706396D01*
X262797Y706058D01*
X262338Y705770D01*
X261850Y705534D01*
X261338Y705355D01*
X260810Y705235D01*
X260271Y705174D01*
X259729Y705174D01*
X259190Y705235D01*
X258662Y705355D01*
X258150Y705534D01*
X257662Y705770D01*
X257203Y706058D01*
X256779Y706396D01*
X256396Y706779D01*
X256058Y707203D01*
X255770Y707662D01*
X255534Y708150D01*
X255355Y708662D01*
X255235Y709190D01*
X255174Y709729D01*
X255174Y710271D01*
X255235Y710810D01*
X255355Y711338D01*
X255534Y711850D01*
X255770Y712338D01*
X256058Y712797D01*
X256396Y713221D01*
X256779Y713604D01*
X257203Y713942D01*
X257662Y714230D01*
X258150Y714466D01*
X258662Y714645D01*
X259190Y714765D01*
X259729Y714826D01*
X260271Y714826D01*
X260810Y714765D01*
X261338Y714645D01*
X261850Y714466D01*
X262338Y714230D01*
X262797Y713942D01*
X263221Y713604D01*
X263604Y713221D01*
X263942Y712797D01*
X264230Y712338D01*
X264466Y711850D01*
X264645Y711338D01*
X264765Y710810D01*
X264826Y710271D01*
X264826Y709729D01*
M02*
