G04 EAGLE Gerber X2 export*
G75*
%MOMM*%
%FSLAX34Y34*%
%LPD*%
%AMOC8*
5,1,8,0,0,1.08239X$1,22.5*%
G01*
%ADD10C,0.152400*%
%ADD11C,0.127000*%
%ADD12R,0.863600X0.609600*%
%ADD13R,0.609600X0.863600*%
%ADD14C,0.203200*%
%ADD15C,0.101600*%


D10*
X554990Y633730D02*
X554890Y633728D01*
X554791Y633722D01*
X554691Y633712D01*
X554593Y633699D01*
X554494Y633681D01*
X554397Y633660D01*
X554301Y633635D01*
X554205Y633606D01*
X554111Y633573D01*
X554018Y633537D01*
X553927Y633497D01*
X553837Y633453D01*
X553749Y633406D01*
X553663Y633356D01*
X553579Y633302D01*
X553497Y633245D01*
X553418Y633185D01*
X553340Y633121D01*
X553266Y633055D01*
X553194Y632986D01*
X553125Y632914D01*
X553059Y632840D01*
X552995Y632762D01*
X552935Y632683D01*
X552878Y632601D01*
X552824Y632517D01*
X552774Y632431D01*
X552727Y632343D01*
X552683Y632253D01*
X552643Y632162D01*
X552607Y632069D01*
X552574Y631975D01*
X552545Y631879D01*
X552520Y631783D01*
X552499Y631686D01*
X552481Y631587D01*
X552468Y631489D01*
X552458Y631389D01*
X552452Y631290D01*
X552450Y631190D01*
X552450Y613410D02*
X552452Y613310D01*
X552458Y613211D01*
X552468Y613111D01*
X552481Y613013D01*
X552499Y612914D01*
X552520Y612817D01*
X552545Y612721D01*
X552574Y612625D01*
X552607Y612531D01*
X552643Y612438D01*
X552683Y612347D01*
X552727Y612257D01*
X552774Y612169D01*
X552824Y612083D01*
X552878Y611999D01*
X552935Y611917D01*
X552995Y611838D01*
X553059Y611760D01*
X553125Y611686D01*
X553194Y611614D01*
X553266Y611545D01*
X553340Y611479D01*
X553418Y611415D01*
X553497Y611355D01*
X553579Y611298D01*
X553663Y611244D01*
X553749Y611194D01*
X553837Y611147D01*
X553927Y611103D01*
X554018Y611063D01*
X554111Y611027D01*
X554205Y610994D01*
X554301Y610965D01*
X554397Y610940D01*
X554494Y610919D01*
X554593Y610901D01*
X554691Y610888D01*
X554791Y610878D01*
X554890Y610872D01*
X554990Y610870D01*
X613410Y610870D02*
X613510Y610872D01*
X613609Y610878D01*
X613709Y610888D01*
X613807Y610901D01*
X613906Y610919D01*
X614003Y610940D01*
X614099Y610965D01*
X614195Y610994D01*
X614289Y611027D01*
X614382Y611063D01*
X614473Y611103D01*
X614563Y611147D01*
X614651Y611194D01*
X614737Y611244D01*
X614821Y611298D01*
X614903Y611355D01*
X614982Y611415D01*
X615060Y611479D01*
X615134Y611545D01*
X615206Y611614D01*
X615275Y611686D01*
X615341Y611760D01*
X615405Y611838D01*
X615465Y611917D01*
X615522Y611999D01*
X615576Y612083D01*
X615626Y612169D01*
X615673Y612257D01*
X615717Y612347D01*
X615757Y612438D01*
X615793Y612531D01*
X615826Y612625D01*
X615855Y612721D01*
X615880Y612817D01*
X615901Y612914D01*
X615919Y613013D01*
X615932Y613111D01*
X615942Y613211D01*
X615948Y613310D01*
X615950Y613410D01*
X615950Y631190D02*
X615948Y631290D01*
X615942Y631389D01*
X615932Y631489D01*
X615919Y631587D01*
X615901Y631686D01*
X615880Y631783D01*
X615855Y631879D01*
X615826Y631975D01*
X615793Y632069D01*
X615757Y632162D01*
X615717Y632253D01*
X615673Y632343D01*
X615626Y632431D01*
X615576Y632517D01*
X615522Y632601D01*
X615465Y632683D01*
X615405Y632762D01*
X615341Y632840D01*
X615275Y632914D01*
X615206Y632986D01*
X615134Y633055D01*
X615060Y633121D01*
X614982Y633185D01*
X614903Y633245D01*
X614821Y633302D01*
X614737Y633356D01*
X614651Y633406D01*
X614563Y633453D01*
X614473Y633497D01*
X614382Y633537D01*
X614289Y633573D01*
X614195Y633606D01*
X614099Y633635D01*
X614003Y633660D01*
X613906Y633681D01*
X613807Y633699D01*
X613709Y633712D01*
X613609Y633722D01*
X613510Y633728D01*
X613410Y633730D01*
X552450Y631190D02*
X552450Y613410D01*
X554990Y633730D02*
X558800Y633730D01*
X560070Y632460D01*
X558800Y610870D02*
X554990Y610870D01*
X558800Y610870D02*
X560070Y612140D01*
X608330Y632460D02*
X609600Y633730D01*
X608330Y632460D02*
X560070Y632460D01*
X608330Y612140D02*
X609600Y610870D01*
X608330Y612140D02*
X560070Y612140D01*
X609600Y633730D02*
X613410Y633730D01*
X613410Y610870D02*
X609600Y610870D01*
X615950Y613410D02*
X615950Y631190D01*
D11*
X554355Y638175D02*
X554355Y649605D01*
X557530Y649605D01*
X557641Y649603D01*
X557751Y649597D01*
X557862Y649588D01*
X557972Y649574D01*
X558081Y649557D01*
X558190Y649536D01*
X558298Y649511D01*
X558405Y649482D01*
X558511Y649450D01*
X558616Y649414D01*
X558719Y649374D01*
X558821Y649331D01*
X558922Y649284D01*
X559021Y649233D01*
X559118Y649180D01*
X559212Y649123D01*
X559305Y649062D01*
X559396Y648999D01*
X559485Y648932D01*
X559571Y648862D01*
X559654Y648789D01*
X559736Y648714D01*
X559814Y648636D01*
X559889Y648554D01*
X559962Y648471D01*
X560032Y648385D01*
X560099Y648296D01*
X560162Y648205D01*
X560223Y648112D01*
X560280Y648017D01*
X560333Y647921D01*
X560384Y647822D01*
X560431Y647721D01*
X560474Y647619D01*
X560514Y647516D01*
X560550Y647411D01*
X560582Y647305D01*
X560611Y647198D01*
X560636Y647090D01*
X560657Y646981D01*
X560674Y646872D01*
X560688Y646762D01*
X560697Y646651D01*
X560703Y646541D01*
X560705Y646430D01*
X560703Y646319D01*
X560697Y646209D01*
X560688Y646098D01*
X560674Y645988D01*
X560657Y645879D01*
X560636Y645770D01*
X560611Y645662D01*
X560582Y645555D01*
X560550Y645449D01*
X560514Y645344D01*
X560474Y645241D01*
X560431Y645139D01*
X560384Y645038D01*
X560333Y644939D01*
X560280Y644843D01*
X560223Y644748D01*
X560162Y644655D01*
X560099Y644564D01*
X560032Y644475D01*
X559962Y644389D01*
X559889Y644306D01*
X559814Y644224D01*
X559736Y644146D01*
X559654Y644071D01*
X559571Y643998D01*
X559485Y643928D01*
X559396Y643861D01*
X559305Y643798D01*
X559212Y643737D01*
X559118Y643680D01*
X559021Y643627D01*
X558922Y643576D01*
X558821Y643529D01*
X558719Y643486D01*
X558616Y643446D01*
X558511Y643410D01*
X558405Y643378D01*
X558298Y643349D01*
X558190Y643324D01*
X558081Y643303D01*
X557972Y643286D01*
X557862Y643272D01*
X557751Y643263D01*
X557641Y643257D01*
X557530Y643255D01*
X554355Y643255D01*
X558165Y643255D02*
X560705Y638175D01*
X565702Y647065D02*
X568877Y649605D01*
X568877Y638175D01*
X565702Y638175D02*
X572052Y638175D01*
D12*
X620268Y622300D03*
X548132Y622300D03*
D10*
X717550Y580390D02*
X717552Y580490D01*
X717558Y580589D01*
X717568Y580689D01*
X717581Y580787D01*
X717599Y580886D01*
X717620Y580983D01*
X717645Y581079D01*
X717674Y581175D01*
X717707Y581269D01*
X717743Y581362D01*
X717783Y581453D01*
X717827Y581543D01*
X717874Y581631D01*
X717924Y581717D01*
X717978Y581801D01*
X718035Y581883D01*
X718095Y581962D01*
X718159Y582040D01*
X718225Y582114D01*
X718294Y582186D01*
X718366Y582255D01*
X718440Y582321D01*
X718518Y582385D01*
X718597Y582445D01*
X718679Y582502D01*
X718763Y582556D01*
X718849Y582606D01*
X718937Y582653D01*
X719027Y582697D01*
X719118Y582737D01*
X719211Y582773D01*
X719305Y582806D01*
X719401Y582835D01*
X719497Y582860D01*
X719594Y582881D01*
X719693Y582899D01*
X719791Y582912D01*
X719891Y582922D01*
X719990Y582928D01*
X720090Y582930D01*
X717550Y562610D02*
X717552Y562510D01*
X717558Y562411D01*
X717568Y562311D01*
X717581Y562213D01*
X717599Y562114D01*
X717620Y562017D01*
X717645Y561921D01*
X717674Y561825D01*
X717707Y561731D01*
X717743Y561638D01*
X717783Y561547D01*
X717827Y561457D01*
X717874Y561369D01*
X717924Y561283D01*
X717978Y561199D01*
X718035Y561117D01*
X718095Y561038D01*
X718159Y560960D01*
X718225Y560886D01*
X718294Y560814D01*
X718366Y560745D01*
X718440Y560679D01*
X718518Y560615D01*
X718597Y560555D01*
X718679Y560498D01*
X718763Y560444D01*
X718849Y560394D01*
X718937Y560347D01*
X719027Y560303D01*
X719118Y560263D01*
X719211Y560227D01*
X719305Y560194D01*
X719401Y560165D01*
X719497Y560140D01*
X719594Y560119D01*
X719693Y560101D01*
X719791Y560088D01*
X719891Y560078D01*
X719990Y560072D01*
X720090Y560070D01*
X778510Y560070D02*
X778610Y560072D01*
X778709Y560078D01*
X778809Y560088D01*
X778907Y560101D01*
X779006Y560119D01*
X779103Y560140D01*
X779199Y560165D01*
X779295Y560194D01*
X779389Y560227D01*
X779482Y560263D01*
X779573Y560303D01*
X779663Y560347D01*
X779751Y560394D01*
X779837Y560444D01*
X779921Y560498D01*
X780003Y560555D01*
X780082Y560615D01*
X780160Y560679D01*
X780234Y560745D01*
X780306Y560814D01*
X780375Y560886D01*
X780441Y560960D01*
X780505Y561038D01*
X780565Y561117D01*
X780622Y561199D01*
X780676Y561283D01*
X780726Y561369D01*
X780773Y561457D01*
X780817Y561547D01*
X780857Y561638D01*
X780893Y561731D01*
X780926Y561825D01*
X780955Y561921D01*
X780980Y562017D01*
X781001Y562114D01*
X781019Y562213D01*
X781032Y562311D01*
X781042Y562411D01*
X781048Y562510D01*
X781050Y562610D01*
X781050Y580390D02*
X781048Y580490D01*
X781042Y580589D01*
X781032Y580689D01*
X781019Y580787D01*
X781001Y580886D01*
X780980Y580983D01*
X780955Y581079D01*
X780926Y581175D01*
X780893Y581269D01*
X780857Y581362D01*
X780817Y581453D01*
X780773Y581543D01*
X780726Y581631D01*
X780676Y581717D01*
X780622Y581801D01*
X780565Y581883D01*
X780505Y581962D01*
X780441Y582040D01*
X780375Y582114D01*
X780306Y582186D01*
X780234Y582255D01*
X780160Y582321D01*
X780082Y582385D01*
X780003Y582445D01*
X779921Y582502D01*
X779837Y582556D01*
X779751Y582606D01*
X779663Y582653D01*
X779573Y582697D01*
X779482Y582737D01*
X779389Y582773D01*
X779295Y582806D01*
X779199Y582835D01*
X779103Y582860D01*
X779006Y582881D01*
X778907Y582899D01*
X778809Y582912D01*
X778709Y582922D01*
X778610Y582928D01*
X778510Y582930D01*
X717550Y580390D02*
X717550Y562610D01*
X720090Y582930D02*
X723900Y582930D01*
X725170Y581660D01*
X723900Y560070D02*
X720090Y560070D01*
X723900Y560070D02*
X725170Y561340D01*
X773430Y581660D02*
X774700Y582930D01*
X773430Y581660D02*
X725170Y581660D01*
X773430Y561340D02*
X774700Y560070D01*
X773430Y561340D02*
X725170Y561340D01*
X774700Y582930D02*
X778510Y582930D01*
X778510Y560070D02*
X774700Y560070D01*
X781050Y562610D02*
X781050Y580390D01*
D11*
X719455Y587375D02*
X719455Y598805D01*
X722630Y598805D01*
X722741Y598803D01*
X722851Y598797D01*
X722962Y598788D01*
X723072Y598774D01*
X723181Y598757D01*
X723290Y598736D01*
X723398Y598711D01*
X723505Y598682D01*
X723611Y598650D01*
X723716Y598614D01*
X723819Y598574D01*
X723921Y598531D01*
X724022Y598484D01*
X724121Y598433D01*
X724218Y598380D01*
X724312Y598323D01*
X724405Y598262D01*
X724496Y598199D01*
X724585Y598132D01*
X724671Y598062D01*
X724754Y597989D01*
X724836Y597914D01*
X724914Y597836D01*
X724989Y597754D01*
X725062Y597671D01*
X725132Y597585D01*
X725199Y597496D01*
X725262Y597405D01*
X725323Y597312D01*
X725380Y597217D01*
X725433Y597121D01*
X725484Y597022D01*
X725531Y596921D01*
X725574Y596819D01*
X725614Y596716D01*
X725650Y596611D01*
X725682Y596505D01*
X725711Y596398D01*
X725736Y596290D01*
X725757Y596181D01*
X725774Y596072D01*
X725788Y595962D01*
X725797Y595851D01*
X725803Y595741D01*
X725805Y595630D01*
X725803Y595519D01*
X725797Y595409D01*
X725788Y595298D01*
X725774Y595188D01*
X725757Y595079D01*
X725736Y594970D01*
X725711Y594862D01*
X725682Y594755D01*
X725650Y594649D01*
X725614Y594544D01*
X725574Y594441D01*
X725531Y594339D01*
X725484Y594238D01*
X725433Y594139D01*
X725380Y594043D01*
X725323Y593948D01*
X725262Y593855D01*
X725199Y593764D01*
X725132Y593675D01*
X725062Y593589D01*
X724989Y593506D01*
X724914Y593424D01*
X724836Y593346D01*
X724754Y593271D01*
X724671Y593198D01*
X724585Y593128D01*
X724496Y593061D01*
X724405Y592998D01*
X724312Y592937D01*
X724218Y592880D01*
X724121Y592827D01*
X724022Y592776D01*
X723921Y592729D01*
X723819Y592686D01*
X723716Y592646D01*
X723611Y592610D01*
X723505Y592578D01*
X723398Y592549D01*
X723290Y592524D01*
X723181Y592503D01*
X723072Y592486D01*
X722962Y592472D01*
X722851Y592463D01*
X722741Y592457D01*
X722630Y592455D01*
X719455Y592455D01*
X723265Y592455D02*
X725805Y587375D01*
X730802Y596265D02*
X733977Y598805D01*
X733977Y587375D01*
X730802Y587375D02*
X737152Y587375D01*
X742232Y593090D02*
X742235Y593315D01*
X742243Y593540D01*
X742256Y593764D01*
X742275Y593988D01*
X742299Y594212D01*
X742328Y594435D01*
X742363Y594657D01*
X742403Y594878D01*
X742449Y595098D01*
X742499Y595317D01*
X742555Y595535D01*
X742616Y595752D01*
X742682Y595967D01*
X742753Y596180D01*
X742830Y596391D01*
X742911Y596601D01*
X742997Y596809D01*
X743088Y597014D01*
X743184Y597217D01*
X743184Y597218D02*
X743216Y597306D01*
X743252Y597393D01*
X743291Y597479D01*
X743334Y597563D01*
X743380Y597645D01*
X743429Y597725D01*
X743481Y597803D01*
X743537Y597879D01*
X743595Y597953D01*
X743657Y598024D01*
X743721Y598093D01*
X743788Y598159D01*
X743857Y598222D01*
X743929Y598283D01*
X744003Y598341D01*
X744080Y598395D01*
X744158Y598447D01*
X744239Y598495D01*
X744321Y598540D01*
X744406Y598582D01*
X744492Y598620D01*
X744579Y598655D01*
X744667Y598687D01*
X744757Y598714D01*
X744848Y598739D01*
X744940Y598759D01*
X745032Y598776D01*
X745126Y598789D01*
X745219Y598798D01*
X745313Y598804D01*
X745407Y598806D01*
X745501Y598804D01*
X745595Y598798D01*
X745688Y598789D01*
X745782Y598776D01*
X745874Y598759D01*
X745966Y598739D01*
X746057Y598714D01*
X746147Y598687D01*
X746235Y598655D01*
X746322Y598620D01*
X746408Y598582D01*
X746493Y598540D01*
X746575Y598495D01*
X746656Y598447D01*
X746734Y598395D01*
X746811Y598341D01*
X746885Y598283D01*
X746957Y598222D01*
X747026Y598159D01*
X747093Y598093D01*
X747157Y598024D01*
X747219Y597953D01*
X747277Y597879D01*
X747333Y597803D01*
X747385Y597725D01*
X747434Y597645D01*
X747480Y597563D01*
X747523Y597479D01*
X747562Y597393D01*
X747598Y597306D01*
X747630Y597218D01*
X747630Y597217D02*
X747726Y597014D01*
X747817Y596809D01*
X747903Y596601D01*
X747984Y596391D01*
X748061Y596180D01*
X748132Y595967D01*
X748198Y595752D01*
X748259Y595535D01*
X748315Y595317D01*
X748365Y595098D01*
X748411Y594878D01*
X748451Y594657D01*
X748486Y594435D01*
X748515Y594212D01*
X748539Y593988D01*
X748558Y593764D01*
X748571Y593540D01*
X748579Y593315D01*
X748582Y593090D01*
X742232Y593090D02*
X742235Y592865D01*
X742243Y592640D01*
X742256Y592416D01*
X742275Y592192D01*
X742299Y591968D01*
X742328Y591745D01*
X742363Y591523D01*
X742403Y591302D01*
X742449Y591082D01*
X742499Y590863D01*
X742555Y590645D01*
X742616Y590428D01*
X742682Y590213D01*
X742753Y590000D01*
X742830Y589789D01*
X742911Y589579D01*
X742997Y589371D01*
X743088Y589166D01*
X743184Y588963D01*
X743216Y588875D01*
X743252Y588788D01*
X743291Y588702D01*
X743334Y588618D01*
X743380Y588536D01*
X743429Y588456D01*
X743481Y588378D01*
X743537Y588302D01*
X743595Y588228D01*
X743657Y588157D01*
X743721Y588088D01*
X743788Y588022D01*
X743857Y587959D01*
X743929Y587898D01*
X744003Y587840D01*
X744080Y587786D01*
X744158Y587734D01*
X744239Y587686D01*
X744321Y587641D01*
X744406Y587599D01*
X744492Y587561D01*
X744579Y587526D01*
X744667Y587494D01*
X744757Y587467D01*
X744848Y587442D01*
X744940Y587422D01*
X745032Y587405D01*
X745126Y587392D01*
X745219Y587383D01*
X745313Y587377D01*
X745407Y587375D01*
X747630Y588963D02*
X747726Y589166D01*
X747817Y589371D01*
X747903Y589579D01*
X747984Y589789D01*
X748061Y590000D01*
X748132Y590213D01*
X748198Y590428D01*
X748259Y590645D01*
X748315Y590863D01*
X748365Y591082D01*
X748411Y591302D01*
X748451Y591523D01*
X748486Y591745D01*
X748515Y591968D01*
X748539Y592192D01*
X748558Y592416D01*
X748571Y592640D01*
X748579Y592865D01*
X748582Y593090D01*
X747630Y588963D02*
X747598Y588875D01*
X747562Y588788D01*
X747523Y588702D01*
X747480Y588618D01*
X747434Y588536D01*
X747385Y588456D01*
X747333Y588378D01*
X747277Y588302D01*
X747219Y588228D01*
X747157Y588157D01*
X747093Y588088D01*
X747026Y588022D01*
X746957Y587959D01*
X746885Y587898D01*
X746811Y587840D01*
X746734Y587786D01*
X746656Y587734D01*
X746575Y587686D01*
X746493Y587641D01*
X746408Y587599D01*
X746322Y587561D01*
X746235Y587526D01*
X746147Y587494D01*
X746057Y587467D01*
X745966Y587442D01*
X745874Y587422D01*
X745782Y587405D01*
X745688Y587392D01*
X745595Y587383D01*
X745501Y587377D01*
X745407Y587375D01*
X742867Y589915D02*
X747947Y596265D01*
D12*
X785368Y571500D03*
X713232Y571500D03*
D10*
X847090Y327350D02*
X847190Y327348D01*
X847289Y327342D01*
X847389Y327332D01*
X847487Y327319D01*
X847586Y327301D01*
X847683Y327280D01*
X847779Y327255D01*
X847875Y327226D01*
X847969Y327193D01*
X848062Y327157D01*
X848153Y327117D01*
X848243Y327073D01*
X848331Y327026D01*
X848417Y326976D01*
X848501Y326922D01*
X848583Y326865D01*
X848662Y326805D01*
X848740Y326741D01*
X848814Y326675D01*
X848886Y326606D01*
X848955Y326534D01*
X849021Y326460D01*
X849085Y326382D01*
X849145Y326303D01*
X849202Y326221D01*
X849256Y326137D01*
X849306Y326051D01*
X849353Y325963D01*
X849397Y325873D01*
X849437Y325782D01*
X849473Y325689D01*
X849506Y325595D01*
X849535Y325499D01*
X849560Y325403D01*
X849581Y325306D01*
X849599Y325207D01*
X849612Y325109D01*
X849622Y325009D01*
X849628Y324910D01*
X849630Y324810D01*
X829310Y327350D02*
X829210Y327348D01*
X829111Y327342D01*
X829011Y327332D01*
X828913Y327319D01*
X828814Y327301D01*
X828717Y327280D01*
X828621Y327255D01*
X828525Y327226D01*
X828431Y327193D01*
X828338Y327157D01*
X828247Y327117D01*
X828157Y327073D01*
X828069Y327026D01*
X827983Y326976D01*
X827899Y326922D01*
X827817Y326865D01*
X827738Y326805D01*
X827660Y326741D01*
X827586Y326675D01*
X827514Y326606D01*
X827445Y326534D01*
X827379Y326460D01*
X827315Y326382D01*
X827255Y326303D01*
X827198Y326221D01*
X827144Y326137D01*
X827094Y326051D01*
X827047Y325963D01*
X827003Y325873D01*
X826963Y325782D01*
X826927Y325689D01*
X826894Y325595D01*
X826865Y325499D01*
X826840Y325403D01*
X826819Y325306D01*
X826801Y325207D01*
X826788Y325109D01*
X826778Y325009D01*
X826772Y324910D01*
X826770Y324810D01*
X826770Y266390D02*
X826772Y266290D01*
X826778Y266191D01*
X826788Y266091D01*
X826801Y265993D01*
X826819Y265894D01*
X826840Y265797D01*
X826865Y265701D01*
X826894Y265605D01*
X826927Y265511D01*
X826963Y265418D01*
X827003Y265327D01*
X827047Y265237D01*
X827094Y265149D01*
X827144Y265063D01*
X827198Y264979D01*
X827255Y264897D01*
X827315Y264818D01*
X827379Y264740D01*
X827445Y264666D01*
X827514Y264594D01*
X827586Y264525D01*
X827660Y264459D01*
X827738Y264395D01*
X827817Y264335D01*
X827899Y264278D01*
X827983Y264224D01*
X828069Y264174D01*
X828157Y264127D01*
X828247Y264083D01*
X828338Y264043D01*
X828431Y264007D01*
X828525Y263974D01*
X828621Y263945D01*
X828717Y263920D01*
X828814Y263899D01*
X828913Y263881D01*
X829011Y263868D01*
X829111Y263858D01*
X829210Y263852D01*
X829310Y263850D01*
X847090Y263850D02*
X847190Y263852D01*
X847289Y263858D01*
X847389Y263868D01*
X847487Y263881D01*
X847586Y263899D01*
X847683Y263920D01*
X847779Y263945D01*
X847875Y263974D01*
X847969Y264007D01*
X848062Y264043D01*
X848153Y264083D01*
X848243Y264127D01*
X848331Y264174D01*
X848417Y264224D01*
X848501Y264278D01*
X848583Y264335D01*
X848662Y264395D01*
X848740Y264459D01*
X848814Y264525D01*
X848886Y264594D01*
X848955Y264666D01*
X849021Y264740D01*
X849085Y264818D01*
X849145Y264897D01*
X849202Y264979D01*
X849256Y265063D01*
X849306Y265149D01*
X849353Y265237D01*
X849397Y265327D01*
X849437Y265418D01*
X849473Y265511D01*
X849506Y265605D01*
X849535Y265701D01*
X849560Y265797D01*
X849581Y265894D01*
X849599Y265993D01*
X849612Y266091D01*
X849622Y266191D01*
X849628Y266290D01*
X849630Y266390D01*
X847090Y327350D02*
X829310Y327350D01*
X849630Y324810D02*
X849630Y321000D01*
X848360Y319730D01*
X826770Y321000D02*
X826770Y324810D01*
X826770Y321000D02*
X828040Y319730D01*
X848360Y271470D02*
X849630Y270200D01*
X848360Y271470D02*
X848360Y319730D01*
X828040Y271470D02*
X826770Y270200D01*
X828040Y271470D02*
X828040Y319730D01*
X849630Y270200D02*
X849630Y266390D01*
X826770Y266390D02*
X826770Y270200D01*
X829310Y263850D02*
X847090Y263850D01*
D11*
X854075Y296318D02*
X865505Y296318D01*
X854075Y296318D02*
X854075Y299493D01*
X854077Y299604D01*
X854083Y299714D01*
X854092Y299825D01*
X854106Y299935D01*
X854123Y300044D01*
X854144Y300153D01*
X854169Y300261D01*
X854198Y300368D01*
X854230Y300474D01*
X854266Y300579D01*
X854306Y300682D01*
X854349Y300784D01*
X854396Y300885D01*
X854447Y300984D01*
X854500Y301081D01*
X854557Y301175D01*
X854618Y301268D01*
X854681Y301359D01*
X854748Y301448D01*
X854818Y301534D01*
X854891Y301617D01*
X854966Y301699D01*
X855044Y301777D01*
X855126Y301852D01*
X855209Y301925D01*
X855295Y301995D01*
X855384Y302062D01*
X855475Y302125D01*
X855568Y302186D01*
X855663Y302243D01*
X855759Y302296D01*
X855858Y302347D01*
X855959Y302394D01*
X856061Y302437D01*
X856164Y302477D01*
X856269Y302513D01*
X856375Y302545D01*
X856482Y302574D01*
X856590Y302599D01*
X856699Y302620D01*
X856808Y302637D01*
X856918Y302651D01*
X857029Y302660D01*
X857139Y302666D01*
X857250Y302668D01*
X857361Y302666D01*
X857471Y302660D01*
X857582Y302651D01*
X857692Y302637D01*
X857801Y302620D01*
X857910Y302599D01*
X858018Y302574D01*
X858125Y302545D01*
X858231Y302513D01*
X858336Y302477D01*
X858439Y302437D01*
X858541Y302394D01*
X858642Y302347D01*
X858741Y302296D01*
X858838Y302243D01*
X858932Y302186D01*
X859025Y302125D01*
X859116Y302062D01*
X859205Y301995D01*
X859291Y301925D01*
X859374Y301852D01*
X859456Y301777D01*
X859534Y301699D01*
X859609Y301617D01*
X859682Y301534D01*
X859752Y301448D01*
X859819Y301359D01*
X859882Y301268D01*
X859943Y301175D01*
X860000Y301081D01*
X860053Y300984D01*
X860104Y300885D01*
X860151Y300784D01*
X860194Y300682D01*
X860234Y300579D01*
X860270Y300474D01*
X860302Y300368D01*
X860331Y300261D01*
X860356Y300153D01*
X860377Y300044D01*
X860394Y299935D01*
X860408Y299825D01*
X860417Y299714D01*
X860423Y299604D01*
X860425Y299493D01*
X860425Y296318D01*
X860425Y300128D02*
X865505Y302668D01*
X856615Y307665D02*
X854075Y310840D01*
X865505Y310840D01*
X865505Y307665D02*
X865505Y314015D01*
X856615Y319095D02*
X854075Y322270D01*
X865505Y322270D01*
X865505Y319095D02*
X865505Y325445D01*
D13*
X838200Y259532D03*
X838200Y331668D03*
D10*
X811530Y324810D02*
X811528Y324910D01*
X811522Y325009D01*
X811512Y325109D01*
X811499Y325207D01*
X811481Y325306D01*
X811460Y325403D01*
X811435Y325499D01*
X811406Y325595D01*
X811373Y325689D01*
X811337Y325782D01*
X811297Y325873D01*
X811253Y325963D01*
X811206Y326051D01*
X811156Y326137D01*
X811102Y326221D01*
X811045Y326303D01*
X810985Y326382D01*
X810921Y326460D01*
X810855Y326534D01*
X810786Y326606D01*
X810714Y326675D01*
X810640Y326741D01*
X810562Y326805D01*
X810483Y326865D01*
X810401Y326922D01*
X810317Y326976D01*
X810231Y327026D01*
X810143Y327073D01*
X810053Y327117D01*
X809962Y327157D01*
X809869Y327193D01*
X809775Y327226D01*
X809679Y327255D01*
X809583Y327280D01*
X809486Y327301D01*
X809387Y327319D01*
X809289Y327332D01*
X809189Y327342D01*
X809090Y327348D01*
X808990Y327350D01*
X791210Y327350D02*
X791110Y327348D01*
X791011Y327342D01*
X790911Y327332D01*
X790813Y327319D01*
X790714Y327301D01*
X790617Y327280D01*
X790521Y327255D01*
X790425Y327226D01*
X790331Y327193D01*
X790238Y327157D01*
X790147Y327117D01*
X790057Y327073D01*
X789969Y327026D01*
X789883Y326976D01*
X789799Y326922D01*
X789717Y326865D01*
X789638Y326805D01*
X789560Y326741D01*
X789486Y326675D01*
X789414Y326606D01*
X789345Y326534D01*
X789279Y326460D01*
X789215Y326382D01*
X789155Y326303D01*
X789098Y326221D01*
X789044Y326137D01*
X788994Y326051D01*
X788947Y325963D01*
X788903Y325873D01*
X788863Y325782D01*
X788827Y325689D01*
X788794Y325595D01*
X788765Y325499D01*
X788740Y325403D01*
X788719Y325306D01*
X788701Y325207D01*
X788688Y325109D01*
X788678Y325009D01*
X788672Y324910D01*
X788670Y324810D01*
X788670Y266390D02*
X788672Y266290D01*
X788678Y266191D01*
X788688Y266091D01*
X788701Y265993D01*
X788719Y265894D01*
X788740Y265797D01*
X788765Y265701D01*
X788794Y265605D01*
X788827Y265511D01*
X788863Y265418D01*
X788903Y265327D01*
X788947Y265237D01*
X788994Y265149D01*
X789044Y265063D01*
X789098Y264979D01*
X789155Y264897D01*
X789215Y264818D01*
X789279Y264740D01*
X789345Y264666D01*
X789414Y264594D01*
X789486Y264525D01*
X789560Y264459D01*
X789638Y264395D01*
X789717Y264335D01*
X789799Y264278D01*
X789883Y264224D01*
X789969Y264174D01*
X790057Y264127D01*
X790147Y264083D01*
X790238Y264043D01*
X790331Y264007D01*
X790425Y263974D01*
X790521Y263945D01*
X790617Y263920D01*
X790714Y263899D01*
X790813Y263881D01*
X790911Y263868D01*
X791011Y263858D01*
X791110Y263852D01*
X791210Y263850D01*
X808990Y263850D02*
X809090Y263852D01*
X809189Y263858D01*
X809289Y263868D01*
X809387Y263881D01*
X809486Y263899D01*
X809583Y263920D01*
X809679Y263945D01*
X809775Y263974D01*
X809869Y264007D01*
X809962Y264043D01*
X810053Y264083D01*
X810143Y264127D01*
X810231Y264174D01*
X810317Y264224D01*
X810401Y264278D01*
X810483Y264335D01*
X810562Y264395D01*
X810640Y264459D01*
X810714Y264525D01*
X810786Y264594D01*
X810855Y264666D01*
X810921Y264740D01*
X810985Y264818D01*
X811045Y264897D01*
X811102Y264979D01*
X811156Y265063D01*
X811206Y265149D01*
X811253Y265237D01*
X811297Y265327D01*
X811337Y265418D01*
X811373Y265511D01*
X811406Y265605D01*
X811435Y265701D01*
X811460Y265797D01*
X811481Y265894D01*
X811499Y265993D01*
X811512Y266091D01*
X811522Y266191D01*
X811528Y266290D01*
X811530Y266390D01*
X808990Y327350D02*
X791210Y327350D01*
X811530Y324810D02*
X811530Y321000D01*
X810260Y319730D01*
X788670Y321000D02*
X788670Y324810D01*
X788670Y321000D02*
X789940Y319730D01*
X810260Y271470D02*
X811530Y270200D01*
X810260Y271470D02*
X810260Y319730D01*
X789940Y271470D02*
X788670Y270200D01*
X789940Y271470D02*
X789940Y319730D01*
X811530Y270200D02*
X811530Y266390D01*
X788670Y266390D02*
X788670Y270200D01*
X791210Y263850D02*
X808990Y263850D01*
D11*
X815975Y296318D02*
X827405Y296318D01*
X815975Y296318D02*
X815975Y299493D01*
X815977Y299604D01*
X815983Y299714D01*
X815992Y299825D01*
X816006Y299935D01*
X816023Y300044D01*
X816044Y300153D01*
X816069Y300261D01*
X816098Y300368D01*
X816130Y300474D01*
X816166Y300579D01*
X816206Y300682D01*
X816249Y300784D01*
X816296Y300885D01*
X816347Y300984D01*
X816400Y301081D01*
X816457Y301175D01*
X816518Y301268D01*
X816581Y301359D01*
X816648Y301448D01*
X816718Y301534D01*
X816791Y301617D01*
X816866Y301699D01*
X816944Y301777D01*
X817026Y301852D01*
X817109Y301925D01*
X817195Y301995D01*
X817284Y302062D01*
X817375Y302125D01*
X817468Y302186D01*
X817563Y302243D01*
X817659Y302296D01*
X817758Y302347D01*
X817859Y302394D01*
X817961Y302437D01*
X818064Y302477D01*
X818169Y302513D01*
X818275Y302545D01*
X818382Y302574D01*
X818490Y302599D01*
X818599Y302620D01*
X818708Y302637D01*
X818818Y302651D01*
X818929Y302660D01*
X819039Y302666D01*
X819150Y302668D01*
X819261Y302666D01*
X819371Y302660D01*
X819482Y302651D01*
X819592Y302637D01*
X819701Y302620D01*
X819810Y302599D01*
X819918Y302574D01*
X820025Y302545D01*
X820131Y302513D01*
X820236Y302477D01*
X820339Y302437D01*
X820441Y302394D01*
X820542Y302347D01*
X820641Y302296D01*
X820738Y302243D01*
X820832Y302186D01*
X820925Y302125D01*
X821016Y302062D01*
X821105Y301995D01*
X821191Y301925D01*
X821274Y301852D01*
X821356Y301777D01*
X821434Y301699D01*
X821509Y301617D01*
X821582Y301534D01*
X821652Y301448D01*
X821719Y301359D01*
X821782Y301268D01*
X821843Y301175D01*
X821900Y301081D01*
X821953Y300984D01*
X822004Y300885D01*
X822051Y300784D01*
X822094Y300682D01*
X822134Y300579D01*
X822170Y300474D01*
X822202Y300368D01*
X822231Y300261D01*
X822256Y300153D01*
X822277Y300044D01*
X822294Y299935D01*
X822308Y299825D01*
X822317Y299714D01*
X822323Y299604D01*
X822325Y299493D01*
X822325Y296318D01*
X822325Y300128D02*
X827405Y302668D01*
X818515Y307665D02*
X815975Y310840D01*
X827405Y310840D01*
X827405Y307665D02*
X827405Y314015D01*
X815975Y322588D02*
X815977Y322692D01*
X815983Y322797D01*
X815992Y322901D01*
X816005Y323004D01*
X816023Y323107D01*
X816043Y323209D01*
X816068Y323311D01*
X816096Y323411D01*
X816128Y323511D01*
X816164Y323609D01*
X816203Y323706D01*
X816245Y323801D01*
X816291Y323895D01*
X816341Y323987D01*
X816393Y324077D01*
X816449Y324165D01*
X816509Y324251D01*
X816571Y324335D01*
X816636Y324416D01*
X816704Y324495D01*
X816776Y324572D01*
X816849Y324645D01*
X816926Y324717D01*
X817005Y324785D01*
X817086Y324850D01*
X817170Y324912D01*
X817256Y324972D01*
X817344Y325028D01*
X817434Y325080D01*
X817526Y325130D01*
X817620Y325176D01*
X817715Y325218D01*
X817812Y325257D01*
X817910Y325293D01*
X818010Y325325D01*
X818110Y325353D01*
X818212Y325378D01*
X818314Y325398D01*
X818417Y325416D01*
X818520Y325429D01*
X818624Y325438D01*
X818729Y325444D01*
X818833Y325446D01*
X815975Y322588D02*
X815977Y322470D01*
X815983Y322351D01*
X815992Y322233D01*
X816005Y322116D01*
X816023Y321999D01*
X816043Y321882D01*
X816068Y321766D01*
X816096Y321651D01*
X816129Y321538D01*
X816164Y321425D01*
X816204Y321313D01*
X816246Y321203D01*
X816293Y321094D01*
X816343Y320986D01*
X816396Y320881D01*
X816453Y320777D01*
X816513Y320675D01*
X816576Y320575D01*
X816643Y320477D01*
X816712Y320381D01*
X816785Y320288D01*
X816861Y320197D01*
X816939Y320108D01*
X817021Y320022D01*
X817105Y319939D01*
X817191Y319858D01*
X817281Y319781D01*
X817372Y319706D01*
X817466Y319634D01*
X817563Y319565D01*
X817661Y319500D01*
X817762Y319437D01*
X817865Y319378D01*
X817969Y319322D01*
X818075Y319270D01*
X818183Y319221D01*
X818292Y319176D01*
X818403Y319134D01*
X818515Y319096D01*
X821055Y324493D02*
X820980Y324569D01*
X820901Y324644D01*
X820820Y324715D01*
X820736Y324784D01*
X820650Y324849D01*
X820562Y324911D01*
X820472Y324971D01*
X820380Y325027D01*
X820285Y325080D01*
X820189Y325129D01*
X820091Y325175D01*
X819992Y325218D01*
X819891Y325257D01*
X819789Y325292D01*
X819686Y325324D01*
X819582Y325352D01*
X819477Y325377D01*
X819370Y325398D01*
X819264Y325415D01*
X819157Y325428D01*
X819049Y325437D01*
X818941Y325443D01*
X818833Y325445D01*
X821055Y324493D02*
X827405Y319095D01*
X827405Y325445D01*
D13*
X800100Y259532D03*
X800100Y331668D03*
D10*
X552450Y580390D02*
X552452Y580490D01*
X552458Y580589D01*
X552468Y580689D01*
X552481Y580787D01*
X552499Y580886D01*
X552520Y580983D01*
X552545Y581079D01*
X552574Y581175D01*
X552607Y581269D01*
X552643Y581362D01*
X552683Y581453D01*
X552727Y581543D01*
X552774Y581631D01*
X552824Y581717D01*
X552878Y581801D01*
X552935Y581883D01*
X552995Y581962D01*
X553059Y582040D01*
X553125Y582114D01*
X553194Y582186D01*
X553266Y582255D01*
X553340Y582321D01*
X553418Y582385D01*
X553497Y582445D01*
X553579Y582502D01*
X553663Y582556D01*
X553749Y582606D01*
X553837Y582653D01*
X553927Y582697D01*
X554018Y582737D01*
X554111Y582773D01*
X554205Y582806D01*
X554301Y582835D01*
X554397Y582860D01*
X554494Y582881D01*
X554593Y582899D01*
X554691Y582912D01*
X554791Y582922D01*
X554890Y582928D01*
X554990Y582930D01*
X552450Y562610D02*
X552452Y562510D01*
X552458Y562411D01*
X552468Y562311D01*
X552481Y562213D01*
X552499Y562114D01*
X552520Y562017D01*
X552545Y561921D01*
X552574Y561825D01*
X552607Y561731D01*
X552643Y561638D01*
X552683Y561547D01*
X552727Y561457D01*
X552774Y561369D01*
X552824Y561283D01*
X552878Y561199D01*
X552935Y561117D01*
X552995Y561038D01*
X553059Y560960D01*
X553125Y560886D01*
X553194Y560814D01*
X553266Y560745D01*
X553340Y560679D01*
X553418Y560615D01*
X553497Y560555D01*
X553579Y560498D01*
X553663Y560444D01*
X553749Y560394D01*
X553837Y560347D01*
X553927Y560303D01*
X554018Y560263D01*
X554111Y560227D01*
X554205Y560194D01*
X554301Y560165D01*
X554397Y560140D01*
X554494Y560119D01*
X554593Y560101D01*
X554691Y560088D01*
X554791Y560078D01*
X554890Y560072D01*
X554990Y560070D01*
X613410Y560070D02*
X613510Y560072D01*
X613609Y560078D01*
X613709Y560088D01*
X613807Y560101D01*
X613906Y560119D01*
X614003Y560140D01*
X614099Y560165D01*
X614195Y560194D01*
X614289Y560227D01*
X614382Y560263D01*
X614473Y560303D01*
X614563Y560347D01*
X614651Y560394D01*
X614737Y560444D01*
X614821Y560498D01*
X614903Y560555D01*
X614982Y560615D01*
X615060Y560679D01*
X615134Y560745D01*
X615206Y560814D01*
X615275Y560886D01*
X615341Y560960D01*
X615405Y561038D01*
X615465Y561117D01*
X615522Y561199D01*
X615576Y561283D01*
X615626Y561369D01*
X615673Y561457D01*
X615717Y561547D01*
X615757Y561638D01*
X615793Y561731D01*
X615826Y561825D01*
X615855Y561921D01*
X615880Y562017D01*
X615901Y562114D01*
X615919Y562213D01*
X615932Y562311D01*
X615942Y562411D01*
X615948Y562510D01*
X615950Y562610D01*
X615950Y580390D02*
X615948Y580490D01*
X615942Y580589D01*
X615932Y580689D01*
X615919Y580787D01*
X615901Y580886D01*
X615880Y580983D01*
X615855Y581079D01*
X615826Y581175D01*
X615793Y581269D01*
X615757Y581362D01*
X615717Y581453D01*
X615673Y581543D01*
X615626Y581631D01*
X615576Y581717D01*
X615522Y581801D01*
X615465Y581883D01*
X615405Y581962D01*
X615341Y582040D01*
X615275Y582114D01*
X615206Y582186D01*
X615134Y582255D01*
X615060Y582321D01*
X614982Y582385D01*
X614903Y582445D01*
X614821Y582502D01*
X614737Y582556D01*
X614651Y582606D01*
X614563Y582653D01*
X614473Y582697D01*
X614382Y582737D01*
X614289Y582773D01*
X614195Y582806D01*
X614099Y582835D01*
X614003Y582860D01*
X613906Y582881D01*
X613807Y582899D01*
X613709Y582912D01*
X613609Y582922D01*
X613510Y582928D01*
X613410Y582930D01*
X552450Y580390D02*
X552450Y562610D01*
X554990Y582930D02*
X558800Y582930D01*
X560070Y581660D01*
X558800Y560070D02*
X554990Y560070D01*
X558800Y560070D02*
X560070Y561340D01*
X608330Y581660D02*
X609600Y582930D01*
X608330Y581660D02*
X560070Y581660D01*
X608330Y561340D02*
X609600Y560070D01*
X608330Y561340D02*
X560070Y561340D01*
X609600Y582930D02*
X613410Y582930D01*
X613410Y560070D02*
X609600Y560070D01*
X615950Y562610D02*
X615950Y580390D01*
D11*
X554355Y587375D02*
X554355Y598805D01*
X557530Y598805D01*
X557641Y598803D01*
X557751Y598797D01*
X557862Y598788D01*
X557972Y598774D01*
X558081Y598757D01*
X558190Y598736D01*
X558298Y598711D01*
X558405Y598682D01*
X558511Y598650D01*
X558616Y598614D01*
X558719Y598574D01*
X558821Y598531D01*
X558922Y598484D01*
X559021Y598433D01*
X559118Y598380D01*
X559212Y598323D01*
X559305Y598262D01*
X559396Y598199D01*
X559485Y598132D01*
X559571Y598062D01*
X559654Y597989D01*
X559736Y597914D01*
X559814Y597836D01*
X559889Y597754D01*
X559962Y597671D01*
X560032Y597585D01*
X560099Y597496D01*
X560162Y597405D01*
X560223Y597312D01*
X560280Y597217D01*
X560333Y597121D01*
X560384Y597022D01*
X560431Y596921D01*
X560474Y596819D01*
X560514Y596716D01*
X560550Y596611D01*
X560582Y596505D01*
X560611Y596398D01*
X560636Y596290D01*
X560657Y596181D01*
X560674Y596072D01*
X560688Y595962D01*
X560697Y595851D01*
X560703Y595741D01*
X560705Y595630D01*
X560703Y595519D01*
X560697Y595409D01*
X560688Y595298D01*
X560674Y595188D01*
X560657Y595079D01*
X560636Y594970D01*
X560611Y594862D01*
X560582Y594755D01*
X560550Y594649D01*
X560514Y594544D01*
X560474Y594441D01*
X560431Y594339D01*
X560384Y594238D01*
X560333Y594139D01*
X560280Y594043D01*
X560223Y593948D01*
X560162Y593855D01*
X560099Y593764D01*
X560032Y593675D01*
X559962Y593589D01*
X559889Y593506D01*
X559814Y593424D01*
X559736Y593346D01*
X559654Y593271D01*
X559571Y593198D01*
X559485Y593128D01*
X559396Y593061D01*
X559305Y592998D01*
X559212Y592937D01*
X559118Y592880D01*
X559021Y592827D01*
X558922Y592776D01*
X558821Y592729D01*
X558719Y592686D01*
X558616Y592646D01*
X558511Y592610D01*
X558405Y592578D01*
X558298Y592549D01*
X558190Y592524D01*
X558081Y592503D01*
X557972Y592486D01*
X557862Y592472D01*
X557751Y592463D01*
X557641Y592457D01*
X557530Y592455D01*
X554355Y592455D01*
X558165Y592455D02*
X560705Y587375D01*
X572053Y595948D02*
X572051Y596052D01*
X572045Y596157D01*
X572036Y596261D01*
X572023Y596364D01*
X572005Y596467D01*
X571985Y596569D01*
X571960Y596671D01*
X571932Y596771D01*
X571900Y596871D01*
X571864Y596969D01*
X571825Y597066D01*
X571783Y597161D01*
X571737Y597255D01*
X571687Y597347D01*
X571635Y597437D01*
X571579Y597525D01*
X571519Y597611D01*
X571457Y597695D01*
X571392Y597776D01*
X571324Y597855D01*
X571252Y597932D01*
X571179Y598005D01*
X571102Y598077D01*
X571023Y598145D01*
X570942Y598210D01*
X570858Y598272D01*
X570772Y598332D01*
X570684Y598388D01*
X570594Y598440D01*
X570502Y598490D01*
X570408Y598536D01*
X570313Y598578D01*
X570216Y598617D01*
X570118Y598653D01*
X570018Y598685D01*
X569918Y598713D01*
X569816Y598738D01*
X569714Y598758D01*
X569611Y598776D01*
X569508Y598789D01*
X569404Y598798D01*
X569299Y598804D01*
X569195Y598806D01*
X569195Y598805D02*
X569077Y598803D01*
X568958Y598797D01*
X568840Y598788D01*
X568723Y598775D01*
X568606Y598757D01*
X568489Y598737D01*
X568373Y598712D01*
X568258Y598684D01*
X568145Y598651D01*
X568032Y598616D01*
X567920Y598576D01*
X567810Y598534D01*
X567701Y598487D01*
X567593Y598437D01*
X567488Y598384D01*
X567384Y598327D01*
X567282Y598267D01*
X567182Y598204D01*
X567084Y598137D01*
X566988Y598068D01*
X566895Y597995D01*
X566804Y597919D01*
X566715Y597841D01*
X566629Y597759D01*
X566546Y597675D01*
X566465Y597589D01*
X566388Y597499D01*
X566313Y597408D01*
X566241Y597314D01*
X566172Y597217D01*
X566107Y597119D01*
X566044Y597018D01*
X565985Y596915D01*
X565929Y596811D01*
X565877Y596705D01*
X565828Y596597D01*
X565783Y596488D01*
X565741Y596377D01*
X565703Y596265D01*
X571100Y593726D02*
X571176Y593801D01*
X571251Y593880D01*
X571322Y593961D01*
X571391Y594045D01*
X571456Y594131D01*
X571518Y594219D01*
X571578Y594309D01*
X571634Y594401D01*
X571687Y594496D01*
X571736Y594592D01*
X571782Y594690D01*
X571825Y594789D01*
X571864Y594890D01*
X571899Y594992D01*
X571931Y595095D01*
X571959Y595199D01*
X571984Y595304D01*
X572005Y595411D01*
X572022Y595517D01*
X572035Y595624D01*
X572044Y595732D01*
X572050Y595840D01*
X572052Y595948D01*
X571100Y593725D02*
X565702Y587375D01*
X572052Y587375D01*
D12*
X620268Y571500D03*
X548132Y571500D03*
D10*
X847090Y527050D02*
X847190Y527048D01*
X847289Y527042D01*
X847389Y527032D01*
X847487Y527019D01*
X847586Y527001D01*
X847683Y526980D01*
X847779Y526955D01*
X847875Y526926D01*
X847969Y526893D01*
X848062Y526857D01*
X848153Y526817D01*
X848243Y526773D01*
X848331Y526726D01*
X848417Y526676D01*
X848501Y526622D01*
X848583Y526565D01*
X848662Y526505D01*
X848740Y526441D01*
X848814Y526375D01*
X848886Y526306D01*
X848955Y526234D01*
X849021Y526160D01*
X849085Y526082D01*
X849145Y526003D01*
X849202Y525921D01*
X849256Y525837D01*
X849306Y525751D01*
X849353Y525663D01*
X849397Y525573D01*
X849437Y525482D01*
X849473Y525389D01*
X849506Y525295D01*
X849535Y525199D01*
X849560Y525103D01*
X849581Y525006D01*
X849599Y524907D01*
X849612Y524809D01*
X849622Y524709D01*
X849628Y524610D01*
X849630Y524510D01*
X829310Y527050D02*
X829210Y527048D01*
X829111Y527042D01*
X829011Y527032D01*
X828913Y527019D01*
X828814Y527001D01*
X828717Y526980D01*
X828621Y526955D01*
X828525Y526926D01*
X828431Y526893D01*
X828338Y526857D01*
X828247Y526817D01*
X828157Y526773D01*
X828069Y526726D01*
X827983Y526676D01*
X827899Y526622D01*
X827817Y526565D01*
X827738Y526505D01*
X827660Y526441D01*
X827586Y526375D01*
X827514Y526306D01*
X827445Y526234D01*
X827379Y526160D01*
X827315Y526082D01*
X827255Y526003D01*
X827198Y525921D01*
X827144Y525837D01*
X827094Y525751D01*
X827047Y525663D01*
X827003Y525573D01*
X826963Y525482D01*
X826927Y525389D01*
X826894Y525295D01*
X826865Y525199D01*
X826840Y525103D01*
X826819Y525006D01*
X826801Y524907D01*
X826788Y524809D01*
X826778Y524709D01*
X826772Y524610D01*
X826770Y524510D01*
X826770Y466090D02*
X826772Y465990D01*
X826778Y465891D01*
X826788Y465791D01*
X826801Y465693D01*
X826819Y465594D01*
X826840Y465497D01*
X826865Y465401D01*
X826894Y465305D01*
X826927Y465211D01*
X826963Y465118D01*
X827003Y465027D01*
X827047Y464937D01*
X827094Y464849D01*
X827144Y464763D01*
X827198Y464679D01*
X827255Y464597D01*
X827315Y464518D01*
X827379Y464440D01*
X827445Y464366D01*
X827514Y464294D01*
X827586Y464225D01*
X827660Y464159D01*
X827738Y464095D01*
X827817Y464035D01*
X827899Y463978D01*
X827983Y463924D01*
X828069Y463874D01*
X828157Y463827D01*
X828247Y463783D01*
X828338Y463743D01*
X828431Y463707D01*
X828525Y463674D01*
X828621Y463645D01*
X828717Y463620D01*
X828814Y463599D01*
X828913Y463581D01*
X829011Y463568D01*
X829111Y463558D01*
X829210Y463552D01*
X829310Y463550D01*
X847090Y463550D02*
X847190Y463552D01*
X847289Y463558D01*
X847389Y463568D01*
X847487Y463581D01*
X847586Y463599D01*
X847683Y463620D01*
X847779Y463645D01*
X847875Y463674D01*
X847969Y463707D01*
X848062Y463743D01*
X848153Y463783D01*
X848243Y463827D01*
X848331Y463874D01*
X848417Y463924D01*
X848501Y463978D01*
X848583Y464035D01*
X848662Y464095D01*
X848740Y464159D01*
X848814Y464225D01*
X848886Y464294D01*
X848955Y464366D01*
X849021Y464440D01*
X849085Y464518D01*
X849145Y464597D01*
X849202Y464679D01*
X849256Y464763D01*
X849306Y464849D01*
X849353Y464937D01*
X849397Y465027D01*
X849437Y465118D01*
X849473Y465211D01*
X849506Y465305D01*
X849535Y465401D01*
X849560Y465497D01*
X849581Y465594D01*
X849599Y465693D01*
X849612Y465791D01*
X849622Y465891D01*
X849628Y465990D01*
X849630Y466090D01*
X847090Y527050D02*
X829310Y527050D01*
X849630Y524510D02*
X849630Y520700D01*
X848360Y519430D01*
X826770Y520700D02*
X826770Y524510D01*
X826770Y520700D02*
X828040Y519430D01*
X848360Y471170D02*
X849630Y469900D01*
X848360Y471170D02*
X848360Y519430D01*
X828040Y471170D02*
X826770Y469900D01*
X828040Y471170D02*
X828040Y519430D01*
X849630Y469900D02*
X849630Y466090D01*
X826770Y466090D02*
X826770Y469900D01*
X829310Y463550D02*
X847090Y463550D01*
D11*
X854075Y507448D02*
X865505Y507448D01*
X854075Y507448D02*
X854075Y510623D01*
X854077Y510734D01*
X854083Y510844D01*
X854092Y510955D01*
X854106Y511065D01*
X854123Y511174D01*
X854144Y511283D01*
X854169Y511391D01*
X854198Y511498D01*
X854230Y511604D01*
X854266Y511709D01*
X854306Y511812D01*
X854349Y511914D01*
X854396Y512015D01*
X854447Y512114D01*
X854500Y512211D01*
X854557Y512305D01*
X854618Y512398D01*
X854681Y512489D01*
X854748Y512578D01*
X854818Y512664D01*
X854891Y512747D01*
X854966Y512829D01*
X855044Y512907D01*
X855126Y512982D01*
X855209Y513055D01*
X855295Y513125D01*
X855384Y513192D01*
X855475Y513255D01*
X855568Y513316D01*
X855663Y513373D01*
X855759Y513426D01*
X855858Y513477D01*
X855959Y513524D01*
X856061Y513567D01*
X856164Y513607D01*
X856269Y513643D01*
X856375Y513675D01*
X856482Y513704D01*
X856590Y513729D01*
X856699Y513750D01*
X856808Y513767D01*
X856918Y513781D01*
X857029Y513790D01*
X857139Y513796D01*
X857250Y513798D01*
X857361Y513796D01*
X857471Y513790D01*
X857582Y513781D01*
X857692Y513767D01*
X857801Y513750D01*
X857910Y513729D01*
X858018Y513704D01*
X858125Y513675D01*
X858231Y513643D01*
X858336Y513607D01*
X858439Y513567D01*
X858541Y513524D01*
X858642Y513477D01*
X858741Y513426D01*
X858838Y513373D01*
X858932Y513316D01*
X859025Y513255D01*
X859116Y513192D01*
X859205Y513125D01*
X859291Y513055D01*
X859374Y512982D01*
X859456Y512907D01*
X859534Y512829D01*
X859609Y512747D01*
X859682Y512664D01*
X859752Y512578D01*
X859819Y512489D01*
X859882Y512398D01*
X859943Y512305D01*
X860000Y512211D01*
X860053Y512114D01*
X860104Y512015D01*
X860151Y511914D01*
X860194Y511812D01*
X860234Y511709D01*
X860270Y511604D01*
X860302Y511498D01*
X860331Y511391D01*
X860356Y511283D01*
X860377Y511174D01*
X860394Y511065D01*
X860408Y510955D01*
X860417Y510844D01*
X860423Y510734D01*
X860425Y510623D01*
X860425Y507448D01*
X860425Y511258D02*
X865505Y513798D01*
X865505Y518795D02*
X865505Y521970D01*
X865503Y522081D01*
X865497Y522191D01*
X865488Y522302D01*
X865474Y522412D01*
X865457Y522521D01*
X865436Y522630D01*
X865411Y522738D01*
X865382Y522845D01*
X865350Y522951D01*
X865314Y523056D01*
X865274Y523159D01*
X865231Y523261D01*
X865184Y523362D01*
X865133Y523461D01*
X865080Y523558D01*
X865023Y523652D01*
X864962Y523745D01*
X864899Y523836D01*
X864832Y523925D01*
X864762Y524011D01*
X864689Y524094D01*
X864614Y524176D01*
X864536Y524254D01*
X864454Y524329D01*
X864371Y524402D01*
X864285Y524472D01*
X864196Y524539D01*
X864105Y524602D01*
X864012Y524663D01*
X863918Y524720D01*
X863821Y524773D01*
X863722Y524824D01*
X863621Y524871D01*
X863519Y524914D01*
X863416Y524954D01*
X863311Y524990D01*
X863205Y525022D01*
X863098Y525051D01*
X862990Y525076D01*
X862881Y525097D01*
X862772Y525114D01*
X862662Y525128D01*
X862551Y525137D01*
X862441Y525143D01*
X862330Y525145D01*
X862219Y525143D01*
X862109Y525137D01*
X861998Y525128D01*
X861888Y525114D01*
X861779Y525097D01*
X861670Y525076D01*
X861562Y525051D01*
X861455Y525022D01*
X861349Y524990D01*
X861244Y524954D01*
X861141Y524914D01*
X861039Y524871D01*
X860938Y524824D01*
X860839Y524773D01*
X860743Y524720D01*
X860648Y524663D01*
X860555Y524602D01*
X860464Y524539D01*
X860375Y524472D01*
X860289Y524402D01*
X860206Y524329D01*
X860124Y524254D01*
X860046Y524176D01*
X859971Y524094D01*
X859898Y524011D01*
X859828Y523925D01*
X859761Y523836D01*
X859698Y523745D01*
X859637Y523652D01*
X859580Y523558D01*
X859527Y523461D01*
X859476Y523362D01*
X859429Y523261D01*
X859386Y523159D01*
X859346Y523056D01*
X859310Y522951D01*
X859278Y522845D01*
X859249Y522738D01*
X859224Y522630D01*
X859203Y522521D01*
X859186Y522412D01*
X859172Y522302D01*
X859163Y522191D01*
X859157Y522081D01*
X859155Y521970D01*
X854075Y522605D02*
X854075Y518795D01*
X854075Y522605D02*
X854077Y522705D01*
X854083Y522804D01*
X854093Y522904D01*
X854106Y523002D01*
X854124Y523101D01*
X854145Y523198D01*
X854170Y523294D01*
X854199Y523390D01*
X854232Y523484D01*
X854268Y523577D01*
X854308Y523668D01*
X854352Y523758D01*
X854399Y523846D01*
X854449Y523932D01*
X854503Y524016D01*
X854560Y524098D01*
X854620Y524177D01*
X854684Y524255D01*
X854750Y524329D01*
X854819Y524401D01*
X854891Y524470D01*
X854965Y524536D01*
X855043Y524600D01*
X855122Y524660D01*
X855204Y524717D01*
X855288Y524771D01*
X855374Y524821D01*
X855462Y524868D01*
X855552Y524912D01*
X855643Y524952D01*
X855736Y524988D01*
X855830Y525021D01*
X855926Y525050D01*
X856022Y525075D01*
X856119Y525096D01*
X856218Y525114D01*
X856316Y525127D01*
X856416Y525137D01*
X856515Y525143D01*
X856615Y525145D01*
X856715Y525143D01*
X856814Y525137D01*
X856914Y525127D01*
X857012Y525114D01*
X857111Y525096D01*
X857208Y525075D01*
X857304Y525050D01*
X857400Y525021D01*
X857494Y524988D01*
X857587Y524952D01*
X857678Y524912D01*
X857768Y524868D01*
X857856Y524821D01*
X857942Y524771D01*
X858026Y524717D01*
X858108Y524660D01*
X858187Y524600D01*
X858265Y524536D01*
X858339Y524470D01*
X858411Y524401D01*
X858480Y524329D01*
X858546Y524255D01*
X858610Y524177D01*
X858670Y524098D01*
X858727Y524016D01*
X858781Y523932D01*
X858831Y523846D01*
X858878Y523758D01*
X858922Y523668D01*
X858962Y523577D01*
X858998Y523484D01*
X859031Y523390D01*
X859060Y523294D01*
X859085Y523198D01*
X859106Y523101D01*
X859124Y523002D01*
X859137Y522904D01*
X859147Y522804D01*
X859153Y522705D01*
X859155Y522605D01*
X859155Y520065D01*
D13*
X838200Y459232D03*
X838200Y531368D03*
D10*
X811530Y524510D02*
X811528Y524610D01*
X811522Y524709D01*
X811512Y524809D01*
X811499Y524907D01*
X811481Y525006D01*
X811460Y525103D01*
X811435Y525199D01*
X811406Y525295D01*
X811373Y525389D01*
X811337Y525482D01*
X811297Y525573D01*
X811253Y525663D01*
X811206Y525751D01*
X811156Y525837D01*
X811102Y525921D01*
X811045Y526003D01*
X810985Y526082D01*
X810921Y526160D01*
X810855Y526234D01*
X810786Y526306D01*
X810714Y526375D01*
X810640Y526441D01*
X810562Y526505D01*
X810483Y526565D01*
X810401Y526622D01*
X810317Y526676D01*
X810231Y526726D01*
X810143Y526773D01*
X810053Y526817D01*
X809962Y526857D01*
X809869Y526893D01*
X809775Y526926D01*
X809679Y526955D01*
X809583Y526980D01*
X809486Y527001D01*
X809387Y527019D01*
X809289Y527032D01*
X809189Y527042D01*
X809090Y527048D01*
X808990Y527050D01*
X791210Y527050D02*
X791110Y527048D01*
X791011Y527042D01*
X790911Y527032D01*
X790813Y527019D01*
X790714Y527001D01*
X790617Y526980D01*
X790521Y526955D01*
X790425Y526926D01*
X790331Y526893D01*
X790238Y526857D01*
X790147Y526817D01*
X790057Y526773D01*
X789969Y526726D01*
X789883Y526676D01*
X789799Y526622D01*
X789717Y526565D01*
X789638Y526505D01*
X789560Y526441D01*
X789486Y526375D01*
X789414Y526306D01*
X789345Y526234D01*
X789279Y526160D01*
X789215Y526082D01*
X789155Y526003D01*
X789098Y525921D01*
X789044Y525837D01*
X788994Y525751D01*
X788947Y525663D01*
X788903Y525573D01*
X788863Y525482D01*
X788827Y525389D01*
X788794Y525295D01*
X788765Y525199D01*
X788740Y525103D01*
X788719Y525006D01*
X788701Y524907D01*
X788688Y524809D01*
X788678Y524709D01*
X788672Y524610D01*
X788670Y524510D01*
X788670Y466090D02*
X788672Y465990D01*
X788678Y465891D01*
X788688Y465791D01*
X788701Y465693D01*
X788719Y465594D01*
X788740Y465497D01*
X788765Y465401D01*
X788794Y465305D01*
X788827Y465211D01*
X788863Y465118D01*
X788903Y465027D01*
X788947Y464937D01*
X788994Y464849D01*
X789044Y464763D01*
X789098Y464679D01*
X789155Y464597D01*
X789215Y464518D01*
X789279Y464440D01*
X789345Y464366D01*
X789414Y464294D01*
X789486Y464225D01*
X789560Y464159D01*
X789638Y464095D01*
X789717Y464035D01*
X789799Y463978D01*
X789883Y463924D01*
X789969Y463874D01*
X790057Y463827D01*
X790147Y463783D01*
X790238Y463743D01*
X790331Y463707D01*
X790425Y463674D01*
X790521Y463645D01*
X790617Y463620D01*
X790714Y463599D01*
X790813Y463581D01*
X790911Y463568D01*
X791011Y463558D01*
X791110Y463552D01*
X791210Y463550D01*
X808990Y463550D02*
X809090Y463552D01*
X809189Y463558D01*
X809289Y463568D01*
X809387Y463581D01*
X809486Y463599D01*
X809583Y463620D01*
X809679Y463645D01*
X809775Y463674D01*
X809869Y463707D01*
X809962Y463743D01*
X810053Y463783D01*
X810143Y463827D01*
X810231Y463874D01*
X810317Y463924D01*
X810401Y463978D01*
X810483Y464035D01*
X810562Y464095D01*
X810640Y464159D01*
X810714Y464225D01*
X810786Y464294D01*
X810855Y464366D01*
X810921Y464440D01*
X810985Y464518D01*
X811045Y464597D01*
X811102Y464679D01*
X811156Y464763D01*
X811206Y464849D01*
X811253Y464937D01*
X811297Y465027D01*
X811337Y465118D01*
X811373Y465211D01*
X811406Y465305D01*
X811435Y465401D01*
X811460Y465497D01*
X811481Y465594D01*
X811499Y465693D01*
X811512Y465791D01*
X811522Y465891D01*
X811528Y465990D01*
X811530Y466090D01*
X808990Y527050D02*
X791210Y527050D01*
X811530Y524510D02*
X811530Y520700D01*
X810260Y519430D01*
X788670Y520700D02*
X788670Y524510D01*
X788670Y520700D02*
X789940Y519430D01*
X810260Y471170D02*
X811530Y469900D01*
X810260Y471170D02*
X810260Y519430D01*
X789940Y471170D02*
X788670Y469900D01*
X789940Y471170D02*
X789940Y519430D01*
X811530Y469900D02*
X811530Y466090D01*
X788670Y466090D02*
X788670Y469900D01*
X791210Y463550D02*
X808990Y463550D01*
D11*
X815975Y507448D02*
X827405Y507448D01*
X815975Y507448D02*
X815975Y510623D01*
X815977Y510734D01*
X815983Y510844D01*
X815992Y510955D01*
X816006Y511065D01*
X816023Y511174D01*
X816044Y511283D01*
X816069Y511391D01*
X816098Y511498D01*
X816130Y511604D01*
X816166Y511709D01*
X816206Y511812D01*
X816249Y511914D01*
X816296Y512015D01*
X816347Y512114D01*
X816400Y512211D01*
X816457Y512305D01*
X816518Y512398D01*
X816581Y512489D01*
X816648Y512578D01*
X816718Y512664D01*
X816791Y512747D01*
X816866Y512829D01*
X816944Y512907D01*
X817026Y512982D01*
X817109Y513055D01*
X817195Y513125D01*
X817284Y513192D01*
X817375Y513255D01*
X817468Y513316D01*
X817563Y513373D01*
X817659Y513426D01*
X817758Y513477D01*
X817859Y513524D01*
X817961Y513567D01*
X818064Y513607D01*
X818169Y513643D01*
X818275Y513675D01*
X818382Y513704D01*
X818490Y513729D01*
X818599Y513750D01*
X818708Y513767D01*
X818818Y513781D01*
X818929Y513790D01*
X819039Y513796D01*
X819150Y513798D01*
X819261Y513796D01*
X819371Y513790D01*
X819482Y513781D01*
X819592Y513767D01*
X819701Y513750D01*
X819810Y513729D01*
X819918Y513704D01*
X820025Y513675D01*
X820131Y513643D01*
X820236Y513607D01*
X820339Y513567D01*
X820441Y513524D01*
X820542Y513477D01*
X820641Y513426D01*
X820738Y513373D01*
X820832Y513316D01*
X820925Y513255D01*
X821016Y513192D01*
X821105Y513125D01*
X821191Y513055D01*
X821274Y512982D01*
X821356Y512907D01*
X821434Y512829D01*
X821509Y512747D01*
X821582Y512664D01*
X821652Y512578D01*
X821719Y512489D01*
X821782Y512398D01*
X821843Y512305D01*
X821900Y512211D01*
X821953Y512114D01*
X822004Y512015D01*
X822051Y511914D01*
X822094Y511812D01*
X822134Y511709D01*
X822170Y511604D01*
X822202Y511498D01*
X822231Y511391D01*
X822256Y511283D01*
X822277Y511174D01*
X822294Y511065D01*
X822308Y510955D01*
X822317Y510844D01*
X822323Y510734D01*
X822325Y510623D01*
X822325Y507448D01*
X822325Y511258D02*
X827405Y513798D01*
X824865Y518795D02*
X815975Y521335D01*
X824865Y518795D02*
X824865Y525145D01*
X822325Y523240D02*
X827405Y523240D01*
D13*
X800100Y459232D03*
X800100Y531368D03*
D10*
X577690Y219230D02*
X577590Y219228D01*
X577491Y219222D01*
X577391Y219212D01*
X577293Y219199D01*
X577194Y219181D01*
X577097Y219160D01*
X577001Y219135D01*
X576905Y219106D01*
X576811Y219073D01*
X576718Y219037D01*
X576627Y218997D01*
X576537Y218953D01*
X576449Y218906D01*
X576363Y218856D01*
X576279Y218802D01*
X576197Y218745D01*
X576118Y218685D01*
X576040Y218621D01*
X575966Y218555D01*
X575894Y218486D01*
X575825Y218414D01*
X575759Y218340D01*
X575695Y218262D01*
X575635Y218183D01*
X575578Y218101D01*
X575524Y218017D01*
X575474Y217931D01*
X575427Y217843D01*
X575383Y217753D01*
X575343Y217662D01*
X575307Y217569D01*
X575274Y217475D01*
X575245Y217379D01*
X575220Y217283D01*
X575199Y217186D01*
X575181Y217087D01*
X575168Y216989D01*
X575158Y216889D01*
X575152Y216790D01*
X575150Y216690D01*
X575150Y198910D02*
X575152Y198810D01*
X575158Y198711D01*
X575168Y198611D01*
X575181Y198513D01*
X575199Y198414D01*
X575220Y198317D01*
X575245Y198221D01*
X575274Y198125D01*
X575307Y198031D01*
X575343Y197938D01*
X575383Y197847D01*
X575427Y197757D01*
X575474Y197669D01*
X575524Y197583D01*
X575578Y197499D01*
X575635Y197417D01*
X575695Y197338D01*
X575759Y197260D01*
X575825Y197186D01*
X575894Y197114D01*
X575966Y197045D01*
X576040Y196979D01*
X576118Y196915D01*
X576197Y196855D01*
X576279Y196798D01*
X576363Y196744D01*
X576449Y196694D01*
X576537Y196647D01*
X576627Y196603D01*
X576718Y196563D01*
X576811Y196527D01*
X576905Y196494D01*
X577001Y196465D01*
X577097Y196440D01*
X577194Y196419D01*
X577293Y196401D01*
X577391Y196388D01*
X577491Y196378D01*
X577590Y196372D01*
X577690Y196370D01*
X636110Y196370D02*
X636210Y196372D01*
X636309Y196378D01*
X636409Y196388D01*
X636507Y196401D01*
X636606Y196419D01*
X636703Y196440D01*
X636799Y196465D01*
X636895Y196494D01*
X636989Y196527D01*
X637082Y196563D01*
X637173Y196603D01*
X637263Y196647D01*
X637351Y196694D01*
X637437Y196744D01*
X637521Y196798D01*
X637603Y196855D01*
X637682Y196915D01*
X637760Y196979D01*
X637834Y197045D01*
X637906Y197114D01*
X637975Y197186D01*
X638041Y197260D01*
X638105Y197338D01*
X638165Y197417D01*
X638222Y197499D01*
X638276Y197583D01*
X638326Y197669D01*
X638373Y197757D01*
X638417Y197847D01*
X638457Y197938D01*
X638493Y198031D01*
X638526Y198125D01*
X638555Y198221D01*
X638580Y198317D01*
X638601Y198414D01*
X638619Y198513D01*
X638632Y198611D01*
X638642Y198711D01*
X638648Y198810D01*
X638650Y198910D01*
X638650Y216690D02*
X638648Y216790D01*
X638642Y216889D01*
X638632Y216989D01*
X638619Y217087D01*
X638601Y217186D01*
X638580Y217283D01*
X638555Y217379D01*
X638526Y217475D01*
X638493Y217569D01*
X638457Y217662D01*
X638417Y217753D01*
X638373Y217843D01*
X638326Y217931D01*
X638276Y218017D01*
X638222Y218101D01*
X638165Y218183D01*
X638105Y218262D01*
X638041Y218340D01*
X637975Y218414D01*
X637906Y218486D01*
X637834Y218555D01*
X637760Y218621D01*
X637682Y218685D01*
X637603Y218745D01*
X637521Y218802D01*
X637437Y218856D01*
X637351Y218906D01*
X637263Y218953D01*
X637173Y218997D01*
X637082Y219037D01*
X636989Y219073D01*
X636895Y219106D01*
X636799Y219135D01*
X636703Y219160D01*
X636606Y219181D01*
X636507Y219199D01*
X636409Y219212D01*
X636309Y219222D01*
X636210Y219228D01*
X636110Y219230D01*
X575150Y216690D02*
X575150Y198910D01*
X577690Y219230D02*
X581500Y219230D01*
X582770Y217960D01*
X581500Y196370D02*
X577690Y196370D01*
X581500Y196370D02*
X582770Y197640D01*
X631030Y217960D02*
X632300Y219230D01*
X631030Y217960D02*
X582770Y217960D01*
X631030Y197640D02*
X632300Y196370D01*
X631030Y197640D02*
X582770Y197640D01*
X632300Y219230D02*
X636110Y219230D01*
X636110Y196370D02*
X632300Y196370D01*
X638650Y198910D02*
X638650Y216690D01*
D11*
X577055Y223675D02*
X577055Y235105D01*
X580230Y235105D01*
X580341Y235103D01*
X580451Y235097D01*
X580562Y235088D01*
X580672Y235074D01*
X580781Y235057D01*
X580890Y235036D01*
X580998Y235011D01*
X581105Y234982D01*
X581211Y234950D01*
X581316Y234914D01*
X581419Y234874D01*
X581521Y234831D01*
X581622Y234784D01*
X581721Y234733D01*
X581818Y234680D01*
X581912Y234623D01*
X582005Y234562D01*
X582096Y234499D01*
X582185Y234432D01*
X582271Y234362D01*
X582354Y234289D01*
X582436Y234214D01*
X582514Y234136D01*
X582589Y234054D01*
X582662Y233971D01*
X582732Y233885D01*
X582799Y233796D01*
X582862Y233705D01*
X582923Y233612D01*
X582980Y233517D01*
X583033Y233421D01*
X583084Y233322D01*
X583131Y233221D01*
X583174Y233119D01*
X583214Y233016D01*
X583250Y232911D01*
X583282Y232805D01*
X583311Y232698D01*
X583336Y232590D01*
X583357Y232481D01*
X583374Y232372D01*
X583388Y232262D01*
X583397Y232151D01*
X583403Y232041D01*
X583405Y231930D01*
X583403Y231819D01*
X583397Y231709D01*
X583388Y231598D01*
X583374Y231488D01*
X583357Y231379D01*
X583336Y231270D01*
X583311Y231162D01*
X583282Y231055D01*
X583250Y230949D01*
X583214Y230844D01*
X583174Y230741D01*
X583131Y230639D01*
X583084Y230538D01*
X583033Y230439D01*
X582980Y230342D01*
X582923Y230248D01*
X582862Y230155D01*
X582799Y230064D01*
X582732Y229975D01*
X582662Y229889D01*
X582589Y229806D01*
X582514Y229724D01*
X582436Y229646D01*
X582354Y229571D01*
X582271Y229498D01*
X582185Y229428D01*
X582096Y229361D01*
X582005Y229298D01*
X581912Y229237D01*
X581818Y229180D01*
X581721Y229127D01*
X581622Y229076D01*
X581521Y229029D01*
X581419Y228986D01*
X581316Y228946D01*
X581211Y228910D01*
X581105Y228878D01*
X580998Y228849D01*
X580890Y228824D01*
X580781Y228803D01*
X580672Y228786D01*
X580562Y228772D01*
X580451Y228763D01*
X580341Y228757D01*
X580230Y228755D01*
X577055Y228755D01*
X580865Y228755D02*
X583405Y223675D01*
X588402Y223675D02*
X592212Y223675D01*
X592312Y223677D01*
X592411Y223683D01*
X592511Y223693D01*
X592609Y223706D01*
X592708Y223724D01*
X592805Y223745D01*
X592901Y223770D01*
X592997Y223799D01*
X593091Y223832D01*
X593184Y223868D01*
X593275Y223908D01*
X593365Y223952D01*
X593453Y223999D01*
X593539Y224049D01*
X593623Y224103D01*
X593705Y224160D01*
X593784Y224220D01*
X593862Y224284D01*
X593936Y224350D01*
X594008Y224419D01*
X594077Y224491D01*
X594143Y224565D01*
X594207Y224643D01*
X594267Y224722D01*
X594324Y224804D01*
X594378Y224888D01*
X594428Y224974D01*
X594475Y225062D01*
X594519Y225152D01*
X594559Y225243D01*
X594595Y225336D01*
X594628Y225430D01*
X594657Y225526D01*
X594682Y225622D01*
X594703Y225719D01*
X594721Y225818D01*
X594734Y225916D01*
X594744Y226016D01*
X594750Y226115D01*
X594752Y226215D01*
X594752Y227485D01*
X594750Y227585D01*
X594744Y227684D01*
X594734Y227784D01*
X594721Y227882D01*
X594703Y227981D01*
X594682Y228078D01*
X594657Y228174D01*
X594628Y228270D01*
X594595Y228364D01*
X594559Y228457D01*
X594519Y228548D01*
X594475Y228638D01*
X594428Y228726D01*
X594378Y228812D01*
X594324Y228896D01*
X594267Y228978D01*
X594207Y229057D01*
X594143Y229135D01*
X594077Y229209D01*
X594008Y229281D01*
X593936Y229350D01*
X593862Y229416D01*
X593784Y229480D01*
X593705Y229540D01*
X593623Y229597D01*
X593539Y229651D01*
X593453Y229701D01*
X593365Y229748D01*
X593275Y229792D01*
X593184Y229832D01*
X593091Y229868D01*
X592997Y229901D01*
X592901Y229930D01*
X592805Y229955D01*
X592708Y229976D01*
X592609Y229994D01*
X592511Y230007D01*
X592411Y230017D01*
X592312Y230023D01*
X592212Y230025D01*
X588402Y230025D01*
X588402Y235105D01*
X594752Y235105D01*
D12*
X642968Y207800D03*
X570832Y207800D03*
D10*
X577690Y178430D02*
X577590Y178428D01*
X577491Y178422D01*
X577391Y178412D01*
X577293Y178399D01*
X577194Y178381D01*
X577097Y178360D01*
X577001Y178335D01*
X576905Y178306D01*
X576811Y178273D01*
X576718Y178237D01*
X576627Y178197D01*
X576537Y178153D01*
X576449Y178106D01*
X576363Y178056D01*
X576279Y178002D01*
X576197Y177945D01*
X576118Y177885D01*
X576040Y177821D01*
X575966Y177755D01*
X575894Y177686D01*
X575825Y177614D01*
X575759Y177540D01*
X575695Y177462D01*
X575635Y177383D01*
X575578Y177301D01*
X575524Y177217D01*
X575474Y177131D01*
X575427Y177043D01*
X575383Y176953D01*
X575343Y176862D01*
X575307Y176769D01*
X575274Y176675D01*
X575245Y176579D01*
X575220Y176483D01*
X575199Y176386D01*
X575181Y176287D01*
X575168Y176189D01*
X575158Y176089D01*
X575152Y175990D01*
X575150Y175890D01*
X575150Y158110D02*
X575152Y158010D01*
X575158Y157911D01*
X575168Y157811D01*
X575181Y157713D01*
X575199Y157614D01*
X575220Y157517D01*
X575245Y157421D01*
X575274Y157325D01*
X575307Y157231D01*
X575343Y157138D01*
X575383Y157047D01*
X575427Y156957D01*
X575474Y156869D01*
X575524Y156783D01*
X575578Y156699D01*
X575635Y156617D01*
X575695Y156538D01*
X575759Y156460D01*
X575825Y156386D01*
X575894Y156314D01*
X575966Y156245D01*
X576040Y156179D01*
X576118Y156115D01*
X576197Y156055D01*
X576279Y155998D01*
X576363Y155944D01*
X576449Y155894D01*
X576537Y155847D01*
X576627Y155803D01*
X576718Y155763D01*
X576811Y155727D01*
X576905Y155694D01*
X577001Y155665D01*
X577097Y155640D01*
X577194Y155619D01*
X577293Y155601D01*
X577391Y155588D01*
X577491Y155578D01*
X577590Y155572D01*
X577690Y155570D01*
X636110Y155570D02*
X636210Y155572D01*
X636309Y155578D01*
X636409Y155588D01*
X636507Y155601D01*
X636606Y155619D01*
X636703Y155640D01*
X636799Y155665D01*
X636895Y155694D01*
X636989Y155727D01*
X637082Y155763D01*
X637173Y155803D01*
X637263Y155847D01*
X637351Y155894D01*
X637437Y155944D01*
X637521Y155998D01*
X637603Y156055D01*
X637682Y156115D01*
X637760Y156179D01*
X637834Y156245D01*
X637906Y156314D01*
X637975Y156386D01*
X638041Y156460D01*
X638105Y156538D01*
X638165Y156617D01*
X638222Y156699D01*
X638276Y156783D01*
X638326Y156869D01*
X638373Y156957D01*
X638417Y157047D01*
X638457Y157138D01*
X638493Y157231D01*
X638526Y157325D01*
X638555Y157421D01*
X638580Y157517D01*
X638601Y157614D01*
X638619Y157713D01*
X638632Y157811D01*
X638642Y157911D01*
X638648Y158010D01*
X638650Y158110D01*
X638650Y175890D02*
X638648Y175990D01*
X638642Y176089D01*
X638632Y176189D01*
X638619Y176287D01*
X638601Y176386D01*
X638580Y176483D01*
X638555Y176579D01*
X638526Y176675D01*
X638493Y176769D01*
X638457Y176862D01*
X638417Y176953D01*
X638373Y177043D01*
X638326Y177131D01*
X638276Y177217D01*
X638222Y177301D01*
X638165Y177383D01*
X638105Y177462D01*
X638041Y177540D01*
X637975Y177614D01*
X637906Y177686D01*
X637834Y177755D01*
X637760Y177821D01*
X637682Y177885D01*
X637603Y177945D01*
X637521Y178002D01*
X637437Y178056D01*
X637351Y178106D01*
X637263Y178153D01*
X637173Y178197D01*
X637082Y178237D01*
X636989Y178273D01*
X636895Y178306D01*
X636799Y178335D01*
X636703Y178360D01*
X636606Y178381D01*
X636507Y178399D01*
X636409Y178412D01*
X636309Y178422D01*
X636210Y178428D01*
X636110Y178430D01*
X575150Y175890D02*
X575150Y158110D01*
X577690Y178430D02*
X581500Y178430D01*
X582770Y177160D01*
X581500Y155570D02*
X577690Y155570D01*
X581500Y155570D02*
X582770Y156840D01*
X631030Y177160D02*
X632300Y178430D01*
X631030Y177160D02*
X582770Y177160D01*
X631030Y156840D02*
X632300Y155570D01*
X631030Y156840D02*
X582770Y156840D01*
X632300Y178430D02*
X636110Y178430D01*
X636110Y155570D02*
X632300Y155570D01*
X638650Y158110D02*
X638650Y175890D01*
D11*
X577055Y182875D02*
X577055Y194305D01*
X580230Y194305D01*
X580341Y194303D01*
X580451Y194297D01*
X580562Y194288D01*
X580672Y194274D01*
X580781Y194257D01*
X580890Y194236D01*
X580998Y194211D01*
X581105Y194182D01*
X581211Y194150D01*
X581316Y194114D01*
X581419Y194074D01*
X581521Y194031D01*
X581622Y193984D01*
X581721Y193933D01*
X581818Y193880D01*
X581912Y193823D01*
X582005Y193762D01*
X582096Y193699D01*
X582185Y193632D01*
X582271Y193562D01*
X582354Y193489D01*
X582436Y193414D01*
X582514Y193336D01*
X582589Y193254D01*
X582662Y193171D01*
X582732Y193085D01*
X582799Y192996D01*
X582862Y192905D01*
X582923Y192812D01*
X582980Y192717D01*
X583033Y192621D01*
X583084Y192522D01*
X583131Y192421D01*
X583174Y192319D01*
X583214Y192216D01*
X583250Y192111D01*
X583282Y192005D01*
X583311Y191898D01*
X583336Y191790D01*
X583357Y191681D01*
X583374Y191572D01*
X583388Y191462D01*
X583397Y191351D01*
X583403Y191241D01*
X583405Y191130D01*
X583403Y191019D01*
X583397Y190909D01*
X583388Y190798D01*
X583374Y190688D01*
X583357Y190579D01*
X583336Y190470D01*
X583311Y190362D01*
X583282Y190255D01*
X583250Y190149D01*
X583214Y190044D01*
X583174Y189941D01*
X583131Y189839D01*
X583084Y189738D01*
X583033Y189639D01*
X582980Y189542D01*
X582923Y189448D01*
X582862Y189355D01*
X582799Y189264D01*
X582732Y189175D01*
X582662Y189089D01*
X582589Y189006D01*
X582514Y188924D01*
X582436Y188846D01*
X582354Y188771D01*
X582271Y188698D01*
X582185Y188628D01*
X582096Y188561D01*
X582005Y188498D01*
X581912Y188437D01*
X581818Y188380D01*
X581721Y188327D01*
X581622Y188276D01*
X581521Y188229D01*
X581419Y188186D01*
X581316Y188146D01*
X581211Y188110D01*
X581105Y188078D01*
X580998Y188049D01*
X580890Y188024D01*
X580781Y188003D01*
X580672Y187986D01*
X580562Y187972D01*
X580451Y187963D01*
X580341Y187957D01*
X580230Y187955D01*
X577055Y187955D01*
X580865Y187955D02*
X583405Y182875D01*
X588402Y189225D02*
X592212Y189225D01*
X592312Y189223D01*
X592411Y189217D01*
X592511Y189207D01*
X592609Y189194D01*
X592708Y189176D01*
X592805Y189155D01*
X592901Y189130D01*
X592997Y189101D01*
X593091Y189068D01*
X593184Y189032D01*
X593275Y188992D01*
X593365Y188948D01*
X593453Y188901D01*
X593539Y188851D01*
X593623Y188797D01*
X593705Y188740D01*
X593784Y188680D01*
X593862Y188616D01*
X593936Y188550D01*
X594008Y188481D01*
X594077Y188409D01*
X594143Y188335D01*
X594207Y188257D01*
X594267Y188178D01*
X594324Y188096D01*
X594378Y188012D01*
X594428Y187926D01*
X594475Y187838D01*
X594519Y187748D01*
X594559Y187657D01*
X594595Y187564D01*
X594628Y187470D01*
X594657Y187374D01*
X594682Y187278D01*
X594703Y187181D01*
X594721Y187082D01*
X594734Y186984D01*
X594744Y186884D01*
X594750Y186785D01*
X594752Y186685D01*
X594752Y186050D01*
X594750Y185939D01*
X594744Y185829D01*
X594735Y185718D01*
X594721Y185608D01*
X594704Y185499D01*
X594683Y185390D01*
X594658Y185282D01*
X594629Y185175D01*
X594597Y185069D01*
X594561Y184964D01*
X594521Y184861D01*
X594478Y184759D01*
X594431Y184658D01*
X594380Y184559D01*
X594327Y184462D01*
X594270Y184368D01*
X594209Y184275D01*
X594146Y184184D01*
X594079Y184095D01*
X594009Y184009D01*
X593936Y183926D01*
X593861Y183844D01*
X593783Y183766D01*
X593701Y183691D01*
X593618Y183618D01*
X593532Y183548D01*
X593443Y183481D01*
X593352Y183418D01*
X593259Y183357D01*
X593165Y183300D01*
X593068Y183247D01*
X592969Y183196D01*
X592868Y183149D01*
X592766Y183106D01*
X592663Y183066D01*
X592558Y183030D01*
X592452Y182998D01*
X592345Y182969D01*
X592237Y182944D01*
X592128Y182923D01*
X592019Y182906D01*
X591909Y182892D01*
X591798Y182883D01*
X591688Y182877D01*
X591577Y182875D01*
X591466Y182877D01*
X591356Y182883D01*
X591245Y182892D01*
X591135Y182906D01*
X591026Y182923D01*
X590917Y182944D01*
X590809Y182969D01*
X590702Y182998D01*
X590596Y183030D01*
X590491Y183066D01*
X590388Y183106D01*
X590286Y183149D01*
X590185Y183196D01*
X590086Y183247D01*
X589990Y183300D01*
X589895Y183357D01*
X589802Y183418D01*
X589711Y183481D01*
X589622Y183548D01*
X589536Y183618D01*
X589453Y183691D01*
X589371Y183766D01*
X589293Y183844D01*
X589218Y183926D01*
X589145Y184009D01*
X589075Y184095D01*
X589008Y184184D01*
X588945Y184275D01*
X588884Y184368D01*
X588827Y184463D01*
X588774Y184559D01*
X588723Y184658D01*
X588676Y184759D01*
X588633Y184861D01*
X588593Y184964D01*
X588557Y185069D01*
X588525Y185175D01*
X588496Y185282D01*
X588471Y185390D01*
X588450Y185499D01*
X588433Y185608D01*
X588419Y185718D01*
X588410Y185829D01*
X588404Y185939D01*
X588402Y186050D01*
X588402Y189225D01*
X588404Y189365D01*
X588410Y189505D01*
X588419Y189645D01*
X588433Y189784D01*
X588450Y189923D01*
X588471Y190061D01*
X588496Y190199D01*
X588525Y190336D01*
X588557Y190472D01*
X588594Y190607D01*
X588634Y190741D01*
X588677Y190874D01*
X588725Y191006D01*
X588775Y191137D01*
X588830Y191266D01*
X588888Y191393D01*
X588949Y191519D01*
X589014Y191643D01*
X589083Y191765D01*
X589154Y191885D01*
X589229Y192003D01*
X589307Y192120D01*
X589389Y192234D01*
X589473Y192345D01*
X589561Y192454D01*
X589651Y192561D01*
X589745Y192666D01*
X589841Y192767D01*
X589940Y192866D01*
X590041Y192962D01*
X590146Y193056D01*
X590253Y193146D01*
X590362Y193234D01*
X590473Y193318D01*
X590587Y193400D01*
X590704Y193478D01*
X590822Y193553D01*
X590942Y193624D01*
X591064Y193693D01*
X591188Y193758D01*
X591314Y193819D01*
X591441Y193877D01*
X591570Y193932D01*
X591701Y193982D01*
X591833Y194030D01*
X591966Y194073D01*
X592100Y194113D01*
X592235Y194150D01*
X592371Y194182D01*
X592508Y194211D01*
X592646Y194236D01*
X592784Y194257D01*
X592923Y194274D01*
X593062Y194288D01*
X593202Y194297D01*
X593342Y194303D01*
X593482Y194305D01*
D12*
X642968Y167000D03*
X570832Y167000D03*
D10*
X742950Y186690D02*
X742952Y186790D01*
X742958Y186889D01*
X742968Y186989D01*
X742981Y187087D01*
X742999Y187186D01*
X743020Y187283D01*
X743045Y187379D01*
X743074Y187475D01*
X743107Y187569D01*
X743143Y187662D01*
X743183Y187753D01*
X743227Y187843D01*
X743274Y187931D01*
X743324Y188017D01*
X743378Y188101D01*
X743435Y188183D01*
X743495Y188262D01*
X743559Y188340D01*
X743625Y188414D01*
X743694Y188486D01*
X743766Y188555D01*
X743840Y188621D01*
X743918Y188685D01*
X743997Y188745D01*
X744079Y188802D01*
X744163Y188856D01*
X744249Y188906D01*
X744337Y188953D01*
X744427Y188997D01*
X744518Y189037D01*
X744611Y189073D01*
X744705Y189106D01*
X744801Y189135D01*
X744897Y189160D01*
X744994Y189181D01*
X745093Y189199D01*
X745191Y189212D01*
X745291Y189222D01*
X745390Y189228D01*
X745490Y189230D01*
X742950Y168910D02*
X742952Y168810D01*
X742958Y168711D01*
X742968Y168611D01*
X742981Y168513D01*
X742999Y168414D01*
X743020Y168317D01*
X743045Y168221D01*
X743074Y168125D01*
X743107Y168031D01*
X743143Y167938D01*
X743183Y167847D01*
X743227Y167757D01*
X743274Y167669D01*
X743324Y167583D01*
X743378Y167499D01*
X743435Y167417D01*
X743495Y167338D01*
X743559Y167260D01*
X743625Y167186D01*
X743694Y167114D01*
X743766Y167045D01*
X743840Y166979D01*
X743918Y166915D01*
X743997Y166855D01*
X744079Y166798D01*
X744163Y166744D01*
X744249Y166694D01*
X744337Y166647D01*
X744427Y166603D01*
X744518Y166563D01*
X744611Y166527D01*
X744705Y166494D01*
X744801Y166465D01*
X744897Y166440D01*
X744994Y166419D01*
X745093Y166401D01*
X745191Y166388D01*
X745291Y166378D01*
X745390Y166372D01*
X745490Y166370D01*
X803910Y166370D02*
X804010Y166372D01*
X804109Y166378D01*
X804209Y166388D01*
X804307Y166401D01*
X804406Y166419D01*
X804503Y166440D01*
X804599Y166465D01*
X804695Y166494D01*
X804789Y166527D01*
X804882Y166563D01*
X804973Y166603D01*
X805063Y166647D01*
X805151Y166694D01*
X805237Y166744D01*
X805321Y166798D01*
X805403Y166855D01*
X805482Y166915D01*
X805560Y166979D01*
X805634Y167045D01*
X805706Y167114D01*
X805775Y167186D01*
X805841Y167260D01*
X805905Y167338D01*
X805965Y167417D01*
X806022Y167499D01*
X806076Y167583D01*
X806126Y167669D01*
X806173Y167757D01*
X806217Y167847D01*
X806257Y167938D01*
X806293Y168031D01*
X806326Y168125D01*
X806355Y168221D01*
X806380Y168317D01*
X806401Y168414D01*
X806419Y168513D01*
X806432Y168611D01*
X806442Y168711D01*
X806448Y168810D01*
X806450Y168910D01*
X806450Y186690D02*
X806448Y186790D01*
X806442Y186889D01*
X806432Y186989D01*
X806419Y187087D01*
X806401Y187186D01*
X806380Y187283D01*
X806355Y187379D01*
X806326Y187475D01*
X806293Y187569D01*
X806257Y187662D01*
X806217Y187753D01*
X806173Y187843D01*
X806126Y187931D01*
X806076Y188017D01*
X806022Y188101D01*
X805965Y188183D01*
X805905Y188262D01*
X805841Y188340D01*
X805775Y188414D01*
X805706Y188486D01*
X805634Y188555D01*
X805560Y188621D01*
X805482Y188685D01*
X805403Y188745D01*
X805321Y188802D01*
X805237Y188856D01*
X805151Y188906D01*
X805063Y188953D01*
X804973Y188997D01*
X804882Y189037D01*
X804789Y189073D01*
X804695Y189106D01*
X804599Y189135D01*
X804503Y189160D01*
X804406Y189181D01*
X804307Y189199D01*
X804209Y189212D01*
X804109Y189222D01*
X804010Y189228D01*
X803910Y189230D01*
X742950Y186690D02*
X742950Y168910D01*
X745490Y189230D02*
X749300Y189230D01*
X750570Y187960D01*
X749300Y166370D02*
X745490Y166370D01*
X749300Y166370D02*
X750570Y167640D01*
X798830Y187960D02*
X800100Y189230D01*
X798830Y187960D02*
X750570Y187960D01*
X798830Y167640D02*
X800100Y166370D01*
X798830Y167640D02*
X750570Y167640D01*
X800100Y189230D02*
X803910Y189230D01*
X803910Y166370D02*
X800100Y166370D01*
X806450Y168910D02*
X806450Y186690D01*
D11*
X744855Y193675D02*
X744855Y205105D01*
X748030Y205105D01*
X748141Y205103D01*
X748251Y205097D01*
X748362Y205088D01*
X748472Y205074D01*
X748581Y205057D01*
X748690Y205036D01*
X748798Y205011D01*
X748905Y204982D01*
X749011Y204950D01*
X749116Y204914D01*
X749219Y204874D01*
X749321Y204831D01*
X749422Y204784D01*
X749521Y204733D01*
X749618Y204680D01*
X749712Y204623D01*
X749805Y204562D01*
X749896Y204499D01*
X749985Y204432D01*
X750071Y204362D01*
X750154Y204289D01*
X750236Y204214D01*
X750314Y204136D01*
X750389Y204054D01*
X750462Y203971D01*
X750532Y203885D01*
X750599Y203796D01*
X750662Y203705D01*
X750723Y203612D01*
X750780Y203517D01*
X750833Y203421D01*
X750884Y203322D01*
X750931Y203221D01*
X750974Y203119D01*
X751014Y203016D01*
X751050Y202911D01*
X751082Y202805D01*
X751111Y202698D01*
X751136Y202590D01*
X751157Y202481D01*
X751174Y202372D01*
X751188Y202262D01*
X751197Y202151D01*
X751203Y202041D01*
X751205Y201930D01*
X751203Y201819D01*
X751197Y201709D01*
X751188Y201598D01*
X751174Y201488D01*
X751157Y201379D01*
X751136Y201270D01*
X751111Y201162D01*
X751082Y201055D01*
X751050Y200949D01*
X751014Y200844D01*
X750974Y200741D01*
X750931Y200639D01*
X750884Y200538D01*
X750833Y200439D01*
X750780Y200342D01*
X750723Y200248D01*
X750662Y200155D01*
X750599Y200064D01*
X750532Y199975D01*
X750462Y199889D01*
X750389Y199806D01*
X750314Y199724D01*
X750236Y199646D01*
X750154Y199571D01*
X750071Y199498D01*
X749985Y199428D01*
X749896Y199361D01*
X749805Y199298D01*
X749712Y199237D01*
X749618Y199180D01*
X749521Y199127D01*
X749422Y199076D01*
X749321Y199029D01*
X749219Y198986D01*
X749116Y198946D01*
X749011Y198910D01*
X748905Y198878D01*
X748798Y198849D01*
X748690Y198824D01*
X748581Y198803D01*
X748472Y198786D01*
X748362Y198772D01*
X748251Y198763D01*
X748141Y198757D01*
X748030Y198755D01*
X744855Y198755D01*
X748665Y198755D02*
X751205Y193675D01*
X756202Y203835D02*
X756202Y205105D01*
X762552Y205105D01*
X759377Y193675D01*
D12*
X810768Y177800D03*
X738632Y177800D03*
D10*
X745490Y138430D02*
X745390Y138428D01*
X745291Y138422D01*
X745191Y138412D01*
X745093Y138399D01*
X744994Y138381D01*
X744897Y138360D01*
X744801Y138335D01*
X744705Y138306D01*
X744611Y138273D01*
X744518Y138237D01*
X744427Y138197D01*
X744337Y138153D01*
X744249Y138106D01*
X744163Y138056D01*
X744079Y138002D01*
X743997Y137945D01*
X743918Y137885D01*
X743840Y137821D01*
X743766Y137755D01*
X743694Y137686D01*
X743625Y137614D01*
X743559Y137540D01*
X743495Y137462D01*
X743435Y137383D01*
X743378Y137301D01*
X743324Y137217D01*
X743274Y137131D01*
X743227Y137043D01*
X743183Y136953D01*
X743143Y136862D01*
X743107Y136769D01*
X743074Y136675D01*
X743045Y136579D01*
X743020Y136483D01*
X742999Y136386D01*
X742981Y136287D01*
X742968Y136189D01*
X742958Y136089D01*
X742952Y135990D01*
X742950Y135890D01*
X742950Y118110D02*
X742952Y118010D01*
X742958Y117911D01*
X742968Y117811D01*
X742981Y117713D01*
X742999Y117614D01*
X743020Y117517D01*
X743045Y117421D01*
X743074Y117325D01*
X743107Y117231D01*
X743143Y117138D01*
X743183Y117047D01*
X743227Y116957D01*
X743274Y116869D01*
X743324Y116783D01*
X743378Y116699D01*
X743435Y116617D01*
X743495Y116538D01*
X743559Y116460D01*
X743625Y116386D01*
X743694Y116314D01*
X743766Y116245D01*
X743840Y116179D01*
X743918Y116115D01*
X743997Y116055D01*
X744079Y115998D01*
X744163Y115944D01*
X744249Y115894D01*
X744337Y115847D01*
X744427Y115803D01*
X744518Y115763D01*
X744611Y115727D01*
X744705Y115694D01*
X744801Y115665D01*
X744897Y115640D01*
X744994Y115619D01*
X745093Y115601D01*
X745191Y115588D01*
X745291Y115578D01*
X745390Y115572D01*
X745490Y115570D01*
X803910Y115570D02*
X804010Y115572D01*
X804109Y115578D01*
X804209Y115588D01*
X804307Y115601D01*
X804406Y115619D01*
X804503Y115640D01*
X804599Y115665D01*
X804695Y115694D01*
X804789Y115727D01*
X804882Y115763D01*
X804973Y115803D01*
X805063Y115847D01*
X805151Y115894D01*
X805237Y115944D01*
X805321Y115998D01*
X805403Y116055D01*
X805482Y116115D01*
X805560Y116179D01*
X805634Y116245D01*
X805706Y116314D01*
X805775Y116386D01*
X805841Y116460D01*
X805905Y116538D01*
X805965Y116617D01*
X806022Y116699D01*
X806076Y116783D01*
X806126Y116869D01*
X806173Y116957D01*
X806217Y117047D01*
X806257Y117138D01*
X806293Y117231D01*
X806326Y117325D01*
X806355Y117421D01*
X806380Y117517D01*
X806401Y117614D01*
X806419Y117713D01*
X806432Y117811D01*
X806442Y117911D01*
X806448Y118010D01*
X806450Y118110D01*
X806450Y135890D02*
X806448Y135990D01*
X806442Y136089D01*
X806432Y136189D01*
X806419Y136287D01*
X806401Y136386D01*
X806380Y136483D01*
X806355Y136579D01*
X806326Y136675D01*
X806293Y136769D01*
X806257Y136862D01*
X806217Y136953D01*
X806173Y137043D01*
X806126Y137131D01*
X806076Y137217D01*
X806022Y137301D01*
X805965Y137383D01*
X805905Y137462D01*
X805841Y137540D01*
X805775Y137614D01*
X805706Y137686D01*
X805634Y137755D01*
X805560Y137821D01*
X805482Y137885D01*
X805403Y137945D01*
X805321Y138002D01*
X805237Y138056D01*
X805151Y138106D01*
X805063Y138153D01*
X804973Y138197D01*
X804882Y138237D01*
X804789Y138273D01*
X804695Y138306D01*
X804599Y138335D01*
X804503Y138360D01*
X804406Y138381D01*
X804307Y138399D01*
X804209Y138412D01*
X804109Y138422D01*
X804010Y138428D01*
X803910Y138430D01*
X742950Y135890D02*
X742950Y118110D01*
X745490Y138430D02*
X749300Y138430D01*
X750570Y137160D01*
X749300Y115570D02*
X745490Y115570D01*
X749300Y115570D02*
X750570Y116840D01*
X798830Y137160D02*
X800100Y138430D01*
X798830Y137160D02*
X750570Y137160D01*
X798830Y116840D02*
X800100Y115570D01*
X798830Y116840D02*
X750570Y116840D01*
X800100Y138430D02*
X803910Y138430D01*
X803910Y115570D02*
X800100Y115570D01*
X806450Y118110D02*
X806450Y135890D01*
D11*
X744855Y142875D02*
X744855Y154305D01*
X748030Y154305D01*
X748141Y154303D01*
X748251Y154297D01*
X748362Y154288D01*
X748472Y154274D01*
X748581Y154257D01*
X748690Y154236D01*
X748798Y154211D01*
X748905Y154182D01*
X749011Y154150D01*
X749116Y154114D01*
X749219Y154074D01*
X749321Y154031D01*
X749422Y153984D01*
X749521Y153933D01*
X749618Y153880D01*
X749712Y153823D01*
X749805Y153762D01*
X749896Y153699D01*
X749985Y153632D01*
X750071Y153562D01*
X750154Y153489D01*
X750236Y153414D01*
X750314Y153336D01*
X750389Y153254D01*
X750462Y153171D01*
X750532Y153085D01*
X750599Y152996D01*
X750662Y152905D01*
X750723Y152812D01*
X750780Y152717D01*
X750833Y152621D01*
X750884Y152522D01*
X750931Y152421D01*
X750974Y152319D01*
X751014Y152216D01*
X751050Y152111D01*
X751082Y152005D01*
X751111Y151898D01*
X751136Y151790D01*
X751157Y151681D01*
X751174Y151572D01*
X751188Y151462D01*
X751197Y151351D01*
X751203Y151241D01*
X751205Y151130D01*
X751203Y151019D01*
X751197Y150909D01*
X751188Y150798D01*
X751174Y150688D01*
X751157Y150579D01*
X751136Y150470D01*
X751111Y150362D01*
X751082Y150255D01*
X751050Y150149D01*
X751014Y150044D01*
X750974Y149941D01*
X750931Y149839D01*
X750884Y149738D01*
X750833Y149639D01*
X750780Y149542D01*
X750723Y149448D01*
X750662Y149355D01*
X750599Y149264D01*
X750532Y149175D01*
X750462Y149089D01*
X750389Y149006D01*
X750314Y148924D01*
X750236Y148846D01*
X750154Y148771D01*
X750071Y148698D01*
X749985Y148628D01*
X749896Y148561D01*
X749805Y148498D01*
X749712Y148437D01*
X749618Y148380D01*
X749521Y148327D01*
X749422Y148276D01*
X749321Y148229D01*
X749219Y148186D01*
X749116Y148146D01*
X749011Y148110D01*
X748905Y148078D01*
X748798Y148049D01*
X748690Y148024D01*
X748581Y148003D01*
X748472Y147986D01*
X748362Y147972D01*
X748251Y147963D01*
X748141Y147957D01*
X748030Y147955D01*
X744855Y147955D01*
X748665Y147955D02*
X751205Y142875D01*
X756202Y146050D02*
X756204Y146161D01*
X756210Y146271D01*
X756219Y146382D01*
X756233Y146492D01*
X756250Y146601D01*
X756271Y146710D01*
X756296Y146818D01*
X756325Y146925D01*
X756357Y147031D01*
X756393Y147136D01*
X756433Y147239D01*
X756476Y147341D01*
X756523Y147442D01*
X756574Y147541D01*
X756627Y147638D01*
X756684Y147732D01*
X756745Y147825D01*
X756808Y147916D01*
X756875Y148005D01*
X756945Y148091D01*
X757018Y148174D01*
X757093Y148256D01*
X757171Y148334D01*
X757253Y148409D01*
X757336Y148482D01*
X757422Y148552D01*
X757511Y148619D01*
X757602Y148682D01*
X757695Y148743D01*
X757790Y148800D01*
X757886Y148853D01*
X757985Y148904D01*
X758086Y148951D01*
X758188Y148994D01*
X758291Y149034D01*
X758396Y149070D01*
X758502Y149102D01*
X758609Y149131D01*
X758717Y149156D01*
X758826Y149177D01*
X758935Y149194D01*
X759045Y149208D01*
X759156Y149217D01*
X759266Y149223D01*
X759377Y149225D01*
X759488Y149223D01*
X759598Y149217D01*
X759709Y149208D01*
X759819Y149194D01*
X759928Y149177D01*
X760037Y149156D01*
X760145Y149131D01*
X760252Y149102D01*
X760358Y149070D01*
X760463Y149034D01*
X760566Y148994D01*
X760668Y148951D01*
X760769Y148904D01*
X760868Y148853D01*
X760965Y148800D01*
X761059Y148743D01*
X761152Y148682D01*
X761243Y148619D01*
X761332Y148552D01*
X761418Y148482D01*
X761501Y148409D01*
X761583Y148334D01*
X761661Y148256D01*
X761736Y148174D01*
X761809Y148091D01*
X761879Y148005D01*
X761946Y147916D01*
X762009Y147825D01*
X762070Y147732D01*
X762127Y147638D01*
X762180Y147541D01*
X762231Y147442D01*
X762278Y147341D01*
X762321Y147239D01*
X762361Y147136D01*
X762397Y147031D01*
X762429Y146925D01*
X762458Y146818D01*
X762483Y146710D01*
X762504Y146601D01*
X762521Y146492D01*
X762535Y146382D01*
X762544Y146271D01*
X762550Y146161D01*
X762552Y146050D01*
X762550Y145939D01*
X762544Y145829D01*
X762535Y145718D01*
X762521Y145608D01*
X762504Y145499D01*
X762483Y145390D01*
X762458Y145282D01*
X762429Y145175D01*
X762397Y145069D01*
X762361Y144964D01*
X762321Y144861D01*
X762278Y144759D01*
X762231Y144658D01*
X762180Y144559D01*
X762127Y144462D01*
X762070Y144368D01*
X762009Y144275D01*
X761946Y144184D01*
X761879Y144095D01*
X761809Y144009D01*
X761736Y143926D01*
X761661Y143844D01*
X761583Y143766D01*
X761501Y143691D01*
X761418Y143618D01*
X761332Y143548D01*
X761243Y143481D01*
X761152Y143418D01*
X761059Y143357D01*
X760965Y143300D01*
X760868Y143247D01*
X760769Y143196D01*
X760668Y143149D01*
X760566Y143106D01*
X760463Y143066D01*
X760358Y143030D01*
X760252Y142998D01*
X760145Y142969D01*
X760037Y142944D01*
X759928Y142923D01*
X759819Y142906D01*
X759709Y142892D01*
X759598Y142883D01*
X759488Y142877D01*
X759377Y142875D01*
X759266Y142877D01*
X759156Y142883D01*
X759045Y142892D01*
X758935Y142906D01*
X758826Y142923D01*
X758717Y142944D01*
X758609Y142969D01*
X758502Y142998D01*
X758396Y143030D01*
X758291Y143066D01*
X758188Y143106D01*
X758086Y143149D01*
X757985Y143196D01*
X757886Y143247D01*
X757790Y143300D01*
X757695Y143357D01*
X757602Y143418D01*
X757511Y143481D01*
X757422Y143548D01*
X757336Y143618D01*
X757253Y143691D01*
X757171Y143766D01*
X757093Y143844D01*
X757018Y143926D01*
X756945Y144009D01*
X756875Y144095D01*
X756808Y144184D01*
X756745Y144275D01*
X756684Y144368D01*
X756627Y144463D01*
X756574Y144559D01*
X756523Y144658D01*
X756476Y144759D01*
X756433Y144861D01*
X756393Y144964D01*
X756357Y145069D01*
X756325Y145175D01*
X756296Y145282D01*
X756271Y145390D01*
X756250Y145499D01*
X756233Y145608D01*
X756219Y145718D01*
X756210Y145829D01*
X756204Y145939D01*
X756202Y146050D01*
X756837Y151765D02*
X756839Y151865D01*
X756845Y151964D01*
X756855Y152064D01*
X756868Y152162D01*
X756886Y152261D01*
X756907Y152358D01*
X756932Y152454D01*
X756961Y152550D01*
X756994Y152644D01*
X757030Y152737D01*
X757070Y152828D01*
X757114Y152918D01*
X757161Y153006D01*
X757211Y153092D01*
X757265Y153176D01*
X757322Y153258D01*
X757382Y153337D01*
X757446Y153415D01*
X757512Y153489D01*
X757581Y153561D01*
X757653Y153630D01*
X757727Y153696D01*
X757805Y153760D01*
X757884Y153820D01*
X757966Y153877D01*
X758050Y153931D01*
X758136Y153981D01*
X758224Y154028D01*
X758314Y154072D01*
X758405Y154112D01*
X758498Y154148D01*
X758592Y154181D01*
X758688Y154210D01*
X758784Y154235D01*
X758881Y154256D01*
X758980Y154274D01*
X759078Y154287D01*
X759178Y154297D01*
X759277Y154303D01*
X759377Y154305D01*
X759477Y154303D01*
X759576Y154297D01*
X759676Y154287D01*
X759774Y154274D01*
X759873Y154256D01*
X759970Y154235D01*
X760066Y154210D01*
X760162Y154181D01*
X760256Y154148D01*
X760349Y154112D01*
X760440Y154072D01*
X760530Y154028D01*
X760618Y153981D01*
X760704Y153931D01*
X760788Y153877D01*
X760870Y153820D01*
X760949Y153760D01*
X761027Y153696D01*
X761101Y153630D01*
X761173Y153561D01*
X761242Y153489D01*
X761308Y153415D01*
X761372Y153337D01*
X761432Y153258D01*
X761489Y153176D01*
X761543Y153092D01*
X761593Y153006D01*
X761640Y152918D01*
X761684Y152828D01*
X761724Y152737D01*
X761760Y152644D01*
X761793Y152550D01*
X761822Y152454D01*
X761847Y152358D01*
X761868Y152261D01*
X761886Y152162D01*
X761899Y152064D01*
X761909Y151964D01*
X761915Y151865D01*
X761917Y151765D01*
X761915Y151665D01*
X761909Y151566D01*
X761899Y151466D01*
X761886Y151368D01*
X761868Y151269D01*
X761847Y151172D01*
X761822Y151076D01*
X761793Y150980D01*
X761760Y150886D01*
X761724Y150793D01*
X761684Y150702D01*
X761640Y150612D01*
X761593Y150524D01*
X761543Y150438D01*
X761489Y150354D01*
X761432Y150272D01*
X761372Y150193D01*
X761308Y150115D01*
X761242Y150041D01*
X761173Y149969D01*
X761101Y149900D01*
X761027Y149834D01*
X760949Y149770D01*
X760870Y149710D01*
X760788Y149653D01*
X760704Y149599D01*
X760618Y149549D01*
X760530Y149502D01*
X760440Y149458D01*
X760349Y149418D01*
X760256Y149382D01*
X760162Y149349D01*
X760066Y149320D01*
X759970Y149295D01*
X759873Y149274D01*
X759774Y149256D01*
X759676Y149243D01*
X759576Y149233D01*
X759477Y149227D01*
X759377Y149225D01*
X759277Y149227D01*
X759178Y149233D01*
X759078Y149243D01*
X758980Y149256D01*
X758881Y149274D01*
X758784Y149295D01*
X758688Y149320D01*
X758592Y149349D01*
X758498Y149382D01*
X758405Y149418D01*
X758314Y149458D01*
X758224Y149502D01*
X758136Y149549D01*
X758050Y149599D01*
X757966Y149653D01*
X757884Y149710D01*
X757805Y149770D01*
X757727Y149834D01*
X757653Y149900D01*
X757581Y149969D01*
X757512Y150041D01*
X757446Y150115D01*
X757382Y150193D01*
X757322Y150272D01*
X757265Y150354D01*
X757211Y150438D01*
X757161Y150524D01*
X757114Y150612D01*
X757070Y150702D01*
X757030Y150793D01*
X756994Y150886D01*
X756961Y150980D01*
X756932Y151076D01*
X756907Y151172D01*
X756886Y151269D01*
X756868Y151368D01*
X756855Y151466D01*
X756845Y151566D01*
X756839Y151665D01*
X756837Y151765D01*
D12*
X810768Y127000D03*
X738632Y127000D03*
D10*
X717550Y631190D02*
X717552Y631290D01*
X717558Y631389D01*
X717568Y631489D01*
X717581Y631587D01*
X717599Y631686D01*
X717620Y631783D01*
X717645Y631879D01*
X717674Y631975D01*
X717707Y632069D01*
X717743Y632162D01*
X717783Y632253D01*
X717827Y632343D01*
X717874Y632431D01*
X717924Y632517D01*
X717978Y632601D01*
X718035Y632683D01*
X718095Y632762D01*
X718159Y632840D01*
X718225Y632914D01*
X718294Y632986D01*
X718366Y633055D01*
X718440Y633121D01*
X718518Y633185D01*
X718597Y633245D01*
X718679Y633302D01*
X718763Y633356D01*
X718849Y633406D01*
X718937Y633453D01*
X719027Y633497D01*
X719118Y633537D01*
X719211Y633573D01*
X719305Y633606D01*
X719401Y633635D01*
X719497Y633660D01*
X719594Y633681D01*
X719693Y633699D01*
X719791Y633712D01*
X719891Y633722D01*
X719990Y633728D01*
X720090Y633730D01*
X717550Y613410D02*
X717552Y613310D01*
X717558Y613211D01*
X717568Y613111D01*
X717581Y613013D01*
X717599Y612914D01*
X717620Y612817D01*
X717645Y612721D01*
X717674Y612625D01*
X717707Y612531D01*
X717743Y612438D01*
X717783Y612347D01*
X717827Y612257D01*
X717874Y612169D01*
X717924Y612083D01*
X717978Y611999D01*
X718035Y611917D01*
X718095Y611838D01*
X718159Y611760D01*
X718225Y611686D01*
X718294Y611614D01*
X718366Y611545D01*
X718440Y611479D01*
X718518Y611415D01*
X718597Y611355D01*
X718679Y611298D01*
X718763Y611244D01*
X718849Y611194D01*
X718937Y611147D01*
X719027Y611103D01*
X719118Y611063D01*
X719211Y611027D01*
X719305Y610994D01*
X719401Y610965D01*
X719497Y610940D01*
X719594Y610919D01*
X719693Y610901D01*
X719791Y610888D01*
X719891Y610878D01*
X719990Y610872D01*
X720090Y610870D01*
X778510Y610870D02*
X778610Y610872D01*
X778709Y610878D01*
X778809Y610888D01*
X778907Y610901D01*
X779006Y610919D01*
X779103Y610940D01*
X779199Y610965D01*
X779295Y610994D01*
X779389Y611027D01*
X779482Y611063D01*
X779573Y611103D01*
X779663Y611147D01*
X779751Y611194D01*
X779837Y611244D01*
X779921Y611298D01*
X780003Y611355D01*
X780082Y611415D01*
X780160Y611479D01*
X780234Y611545D01*
X780306Y611614D01*
X780375Y611686D01*
X780441Y611760D01*
X780505Y611838D01*
X780565Y611917D01*
X780622Y611999D01*
X780676Y612083D01*
X780726Y612169D01*
X780773Y612257D01*
X780817Y612347D01*
X780857Y612438D01*
X780893Y612531D01*
X780926Y612625D01*
X780955Y612721D01*
X780980Y612817D01*
X781001Y612914D01*
X781019Y613013D01*
X781032Y613111D01*
X781042Y613211D01*
X781048Y613310D01*
X781050Y613410D01*
X781050Y631190D02*
X781048Y631290D01*
X781042Y631389D01*
X781032Y631489D01*
X781019Y631587D01*
X781001Y631686D01*
X780980Y631783D01*
X780955Y631879D01*
X780926Y631975D01*
X780893Y632069D01*
X780857Y632162D01*
X780817Y632253D01*
X780773Y632343D01*
X780726Y632431D01*
X780676Y632517D01*
X780622Y632601D01*
X780565Y632683D01*
X780505Y632762D01*
X780441Y632840D01*
X780375Y632914D01*
X780306Y632986D01*
X780234Y633055D01*
X780160Y633121D01*
X780082Y633185D01*
X780003Y633245D01*
X779921Y633302D01*
X779837Y633356D01*
X779751Y633406D01*
X779663Y633453D01*
X779573Y633497D01*
X779482Y633537D01*
X779389Y633573D01*
X779295Y633606D01*
X779199Y633635D01*
X779103Y633660D01*
X779006Y633681D01*
X778907Y633699D01*
X778809Y633712D01*
X778709Y633722D01*
X778610Y633728D01*
X778510Y633730D01*
X717550Y631190D02*
X717550Y613410D01*
X720090Y633730D02*
X723900Y633730D01*
X725170Y632460D01*
X723900Y610870D02*
X720090Y610870D01*
X723900Y610870D02*
X725170Y612140D01*
X773430Y632460D02*
X774700Y633730D01*
X773430Y632460D02*
X725170Y632460D01*
X773430Y612140D02*
X774700Y610870D01*
X773430Y612140D02*
X725170Y612140D01*
X774700Y633730D02*
X778510Y633730D01*
X778510Y610870D02*
X774700Y610870D01*
X781050Y613410D02*
X781050Y631190D01*
D11*
X719455Y638175D02*
X719455Y649605D01*
X722630Y649605D01*
X722741Y649603D01*
X722851Y649597D01*
X722962Y649588D01*
X723072Y649574D01*
X723181Y649557D01*
X723290Y649536D01*
X723398Y649511D01*
X723505Y649482D01*
X723611Y649450D01*
X723716Y649414D01*
X723819Y649374D01*
X723921Y649331D01*
X724022Y649284D01*
X724121Y649233D01*
X724218Y649180D01*
X724312Y649123D01*
X724405Y649062D01*
X724496Y648999D01*
X724585Y648932D01*
X724671Y648862D01*
X724754Y648789D01*
X724836Y648714D01*
X724914Y648636D01*
X724989Y648554D01*
X725062Y648471D01*
X725132Y648385D01*
X725199Y648296D01*
X725262Y648205D01*
X725323Y648112D01*
X725380Y648017D01*
X725433Y647921D01*
X725484Y647822D01*
X725531Y647721D01*
X725574Y647619D01*
X725614Y647516D01*
X725650Y647411D01*
X725682Y647305D01*
X725711Y647198D01*
X725736Y647090D01*
X725757Y646981D01*
X725774Y646872D01*
X725788Y646762D01*
X725797Y646651D01*
X725803Y646541D01*
X725805Y646430D01*
X725803Y646319D01*
X725797Y646209D01*
X725788Y646098D01*
X725774Y645988D01*
X725757Y645879D01*
X725736Y645770D01*
X725711Y645662D01*
X725682Y645555D01*
X725650Y645449D01*
X725614Y645344D01*
X725574Y645241D01*
X725531Y645139D01*
X725484Y645038D01*
X725433Y644939D01*
X725380Y644843D01*
X725323Y644748D01*
X725262Y644655D01*
X725199Y644564D01*
X725132Y644475D01*
X725062Y644389D01*
X724989Y644306D01*
X724914Y644224D01*
X724836Y644146D01*
X724754Y644071D01*
X724671Y643998D01*
X724585Y643928D01*
X724496Y643861D01*
X724405Y643798D01*
X724312Y643737D01*
X724218Y643680D01*
X724121Y643627D01*
X724022Y643576D01*
X723921Y643529D01*
X723819Y643486D01*
X723716Y643446D01*
X723611Y643410D01*
X723505Y643378D01*
X723398Y643349D01*
X723290Y643324D01*
X723181Y643303D01*
X723072Y643286D01*
X722962Y643272D01*
X722851Y643263D01*
X722741Y643257D01*
X722630Y643255D01*
X719455Y643255D01*
X723265Y643255D02*
X725805Y638175D01*
X733342Y643255D02*
X737152Y643255D01*
X733342Y643255D02*
X733242Y643257D01*
X733143Y643263D01*
X733043Y643273D01*
X732945Y643286D01*
X732846Y643304D01*
X732749Y643325D01*
X732653Y643350D01*
X732557Y643379D01*
X732463Y643412D01*
X732370Y643448D01*
X732279Y643488D01*
X732189Y643532D01*
X732101Y643579D01*
X732015Y643629D01*
X731931Y643683D01*
X731849Y643740D01*
X731770Y643800D01*
X731692Y643864D01*
X731618Y643930D01*
X731546Y643999D01*
X731477Y644071D01*
X731411Y644145D01*
X731347Y644223D01*
X731287Y644302D01*
X731230Y644384D01*
X731176Y644468D01*
X731126Y644554D01*
X731079Y644642D01*
X731035Y644732D01*
X730995Y644823D01*
X730959Y644916D01*
X730926Y645010D01*
X730897Y645106D01*
X730872Y645202D01*
X730851Y645299D01*
X730833Y645398D01*
X730820Y645496D01*
X730810Y645596D01*
X730804Y645695D01*
X730802Y645795D01*
X730802Y646430D01*
X730804Y646541D01*
X730810Y646651D01*
X730819Y646762D01*
X730833Y646872D01*
X730850Y646981D01*
X730871Y647090D01*
X730896Y647198D01*
X730925Y647305D01*
X730957Y647411D01*
X730993Y647516D01*
X731033Y647619D01*
X731076Y647721D01*
X731123Y647822D01*
X731174Y647921D01*
X731227Y648018D01*
X731284Y648112D01*
X731345Y648205D01*
X731408Y648296D01*
X731475Y648385D01*
X731545Y648471D01*
X731618Y648554D01*
X731693Y648636D01*
X731771Y648714D01*
X731853Y648789D01*
X731936Y648862D01*
X732022Y648932D01*
X732111Y648999D01*
X732202Y649062D01*
X732295Y649123D01*
X732390Y649180D01*
X732486Y649233D01*
X732585Y649284D01*
X732686Y649331D01*
X732788Y649374D01*
X732891Y649414D01*
X732996Y649450D01*
X733102Y649482D01*
X733209Y649511D01*
X733317Y649536D01*
X733426Y649557D01*
X733535Y649574D01*
X733645Y649588D01*
X733756Y649597D01*
X733866Y649603D01*
X733977Y649605D01*
X734088Y649603D01*
X734198Y649597D01*
X734309Y649588D01*
X734419Y649574D01*
X734528Y649557D01*
X734637Y649536D01*
X734745Y649511D01*
X734852Y649482D01*
X734958Y649450D01*
X735063Y649414D01*
X735166Y649374D01*
X735268Y649331D01*
X735369Y649284D01*
X735468Y649233D01*
X735565Y649180D01*
X735659Y649123D01*
X735752Y649062D01*
X735843Y648999D01*
X735932Y648932D01*
X736018Y648862D01*
X736101Y648789D01*
X736183Y648714D01*
X736261Y648636D01*
X736336Y648554D01*
X736409Y648471D01*
X736479Y648385D01*
X736546Y648296D01*
X736609Y648205D01*
X736670Y648112D01*
X736727Y648018D01*
X736780Y647921D01*
X736831Y647822D01*
X736878Y647721D01*
X736921Y647619D01*
X736961Y647516D01*
X736997Y647411D01*
X737029Y647305D01*
X737058Y647198D01*
X737083Y647090D01*
X737104Y646981D01*
X737121Y646872D01*
X737135Y646762D01*
X737144Y646651D01*
X737150Y646541D01*
X737152Y646430D01*
X737152Y643255D01*
X737150Y643115D01*
X737144Y642975D01*
X737135Y642835D01*
X737121Y642696D01*
X737104Y642557D01*
X737083Y642419D01*
X737058Y642281D01*
X737029Y642144D01*
X736997Y642008D01*
X736960Y641873D01*
X736920Y641739D01*
X736877Y641606D01*
X736829Y641474D01*
X736779Y641343D01*
X736724Y641214D01*
X736666Y641087D01*
X736605Y640961D01*
X736540Y640837D01*
X736471Y640715D01*
X736400Y640595D01*
X736325Y640477D01*
X736247Y640360D01*
X736165Y640246D01*
X736081Y640135D01*
X735993Y640026D01*
X735903Y639919D01*
X735809Y639814D01*
X735713Y639713D01*
X735614Y639614D01*
X735513Y639518D01*
X735408Y639424D01*
X735301Y639334D01*
X735192Y639246D01*
X735081Y639162D01*
X734967Y639080D01*
X734850Y639002D01*
X734732Y638927D01*
X734612Y638856D01*
X734490Y638787D01*
X734366Y638722D01*
X734240Y638661D01*
X734113Y638603D01*
X733984Y638548D01*
X733853Y638498D01*
X733721Y638450D01*
X733588Y638407D01*
X733454Y638367D01*
X733319Y638330D01*
X733183Y638298D01*
X733046Y638269D01*
X732908Y638244D01*
X732770Y638223D01*
X732631Y638206D01*
X732492Y638192D01*
X732352Y638183D01*
X732212Y638177D01*
X732072Y638175D01*
D12*
X785368Y622300D03*
X713232Y622300D03*
D11*
X215900Y469900D02*
X63500Y469900D01*
X215900Y469900D02*
X215900Y508000D01*
X63500Y508000D01*
X63500Y469900D01*
X355600Y546100D02*
X355600Y571500D01*
X355600Y546100D02*
X431800Y546100D01*
X431800Y571500D01*
X355600Y571500D01*
X292100Y304800D02*
X520700Y304800D01*
X292100Y304800D02*
X292100Y228600D01*
X520700Y228600D01*
X520700Y304800D01*
X215900Y342900D02*
X63500Y342900D01*
X63500Y304800D01*
X215900Y304800D01*
X215900Y342900D01*
D14*
X279400Y396400D02*
X279400Y421800D01*
X266700Y421800D01*
X266700Y498000D01*
X622300Y498000D01*
X622300Y320200D01*
X266700Y320200D01*
X266700Y396400D01*
X279400Y396400D01*
D15*
X292608Y371508D02*
X301046Y371508D01*
X301159Y371510D01*
X301272Y371516D01*
X301385Y371526D01*
X301498Y371540D01*
X301610Y371557D01*
X301721Y371579D01*
X301831Y371604D01*
X301941Y371634D01*
X302049Y371667D01*
X302156Y371704D01*
X302262Y371744D01*
X302366Y371789D01*
X302469Y371837D01*
X302570Y371888D01*
X302669Y371943D01*
X302766Y372001D01*
X302861Y372063D01*
X302954Y372128D01*
X303044Y372196D01*
X303132Y372267D01*
X303218Y372342D01*
X303301Y372419D01*
X303381Y372499D01*
X303458Y372582D01*
X303533Y372668D01*
X303604Y372756D01*
X303672Y372846D01*
X303737Y372939D01*
X303799Y373034D01*
X303857Y373131D01*
X303912Y373230D01*
X303963Y373331D01*
X304011Y373434D01*
X304056Y373538D01*
X304096Y373644D01*
X304133Y373751D01*
X304166Y373859D01*
X304196Y373969D01*
X304221Y374079D01*
X304243Y374190D01*
X304260Y374302D01*
X304274Y374415D01*
X304284Y374528D01*
X304290Y374641D01*
X304292Y374754D01*
X304290Y374867D01*
X304284Y374980D01*
X304274Y375093D01*
X304260Y375206D01*
X304243Y375318D01*
X304221Y375429D01*
X304196Y375539D01*
X304166Y375649D01*
X304133Y375757D01*
X304096Y375864D01*
X304056Y375970D01*
X304011Y376074D01*
X303963Y376177D01*
X303912Y376278D01*
X303857Y376377D01*
X303799Y376474D01*
X303737Y376569D01*
X303672Y376662D01*
X303604Y376752D01*
X303533Y376840D01*
X303458Y376926D01*
X303381Y377009D01*
X303301Y377089D01*
X303218Y377166D01*
X303132Y377241D01*
X303044Y377312D01*
X302954Y377380D01*
X302861Y377445D01*
X302766Y377507D01*
X302669Y377565D01*
X302570Y377620D01*
X302469Y377671D01*
X302366Y377719D01*
X302262Y377764D01*
X302156Y377804D01*
X302049Y377841D01*
X301941Y377874D01*
X301831Y377904D01*
X301721Y377929D01*
X301610Y377951D01*
X301498Y377968D01*
X301385Y377982D01*
X301272Y377992D01*
X301159Y377998D01*
X301046Y378000D01*
X301046Y377999D02*
X292608Y377999D01*
X292608Y385803D02*
X304292Y385803D01*
X298450Y385803D02*
X297476Y384180D01*
X297477Y384179D02*
X297430Y384106D01*
X297381Y384035D01*
X297328Y383966D01*
X297272Y383899D01*
X297213Y383835D01*
X297152Y383773D01*
X297088Y383715D01*
X297021Y383659D01*
X296952Y383607D01*
X296880Y383557D01*
X296806Y383511D01*
X296731Y383468D01*
X296653Y383429D01*
X296574Y383393D01*
X296493Y383361D01*
X296411Y383332D01*
X296328Y383307D01*
X296244Y383286D01*
X296159Y383269D01*
X296073Y383255D01*
X295987Y383246D01*
X295900Y383240D01*
X295813Y383238D01*
X295726Y383240D01*
X295639Y383246D01*
X295553Y383256D01*
X295467Y383269D01*
X295382Y383287D01*
X295298Y383308D01*
X295215Y383333D01*
X295132Y383362D01*
X295052Y383394D01*
X294973Y383430D01*
X294895Y383469D01*
X294820Y383512D01*
X294746Y383559D01*
X294675Y383608D01*
X294605Y383661D01*
X294539Y383716D01*
X294475Y383775D01*
X294413Y383836D01*
X294354Y383900D01*
X294299Y383967D01*
X294246Y384036D01*
X294196Y384108D01*
X294150Y384181D01*
X294107Y384257D01*
X294068Y384334D01*
X294032Y384413D01*
X293999Y384494D01*
X293971Y384576D01*
X293945Y384659D01*
X293924Y384743D01*
X293907Y384828D01*
X293906Y384829D02*
X293882Y384969D01*
X293862Y385111D01*
X293846Y385252D01*
X293835Y385394D01*
X293827Y385537D01*
X293823Y385679D01*
X293822Y385822D01*
X293826Y385965D01*
X293834Y386107D01*
X293846Y386249D01*
X293862Y386391D01*
X293881Y386532D01*
X293905Y386673D01*
X293932Y386813D01*
X293964Y386952D01*
X293999Y387090D01*
X294038Y387228D01*
X294081Y387364D01*
X294127Y387498D01*
X294178Y387632D01*
X294231Y387764D01*
X294289Y387894D01*
X294350Y388023D01*
X294415Y388150D01*
X294483Y388276D01*
X294555Y388399D01*
X298450Y385803D02*
X299424Y387425D01*
X299423Y387426D02*
X299470Y387499D01*
X299519Y387570D01*
X299572Y387640D01*
X299628Y387706D01*
X299687Y387770D01*
X299748Y387832D01*
X299812Y387890D01*
X299879Y387946D01*
X299948Y387998D01*
X300020Y388048D01*
X300094Y388094D01*
X300169Y388137D01*
X300247Y388176D01*
X300326Y388212D01*
X300407Y388244D01*
X300489Y388273D01*
X300572Y388298D01*
X300656Y388319D01*
X300741Y388336D01*
X300827Y388350D01*
X300914Y388359D01*
X301000Y388365D01*
X301087Y388367D01*
X301174Y388365D01*
X301261Y388359D01*
X301347Y388349D01*
X301433Y388336D01*
X301518Y388318D01*
X301602Y388297D01*
X301685Y388272D01*
X301768Y388243D01*
X301848Y388211D01*
X301927Y388175D01*
X302005Y388136D01*
X302080Y388093D01*
X302154Y388046D01*
X302225Y387997D01*
X302295Y387944D01*
X302361Y387889D01*
X302425Y387830D01*
X302487Y387769D01*
X302546Y387704D01*
X302601Y387638D01*
X302654Y387569D01*
X302704Y387497D01*
X302750Y387424D01*
X302793Y387348D01*
X302832Y387271D01*
X302868Y387192D01*
X302901Y387111D01*
X302929Y387029D01*
X302955Y386946D01*
X302976Y386862D01*
X302993Y386776D01*
X302994Y386776D02*
X303018Y386636D01*
X303038Y386494D01*
X303054Y386353D01*
X303065Y386211D01*
X303073Y386068D01*
X303077Y385926D01*
X303078Y385783D01*
X303074Y385640D01*
X303066Y385498D01*
X303054Y385356D01*
X303038Y385214D01*
X303019Y385073D01*
X302995Y384932D01*
X302968Y384792D01*
X302936Y384653D01*
X302901Y384515D01*
X302862Y384377D01*
X302819Y384241D01*
X302773Y384107D01*
X302722Y383973D01*
X302669Y383841D01*
X302611Y383711D01*
X302550Y383582D01*
X302485Y383455D01*
X302417Y383329D01*
X302345Y383206D01*
X304292Y393225D02*
X304292Y396471D01*
X304290Y396584D01*
X304284Y396697D01*
X304274Y396810D01*
X304260Y396923D01*
X304243Y397035D01*
X304221Y397146D01*
X304196Y397256D01*
X304166Y397366D01*
X304133Y397474D01*
X304096Y397581D01*
X304056Y397687D01*
X304011Y397791D01*
X303963Y397894D01*
X303912Y397995D01*
X303857Y398094D01*
X303799Y398191D01*
X303737Y398286D01*
X303672Y398379D01*
X303604Y398469D01*
X303533Y398557D01*
X303458Y398643D01*
X303381Y398726D01*
X303301Y398806D01*
X303218Y398883D01*
X303132Y398958D01*
X303044Y399029D01*
X302954Y399097D01*
X302861Y399162D01*
X302766Y399224D01*
X302669Y399282D01*
X302570Y399337D01*
X302469Y399388D01*
X302366Y399436D01*
X302262Y399481D01*
X302156Y399521D01*
X302049Y399558D01*
X301941Y399591D01*
X301831Y399621D01*
X301721Y399646D01*
X301610Y399668D01*
X301498Y399685D01*
X301385Y399699D01*
X301272Y399709D01*
X301159Y399715D01*
X301046Y399717D01*
X300933Y399715D01*
X300820Y399709D01*
X300707Y399699D01*
X300594Y399685D01*
X300482Y399668D01*
X300371Y399646D01*
X300261Y399621D01*
X300151Y399591D01*
X300043Y399558D01*
X299936Y399521D01*
X299830Y399481D01*
X299726Y399436D01*
X299623Y399388D01*
X299522Y399337D01*
X299423Y399282D01*
X299326Y399224D01*
X299231Y399162D01*
X299138Y399097D01*
X299048Y399029D01*
X298960Y398958D01*
X298874Y398883D01*
X298791Y398806D01*
X298711Y398726D01*
X298634Y398643D01*
X298559Y398557D01*
X298488Y398469D01*
X298420Y398379D01*
X298355Y398286D01*
X298293Y398191D01*
X298235Y398094D01*
X298180Y397995D01*
X298129Y397894D01*
X298081Y397791D01*
X298036Y397687D01*
X297996Y397581D01*
X297959Y397474D01*
X297926Y397366D01*
X297896Y397256D01*
X297871Y397146D01*
X297849Y397035D01*
X297832Y396923D01*
X297818Y396810D01*
X297808Y396697D01*
X297802Y396584D01*
X297800Y396471D01*
X292608Y397120D02*
X292608Y393225D01*
X292608Y397120D02*
X292610Y397221D01*
X292616Y397321D01*
X292626Y397421D01*
X292639Y397521D01*
X292657Y397620D01*
X292678Y397719D01*
X292703Y397816D01*
X292732Y397913D01*
X292765Y398008D01*
X292801Y398102D01*
X292841Y398194D01*
X292884Y398285D01*
X292931Y398374D01*
X292981Y398461D01*
X293035Y398547D01*
X293092Y398630D01*
X293152Y398710D01*
X293215Y398789D01*
X293282Y398865D01*
X293351Y398938D01*
X293423Y399008D01*
X293497Y399076D01*
X293574Y399141D01*
X293654Y399202D01*
X293736Y399261D01*
X293820Y399316D01*
X293906Y399368D01*
X293994Y399417D01*
X294084Y399462D01*
X294176Y399504D01*
X294269Y399542D01*
X294364Y399576D01*
X294459Y399607D01*
X294556Y399634D01*
X294654Y399657D01*
X294753Y399677D01*
X294853Y399692D01*
X294953Y399704D01*
X295053Y399712D01*
X295154Y399716D01*
X295254Y399716D01*
X295355Y399712D01*
X295455Y399704D01*
X295555Y399692D01*
X295655Y399677D01*
X295754Y399657D01*
X295852Y399634D01*
X295949Y399607D01*
X296044Y399576D01*
X296139Y399542D01*
X296232Y399504D01*
X296324Y399462D01*
X296414Y399417D01*
X296502Y399368D01*
X296588Y399316D01*
X296672Y399261D01*
X296754Y399202D01*
X296834Y399141D01*
X296911Y399076D01*
X296985Y399008D01*
X297057Y398938D01*
X297126Y398865D01*
X297193Y398789D01*
X297256Y398710D01*
X297316Y398630D01*
X297373Y398547D01*
X297427Y398461D01*
X297477Y398374D01*
X297524Y398285D01*
X297567Y398194D01*
X297607Y398102D01*
X297643Y398008D01*
X297676Y397913D01*
X297705Y397816D01*
X297730Y397719D01*
X297751Y397620D01*
X297769Y397521D01*
X297782Y397421D01*
X297792Y397321D01*
X297798Y397221D01*
X297800Y397120D01*
X297801Y397120D02*
X297801Y394523D01*
D11*
X254000Y457200D02*
X50800Y457200D01*
X50800Y355600D01*
X254000Y355600D01*
X254000Y419100D02*
X254000Y457200D01*
X254000Y419100D02*
X241300Y419100D01*
X241300Y393700D01*
X254000Y393700D01*
X254000Y355600D01*
X70000Y110000D02*
X50000Y110000D01*
X50000Y70000D01*
X70000Y70000D01*
X70000Y50000D01*
X270000Y50000D01*
X270000Y70000D01*
X290000Y70000D01*
X290000Y110000D01*
X270000Y110000D01*
X270000Y130000D01*
X70000Y130000D01*
X70000Y110000D01*
X70000Y730000D02*
X50000Y730000D01*
X50000Y690000D01*
X70000Y690000D01*
X70000Y670000D01*
X270000Y670000D01*
X270000Y690000D01*
X290000Y690000D01*
X290000Y730000D01*
X270000Y730000D01*
X270000Y750000D01*
X70000Y750000D01*
X70000Y730000D01*
X745400Y527000D02*
X745400Y273000D01*
X694600Y273000D02*
X694600Y527000D01*
X745400Y527000D01*
X745400Y273000D02*
X694600Y273000D01*
M02*
