G04 EAGLE Gerber X2 export*
G75*
%MOMM*%
%FSLAX34Y34*%
%LPD*%
%AMOC8*
5,1,8,0,0,1.08239X$1,22.5*%
G01*
%ADD10P,1.649562X8X22.500000*%
%ADD11P,1.649562X8X292.500000*%
%ADD12C,1.676400*%
%ADD13C,1.168400*%
%ADD14C,0.959600*%


D10*
X533400Y622300D03*
X635000Y622300D03*
X698500Y571500D03*
X800100Y571500D03*
D11*
X838200Y346400D03*
X838200Y244800D03*
X800100Y346400D03*
X800100Y244800D03*
D10*
X533400Y571500D03*
X635000Y571500D03*
D11*
X838200Y546100D03*
X838200Y444500D03*
X800100Y546100D03*
X800100Y444500D03*
D10*
X556100Y207800D03*
X657700Y207800D03*
X556100Y167000D03*
X657700Y167000D03*
X723900Y177800D03*
X825500Y177800D03*
X723900Y127000D03*
X825500Y127000D03*
X698500Y622300D03*
X800100Y622300D03*
D12*
X203200Y482600D03*
X177800Y482600D03*
X152400Y482600D03*
X127000Y482600D03*
X101600Y482600D03*
X76200Y482600D03*
X368300Y558800D03*
X393700Y558800D03*
X419100Y558800D03*
X419100Y596900D03*
X393700Y596900D03*
X897100Y509100D03*
X897100Y534500D03*
X508000Y292100D03*
X482600Y292100D03*
X457200Y292100D03*
X431800Y292100D03*
X406400Y292100D03*
X381000Y292100D03*
X355600Y292100D03*
X330200Y292100D03*
X304800Y292100D03*
X887320Y62620D03*
X905280Y80580D03*
X900020Y107220D03*
X917980Y125180D03*
X907320Y740180D03*
X925280Y722220D03*
X927980Y676820D03*
X910020Y694780D03*
X76200Y330200D03*
X101600Y330200D03*
X127000Y330200D03*
X152400Y330200D03*
X177800Y330200D03*
X203200Y330200D03*
X925600Y342500D03*
X925600Y317100D03*
X897100Y274000D03*
X897100Y299400D03*
X279400Y332900D03*
X304800Y332900D03*
X330200Y332900D03*
X355600Y332900D03*
X381000Y332900D03*
X406400Y332900D03*
X431800Y332900D03*
X457200Y332900D03*
X482600Y332900D03*
X508000Y332900D03*
X533400Y332900D03*
X558800Y332900D03*
X584200Y332900D03*
X609600Y332900D03*
X609600Y485300D03*
X584200Y485300D03*
X558800Y485300D03*
X533400Y485300D03*
X508000Y485300D03*
X482600Y485300D03*
X457200Y485300D03*
X431800Y485300D03*
X406400Y485300D03*
X381000Y485300D03*
X355600Y485300D03*
X330200Y485300D03*
X304800Y485300D03*
X279400Y485300D03*
X241300Y444500D03*
X215900Y444500D03*
X190500Y444500D03*
X165100Y444500D03*
X139700Y444500D03*
X114300Y444500D03*
X88900Y444500D03*
X63500Y444500D03*
X241300Y368300D03*
X215900Y368300D03*
X190500Y368300D03*
X165100Y368300D03*
X139700Y368300D03*
X114300Y368300D03*
X88900Y368300D03*
X63500Y368300D03*
X548800Y685800D03*
X574200Y685800D03*
X921700Y488000D03*
X921700Y462600D03*
X603400Y86200D03*
X628800Y86200D03*
X556100Y110800D03*
X581500Y110800D03*
X596100Y713900D03*
X621500Y713900D03*
D13*
X80000Y90000D03*
X260000Y90000D03*
X80000Y710000D03*
X260000Y710000D03*
D14*
X254000Y419100D03*
X254000Y393700D03*
X254000Y279400D03*
X254000Y228600D03*
X254000Y482600D03*
X292100Y444500D03*
X419100Y419100D03*
X482600Y419100D03*
X170000Y500000D03*
X210000Y500000D03*
X317500Y482600D03*
X317500Y444500D03*
X431800Y444500D03*
X495300Y444500D03*
X368300Y393700D03*
X368300Y508000D03*
X482600Y609600D03*
X406400Y368300D03*
X457200Y368300D03*
X546100Y381000D03*
X596900Y381000D03*
X635000Y381000D03*
X660400Y381000D03*
X355600Y215900D03*
X368300Y279400D03*
X609600Y203200D03*
X584200Y266700D03*
X596900Y355600D03*
X622300Y482600D03*
X406400Y317500D03*
X660400Y317500D03*
X406400Y355600D03*
X495300Y393700D03*
X520700Y406400D03*
X596900Y444500D03*
X635000Y482600D03*
X635000Y533400D03*
X889000Y127000D03*
X825500Y88900D03*
X800100Y76200D03*
X546100Y533400D03*
X520700Y533400D03*
X495300Y622300D03*
X520700Y596900D03*
X711200Y228600D03*
X673100Y533400D03*
M02*
