G04 EAGLE Gerber X2 export*
%TF.Part,Single*%
%TF.FileFunction,Copper,L1,Top,Mixed*%
%TF.FilePolarity,Positive*%
%TF.GenerationSoftware,Autodesk,EAGLE,9.0.1*%
%TF.CreationDate,2019-02-05T07:25:25Z*%
G75*
%MOMM*%
%FSLAX34Y34*%
%LPD*%
%AMOC8*
5,1,8,0,0,1.08239X$1,22.5*%
G01*
%ADD10R,1.108000X1.108000*%
%ADD11P,1.429621X8X22.500000*%
%ADD12P,1.732040X8X112.500000*%
%ADD13C,0.756400*%
%ADD14C,0.152400*%


D10*
X444500Y444500D03*
X444500Y431800D03*
X444500Y419100D03*
X444500Y406400D03*
X444500Y393700D03*
X444500Y381000D03*
X444500Y368300D03*
X444500Y355600D03*
X444500Y342900D03*
X444500Y330200D03*
X444500Y317500D03*
X444500Y304800D03*
X444500Y292100D03*
X444500Y279400D03*
X520700Y444500D03*
X520700Y431800D03*
X520700Y419100D03*
X520700Y406400D03*
X520700Y393700D03*
X520700Y381000D03*
X520700Y368300D03*
X520700Y355600D03*
X520700Y342900D03*
X520700Y330200D03*
X520700Y317500D03*
X520700Y304800D03*
X520700Y292100D03*
X520700Y279400D03*
X444500Y165100D03*
X444500Y152400D03*
X444500Y139700D03*
X444500Y127000D03*
X444500Y114300D03*
X444500Y101600D03*
X444500Y88900D03*
X444500Y76200D03*
X520700Y165100D03*
X520700Y152400D03*
X520700Y139700D03*
X520700Y127000D03*
X520700Y114300D03*
X520700Y101600D03*
X520700Y88900D03*
X520700Y76200D03*
X38100Y546100D03*
X50800Y546100D03*
X927100Y508000D03*
X939800Y508000D03*
X927100Y673100D03*
X939800Y673100D03*
X38100Y685800D03*
X50800Y685800D03*
X571500Y762000D03*
X584200Y762000D03*
X419100Y762000D03*
X431800Y762000D03*
X38100Y736600D03*
X50800Y736600D03*
X927100Y736600D03*
X939800Y736600D03*
X38100Y596900D03*
X50800Y596900D03*
X927100Y571500D03*
X939800Y571500D03*
D11*
X406400Y673100D03*
X457200Y673100D03*
X101600Y736600D03*
X152400Y736600D03*
X838200Y736600D03*
X889000Y736600D03*
X101600Y596900D03*
X152400Y596900D03*
X838200Y571500D03*
X889000Y571500D03*
X838200Y508000D03*
X889000Y508000D03*
X838200Y673100D03*
X889000Y673100D03*
X101600Y546100D03*
X152400Y546100D03*
X101600Y685800D03*
X152400Y685800D03*
X558800Y673100D03*
X609600Y673100D03*
D10*
X127000Y203200D03*
X127000Y190500D03*
X127000Y177800D03*
X127000Y165100D03*
X127000Y152400D03*
X127000Y139700D03*
X838200Y215900D03*
X838200Y203200D03*
X838200Y190500D03*
X838200Y177800D03*
X838200Y165100D03*
X838200Y152400D03*
D12*
X152400Y330200D03*
X152400Y355600D03*
D10*
X38100Y50800D03*
X50800Y50800D03*
X63500Y50800D03*
D13*
X457200Y203200D03*
D14*
X440382Y203200D01*
X434314Y209268D01*
X413032Y209268D01*
X406400Y215900D01*
D13*
X406400Y215900D03*
X431800Y203200D03*
D14*
X393700Y203200D01*
X393700Y215900D01*
D13*
X393700Y215900D03*
X393700Y406400D03*
D14*
X436674Y388826D02*
X436674Y387213D01*
X438013Y385874D01*
X439626Y385874D01*
X444500Y381000D01*
X436674Y388826D02*
X393700Y406400D01*
X515826Y157274D02*
X520700Y152400D01*
X515826Y157274D02*
X514213Y157274D01*
X512874Y158613D01*
X512874Y160226D01*
X495300Y177800D01*
X498320Y177800D01*
D13*
X498320Y177800D03*
X419100Y381000D03*
D14*
X431800Y381000D01*
X436674Y376126D01*
X436674Y374513D01*
X438013Y373174D01*
X439626Y373174D01*
X444500Y368300D01*
D13*
X427509Y237009D03*
D14*
X442345Y251845D01*
X440189Y254000D01*
X431800Y254000D01*
D13*
X431800Y254000D03*
D14*
X444500Y152400D02*
X367284Y142748D01*
X342900Y142748D01*
X342900Y145768D01*
D13*
X342900Y145768D03*
X355600Y406400D03*
D14*
X431236Y400332D02*
X444500Y393700D01*
X355600Y406400D02*
X342900Y431800D01*
D13*
X342900Y431800D03*
X419100Y431800D03*
D14*
X425732Y403887D02*
X429287Y400332D01*
X431236Y400332D01*
X425732Y425168D02*
X419100Y431800D01*
X425732Y425168D02*
X425732Y403887D01*
X444500Y419100D02*
X449374Y414226D01*
X450987Y414226D01*
X512874Y82413D02*
X514213Y81074D01*
X512874Y147526D02*
X508000Y152400D01*
X512874Y147526D02*
X512874Y82413D01*
X515826Y81074D02*
X520700Y76200D01*
X515826Y81074D02*
X514213Y81074D01*
D13*
X508000Y152400D03*
X469900Y190500D03*
D14*
X469900Y228600D01*
X431800Y266700D01*
X431800Y265506D01*
D13*
X431800Y265506D03*
X431800Y406400D03*
X431800Y431800D03*
D14*
X436674Y426926D01*
X436674Y425313D01*
X438013Y423974D01*
X439626Y423974D01*
X444500Y419100D01*
X436674Y411274D02*
X431800Y406400D01*
X436674Y411274D02*
X436674Y412887D01*
X438013Y414226D01*
X439626Y414226D01*
X444500Y419100D01*
X457200Y673100D02*
X457200Y723900D01*
X423974Y757126D02*
X419100Y762000D01*
X423974Y757126D02*
X423974Y755513D01*
X425313Y754174D01*
X426926Y754174D01*
X457200Y723900D01*
X406400Y673100D02*
X406400Y457200D01*
X444500Y431800D01*
X101600Y736600D02*
X76200Y736600D01*
D13*
X76200Y736600D03*
X50800Y723900D03*
D14*
X45926Y728774D01*
X44313Y728774D02*
X42974Y730113D01*
X42974Y731726D02*
X38100Y736600D01*
X44313Y728774D02*
X45926Y728774D01*
X42974Y730113D02*
X42974Y731726D01*
X438013Y347774D02*
X439626Y347774D01*
X444500Y342900D01*
X330200Y455587D02*
X330200Y558800D01*
X330200Y455587D02*
X438013Y347774D01*
X330200Y558800D02*
X152400Y736600D01*
X889000Y762000D02*
X927100Y736600D01*
D13*
X889000Y762000D03*
D14*
X889000Y736600D02*
X901700Y723900D01*
D13*
X901700Y723900D03*
X787400Y685800D03*
D14*
X762000Y660400D01*
D13*
X762000Y660400D03*
X736600Y635000D03*
D14*
X571500Y469900D01*
X571500Y444500D01*
D13*
X571500Y444500D03*
X482600Y431800D03*
D14*
X482600Y355600D01*
X457200Y330200D01*
X460103Y330200D01*
D13*
X460103Y330200D03*
D14*
X101600Y596900D02*
X88900Y596900D01*
D13*
X88900Y596900D03*
D14*
X63500Y596900D01*
D13*
X63500Y596900D03*
X292100Y431800D03*
D14*
X303187Y431800D01*
X438013Y296974D02*
X439626Y296974D01*
X444500Y292100D01*
X438013Y296974D02*
X303187Y431800D01*
X838200Y571500D02*
X838200Y584200D01*
X850900Y596900D01*
X901700Y596900D01*
X927100Y571500D01*
X889000Y571500D02*
X863600Y571500D01*
X710223Y418123D02*
X596900Y355600D01*
X710223Y418123D02*
X863600Y571500D01*
X596900Y355600D02*
X558800Y330200D01*
X557721Y332156D01*
D13*
X557721Y332156D03*
X520700Y292100D03*
X460103Y355600D03*
D14*
X482600Y469900D01*
X495300Y469900D01*
D13*
X495300Y469900D03*
X317500Y546100D03*
D14*
X152400Y546100D01*
X76200Y520700D02*
X50800Y546100D01*
D13*
X76200Y520700D03*
X152400Y520700D03*
D14*
X152400Y546100D01*
D13*
X508000Y317500D03*
D14*
X514213Y296974D02*
X515826Y296974D01*
X520700Y292100D01*
X508000Y303187D02*
X508000Y317500D01*
X508000Y303187D02*
X514213Y296974D01*
X520700Y304800D02*
X525574Y309674D01*
X920613Y515826D02*
X933587Y515826D01*
X934926Y514487D01*
X912787Y508000D02*
X889000Y508000D01*
X934926Y512874D02*
X934926Y514487D01*
X934926Y512874D02*
X939800Y508000D01*
X920613Y515826D02*
X912787Y508000D01*
X889000Y508000D02*
X520700Y304800D01*
X838200Y660400D02*
X838200Y673100D01*
D13*
X838200Y660400D03*
X812800Y635000D03*
D14*
X561848Y384048D01*
X527187Y322374D02*
X525574Y322374D01*
X520700Y317500D01*
X561848Y357035D02*
X561848Y384048D01*
X561848Y357035D02*
X527187Y322374D01*
X31613Y744426D02*
X30274Y743087D01*
X30274Y730113D01*
X31613Y744426D02*
X57287Y744426D01*
X50800Y709587D02*
X50800Y685800D01*
X50800Y709587D02*
X30274Y730113D01*
X115913Y685800D02*
X152400Y685800D01*
X115913Y685800D02*
X57287Y744426D01*
X508000Y330200D02*
X520700Y330200D01*
D13*
X508000Y330200D03*
X241300Y596900D03*
D14*
X152400Y685800D01*
X584200Y698500D02*
X584200Y762000D01*
X584200Y698500D02*
X558800Y673100D01*
X527187Y347774D02*
X525574Y347774D01*
X520700Y342900D01*
X558800Y379387D02*
X558800Y673100D01*
X558800Y379387D02*
X527187Y347774D01*
X439626Y106474D02*
X444500Y101600D01*
X439626Y106474D02*
X438013Y106474D01*
X436674Y107813D01*
X436674Y109426D01*
X431800Y114300D01*
D13*
X228600Y114300D03*
D14*
X431800Y114300D01*
D13*
X190500Y139700D03*
D14*
X444500Y139700D01*
X457200Y228600D02*
X190500Y228600D01*
X131874Y169974D02*
X127000Y165100D01*
X131874Y169974D02*
X133487Y169974D01*
X134826Y171313D01*
X134826Y172926D01*
X190500Y228600D01*
D13*
X457200Y228600D03*
X533400Y228600D03*
D14*
X533400Y266700D01*
X520700Y279400D01*
X450987Y172926D02*
X438013Y172926D01*
X450987Y172926D02*
X452326Y171587D01*
X452326Y72685D02*
X458463Y66548D01*
X452326Y72685D02*
X452326Y171587D01*
X492252Y90335D02*
X514213Y68374D01*
X492252Y90335D02*
X492252Y355600D01*
X417487Y152400D02*
X127000Y152400D01*
X417487Y152400D02*
X438013Y172926D01*
X458463Y66548D02*
X525361Y66548D01*
X525361Y68374D01*
X514213Y68374D01*
X492252Y355600D02*
X489232Y357550D01*
D13*
X489232Y357550D03*
D14*
X825500Y165100D02*
X838200Y165100D01*
D13*
X825500Y165100D03*
X647700Y215900D03*
D14*
X558800Y304800D01*
D13*
X558800Y304800D03*
D14*
X838200Y177800D02*
X843074Y182674D01*
X844687Y182674D01*
X863600Y201587D01*
X863600Y266700D01*
D13*
X863600Y266700D03*
X825500Y266700D03*
D14*
X647700Y266700D01*
X584200Y330200D01*
D13*
X584200Y330200D03*
X546100Y381000D03*
D14*
X520700Y381000D01*
X596900Y101600D02*
X749300Y101600D01*
X833326Y185626D02*
X838200Y190500D01*
X833326Y185626D02*
X831713Y185626D01*
X830374Y184287D01*
X830374Y182674D01*
X749300Y101600D01*
D13*
X596900Y101600D03*
X571500Y101600D03*
D14*
X520700Y101600D01*
X533400Y127000D02*
X546100Y127000D01*
X525574Y134826D02*
X520700Y139700D01*
X525574Y134826D02*
X527187Y134826D01*
X528526Y133487D01*
X528526Y131874D01*
X533400Y127000D01*
D13*
X546100Y127000D03*
X584200Y139700D03*
D14*
X647700Y203200D01*
X838200Y203200D01*
X152400Y344748D02*
X152400Y355600D01*
X152400Y344748D02*
X162687Y334461D01*
X162687Y238887D01*
X127000Y203200D01*
X609600Y673100D02*
X635000Y647700D01*
X889000Y647700D01*
X889000Y673100D01*
X912787Y673100D01*
X920613Y665274D01*
X939800Y687413D02*
X939800Y736600D01*
X946287Y665274D02*
X939800Y658787D01*
X939800Y571500D01*
X943239Y683974D02*
X939800Y687413D01*
X939800Y571500D02*
X934926Y566626D01*
X934926Y565013D01*
X933587Y563674D01*
X931974Y563674D01*
X901700Y533400D01*
X850900Y533400D01*
X838200Y520700D01*
X838200Y508000D01*
X947626Y514487D02*
X947626Y501513D01*
X876428Y508000D02*
X838200Y508000D01*
X876428Y508000D02*
X887302Y518874D01*
X943239Y518874D01*
X947626Y514487D01*
X838200Y392087D02*
X838200Y215900D01*
X838200Y392087D02*
X947626Y501513D01*
X609600Y609600D02*
X609600Y673100D01*
X546862Y546862D02*
X444500Y444500D01*
X947626Y666613D02*
X947626Y679587D01*
X947626Y666613D02*
X946287Y665274D01*
X920613Y665274D01*
X912787Y673100D02*
X877735Y708152D01*
X831637Y772874D02*
X568061Y772874D01*
X943239Y683974D02*
X947626Y679587D01*
X546862Y749300D02*
X546862Y546862D01*
X546862Y749300D02*
X546862Y751675D01*
X568061Y772874D01*
X831637Y772874D02*
X920537Y683974D01*
X943239Y683974D01*
X877735Y708152D02*
X708152Y708152D01*
X609600Y609600D01*
X444500Y749300D02*
X431800Y762000D01*
X444500Y749300D02*
X546862Y749300D01*
X444500Y444500D02*
X449374Y439626D01*
X450987Y439626D01*
X224289Y355600D02*
X152400Y355600D01*
X450987Y439626D02*
X454035Y436578D01*
X454035Y274622D01*
X450987Y271574D01*
X308315Y271574D01*
X224289Y355600D01*
X152400Y355600D02*
X101600Y406400D01*
X101600Y546100D01*
X50800Y596900D01*
X50800Y635000D01*
X101600Y685800D01*
X56896Y730504D01*
X56896Y736600D01*
X52585Y738385D02*
X50800Y736600D01*
X52585Y738385D02*
X55111Y738385D01*
X56896Y736600D01*
X50800Y671487D02*
X50800Y596900D01*
X50800Y671487D02*
X58626Y679313D01*
X58626Y734870D02*
X56896Y736600D01*
X58626Y734870D02*
X58626Y679313D01*
X520700Y127000D02*
X520700Y114300D01*
X444500Y114300D02*
X444500Y127000D01*
X330200Y127000D01*
D13*
X330200Y127000D03*
D14*
X120513Y144574D02*
X119174Y145913D01*
X119174Y209687D01*
X120513Y144574D02*
X122126Y144574D01*
X127000Y139700D01*
X152400Y242913D02*
X152400Y330200D01*
X152400Y242913D02*
X119174Y209687D01*
X525574Y160226D02*
X527187Y160226D01*
X525574Y160226D02*
X520700Y165100D01*
X527187Y160226D02*
X596900Y90513D01*
X520700Y165100D02*
X495300Y190500D01*
X514213Y439626D02*
X515826Y439626D01*
X520700Y444500D01*
X514213Y439626D02*
X495300Y420713D01*
X495300Y190500D01*
X596900Y90513D02*
X776313Y90513D01*
X838200Y152400D01*
X127000Y139700D02*
X127000Y88900D01*
X139700Y76200D01*
X444500Y76200D01*
X457200Y63500D01*
X569887Y63500D02*
X596900Y90513D01*
X569887Y63500D02*
X457200Y63500D01*
X42974Y55674D02*
X38100Y50800D01*
X42974Y55674D02*
X42974Y57287D01*
X74587Y88900D01*
X127000Y88900D01*
X927100Y674713D02*
X933313Y680926D01*
X927100Y674713D02*
X927100Y673100D01*
X525574Y423974D02*
X520700Y419100D01*
X525574Y423974D02*
X527187Y423974D01*
X549910Y676782D02*
X558800Y685672D01*
X549910Y446697D02*
X527187Y423974D01*
X549910Y446697D02*
X549910Y676782D01*
X558800Y749300D02*
X571500Y762000D01*
X558800Y749300D02*
X558800Y685672D01*
X889000Y711200D02*
X927100Y673100D01*
X592026Y768487D02*
X590687Y769826D01*
X577713Y769826D01*
X576374Y768487D01*
X576374Y766874D01*
X571500Y762000D01*
X592026Y741474D02*
X622300Y711200D01*
X592026Y741474D02*
X592026Y768487D01*
X622300Y711200D02*
X889000Y711200D01*
X508000Y406400D02*
X508000Y393700D01*
D13*
X508000Y393700D03*
X50800Y419100D03*
D14*
X38100Y431800D01*
X38100Y546100D01*
X927100Y508000D02*
X927100Y495300D01*
D13*
X927100Y495300D03*
D14*
X512874Y411274D02*
X508000Y406400D01*
X512874Y411274D02*
X512874Y412887D01*
X514213Y414226D01*
X515826Y414226D01*
X520700Y419100D01*
D13*
X38100Y558800D03*
D14*
X30274Y590413D02*
X30274Y603387D01*
X38100Y582587D02*
X38100Y558800D01*
X38100Y611213D02*
X38100Y685800D01*
X30274Y590413D02*
X38100Y582587D01*
X30274Y603387D02*
X38100Y611213D01*
D13*
X393700Y469900D03*
D14*
X342900Y457200D01*
D13*
X342900Y457200D03*
X292100Y457200D03*
D14*
X127000Y419100D01*
D13*
X127000Y419100D03*
M02*
