M48
;GenerationSoftware,Autodesk,EAGLE,9.0.1*%
;CreationDate,2019-02-05T07:25:25Z*%
FMAT,2
ICI,OFF
METRIC,TZ,000.000
T3C0.350
T2C0.600
T1C0.813
%
G90
M71
T1
X40640Y67310
X15240Y35560
X15240Y33020
X60960Y67310
X55880Y67310
X15240Y68580
X10160Y68580
X10160Y54610
X88900Y67310
X83820Y67310
X88900Y50800
X83820Y50800
X88900Y57150
X83820Y57150
X15240Y59690
X10160Y59690
X88900Y73660
X83820Y73660
X15240Y73660
X15240Y54610
X10160Y73660
X45720Y67310
T2
X44450Y10160
X44450Y8890
X44450Y7620
X52070Y16510
X52070Y13970
X52070Y12700
X52070Y11430
X52070Y10160
X52070Y8890
X52070Y7620
X3810Y54610
X5080Y54610
X92710Y50800
X93980Y50800
X92710Y67310
X93980Y67310
X3810Y68580
X5080Y68580
X57150Y76200
X58420Y76200
X41910Y76200
X52070Y15240
X43180Y76200
X3810Y73660
X5080Y73660
X93980Y73660
X3810Y59690
X5080Y59690
X92710Y57150
X93980Y57150
X12700Y20320
X12700Y19050
X12700Y17780
X12700Y16510
X12700Y15240
X12700Y13970
X83820Y21590
X83820Y20320
X83820Y19050
X83820Y17780
X83820Y16510
X83820Y15240
X3810Y5080
X5080Y5080
X6350Y5080
X52070Y41910
X44450Y44450
X44450Y43180
X44450Y41910
X44450Y40640
X44450Y39370
X44450Y38100
X44450Y36830
X44450Y35560
X44450Y34290
X44450Y33020
X44450Y31750
X44450Y30480
X44450Y29210
X44450Y27940
X52070Y44450
X52070Y43180
X92710Y73660
X52070Y40640
X52070Y39370
X52070Y38100
X52070Y36830
X52070Y35560
X52070Y34290
X52070Y33020
X52070Y31750
X52070Y30480
X52070Y29210
X52070Y27940
X44450Y16510
X44450Y15240
X44450Y13970
X44450Y12700
X44450Y11430
T3
X45720Y20320
X40640Y21590
X43180Y20320
X39370Y21590
X39370Y40640
X49832Y17780
X41910Y38100
X42751Y23701
X43180Y25400
X34290Y14577
X35560Y40640
X34290Y43180
X41910Y43180
X50800Y15240
X46990Y19050
X43180Y26551
X43180Y40640
X43180Y43180
X7620Y73660
X5080Y72390
X88900Y76200
X78740Y68580
X76200Y66040
X73660Y63500
X57150Y44450
X48260Y43180
X46010Y33020
X8890Y59690
X6350Y59690
X29210Y43180
X55772Y33216
X52070Y29210
X46010Y35560
X49530Y46990
X31750Y54610
X7620Y52070
X15240Y52070
X50800Y31750
X83820Y66040
X81280Y63500
X50800Y33020
X24130Y59690
X22860Y11430
X19050Y13970
X82550Y26670
X86360Y26670
X90170Y72390
X55880Y30480
X64770Y21590
X82550Y16510
X48923Y35755
X12700Y41910
X3810Y55880
X29210Y45720
X34290Y45720
X39370Y46990
X92710Y49530
X5080Y41910
X50800Y39370
X33020Y12700
X58420Y13970
X54610Y12700
X57150Y10160
X53340Y22860
X45720Y22860
X59690Y10160
X54610Y38100
X58420Y33020
M30