G04 EAGLE Gerber X2 export*
%TF.Part,Single*%
%TF.FileFunction,Legend,Top,1*%
%TF.FilePolarity,Positive*%
%TF.GenerationSoftware,Autodesk,EAGLE,9.0.1*%
%TF.CreationDate,2019-02-05T07:25:25Z*%
G75*
%MOMM*%
%FSLAX34Y34*%
%LPD*%
%AMOC8*
5,1,8,0,0,1.08239X$1,22.5*%
G01*
%ADD10C,0.127000*%
%ADD11C,0.152400*%
%ADD12C,0.101600*%
%ADD13C,0.254000*%


D10*
X457200Y457200D02*
X457200Y266700D01*
X508000Y266700D01*
X508000Y457200D01*
X457200Y457200D01*
X457200Y177800D02*
X457200Y63500D01*
X508000Y63500D01*
X508000Y177800D01*
X469900Y177800D02*
X457200Y177800D01*
X469900Y177800D02*
X469900Y165100D01*
X495300Y165100D01*
X495300Y177800D01*
X508000Y177800D01*
D11*
X414020Y679450D02*
X414022Y679550D01*
X414028Y679649D01*
X414038Y679749D01*
X414051Y679847D01*
X414069Y679946D01*
X414090Y680043D01*
X414115Y680139D01*
X414144Y680235D01*
X414177Y680329D01*
X414213Y680422D01*
X414253Y680513D01*
X414297Y680603D01*
X414344Y680691D01*
X414394Y680777D01*
X414448Y680861D01*
X414505Y680943D01*
X414565Y681022D01*
X414629Y681100D01*
X414695Y681174D01*
X414764Y681246D01*
X414836Y681315D01*
X414910Y681381D01*
X414988Y681445D01*
X415067Y681505D01*
X415149Y681562D01*
X415233Y681616D01*
X415319Y681666D01*
X415407Y681713D01*
X415497Y681757D01*
X415588Y681797D01*
X415681Y681833D01*
X415775Y681866D01*
X415871Y681895D01*
X415967Y681920D01*
X416064Y681941D01*
X416163Y681959D01*
X416261Y681972D01*
X416361Y681982D01*
X416460Y681988D01*
X416560Y681990D01*
X414020Y666750D02*
X414022Y666650D01*
X414028Y666551D01*
X414038Y666451D01*
X414051Y666353D01*
X414069Y666254D01*
X414090Y666157D01*
X414115Y666061D01*
X414144Y665965D01*
X414177Y665871D01*
X414213Y665778D01*
X414253Y665687D01*
X414297Y665597D01*
X414344Y665509D01*
X414394Y665423D01*
X414448Y665339D01*
X414505Y665257D01*
X414565Y665178D01*
X414629Y665100D01*
X414695Y665026D01*
X414764Y664954D01*
X414836Y664885D01*
X414910Y664819D01*
X414988Y664755D01*
X415067Y664695D01*
X415149Y664638D01*
X415233Y664584D01*
X415319Y664534D01*
X415407Y664487D01*
X415497Y664443D01*
X415588Y664403D01*
X415681Y664367D01*
X415775Y664334D01*
X415871Y664305D01*
X415967Y664280D01*
X416064Y664259D01*
X416163Y664241D01*
X416261Y664228D01*
X416361Y664218D01*
X416460Y664212D01*
X416560Y664210D01*
X447040Y664210D02*
X447140Y664212D01*
X447239Y664218D01*
X447339Y664228D01*
X447437Y664241D01*
X447536Y664259D01*
X447633Y664280D01*
X447729Y664305D01*
X447825Y664334D01*
X447919Y664367D01*
X448012Y664403D01*
X448103Y664443D01*
X448193Y664487D01*
X448281Y664534D01*
X448367Y664584D01*
X448451Y664638D01*
X448533Y664695D01*
X448612Y664755D01*
X448690Y664819D01*
X448764Y664885D01*
X448836Y664954D01*
X448905Y665026D01*
X448971Y665100D01*
X449035Y665178D01*
X449095Y665257D01*
X449152Y665339D01*
X449206Y665423D01*
X449256Y665509D01*
X449303Y665597D01*
X449347Y665687D01*
X449387Y665778D01*
X449423Y665871D01*
X449456Y665965D01*
X449485Y666061D01*
X449510Y666157D01*
X449531Y666254D01*
X449549Y666353D01*
X449562Y666451D01*
X449572Y666551D01*
X449578Y666650D01*
X449580Y666750D01*
X449580Y679450D02*
X449578Y679550D01*
X449572Y679649D01*
X449562Y679749D01*
X449549Y679847D01*
X449531Y679946D01*
X449510Y680043D01*
X449485Y680139D01*
X449456Y680235D01*
X449423Y680329D01*
X449387Y680422D01*
X449347Y680513D01*
X449303Y680603D01*
X449256Y680691D01*
X449206Y680777D01*
X449152Y680861D01*
X449095Y680943D01*
X449035Y681022D01*
X448971Y681100D01*
X448905Y681174D01*
X448836Y681246D01*
X448764Y681315D01*
X448690Y681381D01*
X448612Y681445D01*
X448533Y681505D01*
X448451Y681562D01*
X448367Y681616D01*
X448281Y681666D01*
X448193Y681713D01*
X448103Y681757D01*
X448012Y681797D01*
X447919Y681833D01*
X447825Y681866D01*
X447729Y681895D01*
X447633Y681920D01*
X447536Y681941D01*
X447437Y681959D01*
X447339Y681972D01*
X447239Y681982D01*
X447140Y681988D01*
X447040Y681990D01*
X419100Y681990D02*
X416560Y681990D01*
X419100Y681990D02*
X420370Y680720D01*
X419100Y664210D02*
X416560Y664210D01*
X419100Y664210D02*
X420370Y665480D01*
X443230Y680720D02*
X444500Y681990D01*
X443230Y680720D02*
X420370Y680720D01*
X443230Y665480D02*
X444500Y664210D01*
X443230Y665480D02*
X420370Y665480D01*
X444500Y681990D02*
X447040Y681990D01*
X447040Y664210D02*
X444500Y664210D01*
D12*
X412242Y685292D02*
X412242Y694182D01*
X414711Y694182D01*
X414809Y694180D01*
X414907Y694174D01*
X415005Y694164D01*
X415102Y694151D01*
X415199Y694133D01*
X415295Y694112D01*
X415389Y694087D01*
X415483Y694058D01*
X415576Y694026D01*
X415667Y693989D01*
X415757Y693950D01*
X415845Y693906D01*
X415931Y693859D01*
X416016Y693809D01*
X416098Y693756D01*
X416178Y693699D01*
X416256Y693639D01*
X416331Y693576D01*
X416404Y693510D01*
X416474Y693441D01*
X416541Y693370D01*
X416606Y693296D01*
X416667Y693219D01*
X416726Y693140D01*
X416781Y693059D01*
X416833Y692976D01*
X416881Y692890D01*
X416926Y692803D01*
X416968Y692714D01*
X417006Y692624D01*
X417040Y692532D01*
X417071Y692439D01*
X417098Y692344D01*
X417121Y692249D01*
X417141Y692152D01*
X417156Y692056D01*
X417168Y691958D01*
X417176Y691860D01*
X417180Y691762D01*
X417180Y691664D01*
X417176Y691566D01*
X417168Y691468D01*
X417156Y691370D01*
X417141Y691274D01*
X417121Y691177D01*
X417098Y691082D01*
X417071Y690987D01*
X417040Y690894D01*
X417006Y690802D01*
X416968Y690712D01*
X416926Y690623D01*
X416881Y690536D01*
X416833Y690450D01*
X416781Y690367D01*
X416726Y690286D01*
X416667Y690207D01*
X416606Y690130D01*
X416541Y690056D01*
X416474Y689985D01*
X416404Y689916D01*
X416331Y689850D01*
X416256Y689787D01*
X416178Y689727D01*
X416098Y689670D01*
X416016Y689617D01*
X415931Y689567D01*
X415845Y689520D01*
X415757Y689476D01*
X415667Y689437D01*
X415576Y689400D01*
X415483Y689368D01*
X415389Y689339D01*
X415295Y689314D01*
X415199Y689293D01*
X415102Y689275D01*
X415005Y689262D01*
X414907Y689252D01*
X414809Y689246D01*
X414711Y689244D01*
X414711Y689243D02*
X412242Y689243D01*
X415205Y689243D02*
X417181Y685292D01*
X421092Y690231D02*
X424055Y690231D01*
X424141Y690229D01*
X424227Y690223D01*
X424313Y690214D01*
X424398Y690201D01*
X424483Y690184D01*
X424566Y690164D01*
X424649Y690140D01*
X424731Y690112D01*
X424811Y690081D01*
X424890Y690046D01*
X424967Y690008D01*
X425043Y689966D01*
X425117Y689922D01*
X425188Y689874D01*
X425258Y689823D01*
X425325Y689769D01*
X425390Y689712D01*
X425452Y689652D01*
X425512Y689590D01*
X425569Y689525D01*
X425623Y689458D01*
X425674Y689388D01*
X425722Y689317D01*
X425766Y689243D01*
X425808Y689167D01*
X425846Y689090D01*
X425881Y689011D01*
X425912Y688931D01*
X425940Y688849D01*
X425964Y688766D01*
X425984Y688683D01*
X426001Y688598D01*
X426014Y688513D01*
X426023Y688427D01*
X426029Y688341D01*
X426031Y688255D01*
X426031Y687761D01*
X426030Y687761D02*
X426028Y687663D01*
X426022Y687565D01*
X426012Y687467D01*
X425999Y687370D01*
X425981Y687273D01*
X425960Y687177D01*
X425935Y687083D01*
X425906Y686989D01*
X425874Y686896D01*
X425837Y686805D01*
X425798Y686715D01*
X425754Y686627D01*
X425707Y686541D01*
X425657Y686456D01*
X425604Y686374D01*
X425547Y686294D01*
X425487Y686216D01*
X425424Y686141D01*
X425358Y686068D01*
X425289Y685998D01*
X425218Y685931D01*
X425144Y685866D01*
X425067Y685805D01*
X424988Y685746D01*
X424907Y685691D01*
X424824Y685639D01*
X424738Y685591D01*
X424651Y685546D01*
X424562Y685504D01*
X424472Y685466D01*
X424380Y685432D01*
X424287Y685401D01*
X424192Y685374D01*
X424097Y685351D01*
X424000Y685331D01*
X423904Y685316D01*
X423806Y685304D01*
X423708Y685296D01*
X423610Y685292D01*
X423512Y685292D01*
X423414Y685296D01*
X423316Y685304D01*
X423218Y685316D01*
X423122Y685331D01*
X423025Y685351D01*
X422930Y685374D01*
X422835Y685401D01*
X422742Y685432D01*
X422650Y685466D01*
X422560Y685504D01*
X422471Y685546D01*
X422384Y685591D01*
X422298Y685639D01*
X422215Y685691D01*
X422134Y685746D01*
X422055Y685805D01*
X421978Y685866D01*
X421904Y685931D01*
X421833Y685998D01*
X421764Y686068D01*
X421698Y686141D01*
X421635Y686216D01*
X421575Y686294D01*
X421518Y686374D01*
X421465Y686456D01*
X421415Y686541D01*
X421368Y686627D01*
X421324Y686715D01*
X421285Y686805D01*
X421248Y686896D01*
X421216Y686989D01*
X421187Y687083D01*
X421162Y687177D01*
X421141Y687273D01*
X421123Y687370D01*
X421110Y687467D01*
X421100Y687565D01*
X421094Y687663D01*
X421092Y687761D01*
X421092Y690231D01*
X421094Y690355D01*
X421100Y690479D01*
X421110Y690603D01*
X421123Y690726D01*
X421141Y690849D01*
X421162Y690971D01*
X421187Y691093D01*
X421216Y691214D01*
X421249Y691333D01*
X421285Y691452D01*
X421326Y691569D01*
X421369Y691685D01*
X421417Y691800D01*
X421468Y691913D01*
X421523Y692025D01*
X421581Y692134D01*
X421642Y692242D01*
X421707Y692348D01*
X421775Y692452D01*
X421847Y692553D01*
X421921Y692653D01*
X421999Y692749D01*
X422079Y692844D01*
X422163Y692936D01*
X422249Y693025D01*
X422338Y693111D01*
X422430Y693195D01*
X422525Y693275D01*
X422621Y693353D01*
X422721Y693427D01*
X422822Y693499D01*
X422926Y693567D01*
X423032Y693632D01*
X423140Y693693D01*
X423249Y693751D01*
X423361Y693806D01*
X423474Y693857D01*
X423589Y693905D01*
X423705Y693948D01*
X423822Y693989D01*
X423941Y694025D01*
X424060Y694058D01*
X424181Y694087D01*
X424303Y694112D01*
X424425Y694133D01*
X424548Y694151D01*
X424671Y694164D01*
X424795Y694174D01*
X424919Y694180D01*
X425043Y694182D01*
D11*
X111760Y745490D02*
X111660Y745488D01*
X111561Y745482D01*
X111461Y745472D01*
X111363Y745459D01*
X111264Y745441D01*
X111167Y745420D01*
X111071Y745395D01*
X110975Y745366D01*
X110881Y745333D01*
X110788Y745297D01*
X110697Y745257D01*
X110607Y745213D01*
X110519Y745166D01*
X110433Y745116D01*
X110349Y745062D01*
X110267Y745005D01*
X110188Y744945D01*
X110110Y744881D01*
X110036Y744815D01*
X109964Y744746D01*
X109895Y744674D01*
X109829Y744600D01*
X109765Y744522D01*
X109705Y744443D01*
X109648Y744361D01*
X109594Y744277D01*
X109544Y744191D01*
X109497Y744103D01*
X109453Y744013D01*
X109413Y743922D01*
X109377Y743829D01*
X109344Y743735D01*
X109315Y743639D01*
X109290Y743543D01*
X109269Y743446D01*
X109251Y743347D01*
X109238Y743249D01*
X109228Y743149D01*
X109222Y743050D01*
X109220Y742950D01*
X109220Y730250D02*
X109222Y730150D01*
X109228Y730051D01*
X109238Y729951D01*
X109251Y729853D01*
X109269Y729754D01*
X109290Y729657D01*
X109315Y729561D01*
X109344Y729465D01*
X109377Y729371D01*
X109413Y729278D01*
X109453Y729187D01*
X109497Y729097D01*
X109544Y729009D01*
X109594Y728923D01*
X109648Y728839D01*
X109705Y728757D01*
X109765Y728678D01*
X109829Y728600D01*
X109895Y728526D01*
X109964Y728454D01*
X110036Y728385D01*
X110110Y728319D01*
X110188Y728255D01*
X110267Y728195D01*
X110349Y728138D01*
X110433Y728084D01*
X110519Y728034D01*
X110607Y727987D01*
X110697Y727943D01*
X110788Y727903D01*
X110881Y727867D01*
X110975Y727834D01*
X111071Y727805D01*
X111167Y727780D01*
X111264Y727759D01*
X111363Y727741D01*
X111461Y727728D01*
X111561Y727718D01*
X111660Y727712D01*
X111760Y727710D01*
X142240Y727710D02*
X142340Y727712D01*
X142439Y727718D01*
X142539Y727728D01*
X142637Y727741D01*
X142736Y727759D01*
X142833Y727780D01*
X142929Y727805D01*
X143025Y727834D01*
X143119Y727867D01*
X143212Y727903D01*
X143303Y727943D01*
X143393Y727987D01*
X143481Y728034D01*
X143567Y728084D01*
X143651Y728138D01*
X143733Y728195D01*
X143812Y728255D01*
X143890Y728319D01*
X143964Y728385D01*
X144036Y728454D01*
X144105Y728526D01*
X144171Y728600D01*
X144235Y728678D01*
X144295Y728757D01*
X144352Y728839D01*
X144406Y728923D01*
X144456Y729009D01*
X144503Y729097D01*
X144547Y729187D01*
X144587Y729278D01*
X144623Y729371D01*
X144656Y729465D01*
X144685Y729561D01*
X144710Y729657D01*
X144731Y729754D01*
X144749Y729853D01*
X144762Y729951D01*
X144772Y730051D01*
X144778Y730150D01*
X144780Y730250D01*
X144780Y742950D02*
X144778Y743050D01*
X144772Y743149D01*
X144762Y743249D01*
X144749Y743347D01*
X144731Y743446D01*
X144710Y743543D01*
X144685Y743639D01*
X144656Y743735D01*
X144623Y743829D01*
X144587Y743922D01*
X144547Y744013D01*
X144503Y744103D01*
X144456Y744191D01*
X144406Y744277D01*
X144352Y744361D01*
X144295Y744443D01*
X144235Y744522D01*
X144171Y744600D01*
X144105Y744674D01*
X144036Y744746D01*
X143964Y744815D01*
X143890Y744881D01*
X143812Y744945D01*
X143733Y745005D01*
X143651Y745062D01*
X143567Y745116D01*
X143481Y745166D01*
X143393Y745213D01*
X143303Y745257D01*
X143212Y745297D01*
X143119Y745333D01*
X143025Y745366D01*
X142929Y745395D01*
X142833Y745420D01*
X142736Y745441D01*
X142637Y745459D01*
X142539Y745472D01*
X142439Y745482D01*
X142340Y745488D01*
X142240Y745490D01*
X114300Y745490D02*
X111760Y745490D01*
X114300Y745490D02*
X115570Y744220D01*
X114300Y727710D02*
X111760Y727710D01*
X114300Y727710D02*
X115570Y728980D01*
X138430Y744220D02*
X139700Y745490D01*
X138430Y744220D02*
X115570Y744220D01*
X138430Y728980D02*
X139700Y727710D01*
X138430Y728980D02*
X115570Y728980D01*
X139700Y745490D02*
X142240Y745490D01*
X142240Y727710D02*
X139700Y727710D01*
D12*
X107442Y748792D02*
X107442Y757682D01*
X109911Y757682D01*
X110009Y757680D01*
X110107Y757674D01*
X110205Y757664D01*
X110302Y757651D01*
X110399Y757633D01*
X110495Y757612D01*
X110589Y757587D01*
X110683Y757558D01*
X110776Y757526D01*
X110867Y757489D01*
X110957Y757450D01*
X111045Y757406D01*
X111131Y757359D01*
X111216Y757309D01*
X111298Y757256D01*
X111378Y757199D01*
X111456Y757139D01*
X111531Y757076D01*
X111604Y757010D01*
X111674Y756941D01*
X111741Y756870D01*
X111806Y756796D01*
X111867Y756719D01*
X111926Y756640D01*
X111981Y756559D01*
X112033Y756476D01*
X112081Y756390D01*
X112126Y756303D01*
X112168Y756214D01*
X112206Y756124D01*
X112240Y756032D01*
X112271Y755939D01*
X112298Y755844D01*
X112321Y755749D01*
X112341Y755652D01*
X112356Y755556D01*
X112368Y755458D01*
X112376Y755360D01*
X112380Y755262D01*
X112380Y755164D01*
X112376Y755066D01*
X112368Y754968D01*
X112356Y754870D01*
X112341Y754774D01*
X112321Y754677D01*
X112298Y754582D01*
X112271Y754487D01*
X112240Y754394D01*
X112206Y754302D01*
X112168Y754212D01*
X112126Y754123D01*
X112081Y754036D01*
X112033Y753950D01*
X111981Y753867D01*
X111926Y753786D01*
X111867Y753707D01*
X111806Y753630D01*
X111741Y753556D01*
X111674Y753485D01*
X111604Y753416D01*
X111531Y753350D01*
X111456Y753287D01*
X111378Y753227D01*
X111298Y753170D01*
X111216Y753117D01*
X111131Y753067D01*
X111045Y753020D01*
X110957Y752976D01*
X110867Y752937D01*
X110776Y752900D01*
X110683Y752868D01*
X110589Y752839D01*
X110495Y752814D01*
X110399Y752793D01*
X110302Y752775D01*
X110205Y752762D01*
X110107Y752752D01*
X110009Y752746D01*
X109911Y752744D01*
X109911Y752743D02*
X107442Y752743D01*
X110405Y752743D02*
X112381Y748792D01*
X116292Y756694D02*
X116292Y757682D01*
X121231Y757682D01*
X118761Y748792D01*
D11*
X845820Y742950D02*
X845822Y743050D01*
X845828Y743149D01*
X845838Y743249D01*
X845851Y743347D01*
X845869Y743446D01*
X845890Y743543D01*
X845915Y743639D01*
X845944Y743735D01*
X845977Y743829D01*
X846013Y743922D01*
X846053Y744013D01*
X846097Y744103D01*
X846144Y744191D01*
X846194Y744277D01*
X846248Y744361D01*
X846305Y744443D01*
X846365Y744522D01*
X846429Y744600D01*
X846495Y744674D01*
X846564Y744746D01*
X846636Y744815D01*
X846710Y744881D01*
X846788Y744945D01*
X846867Y745005D01*
X846949Y745062D01*
X847033Y745116D01*
X847119Y745166D01*
X847207Y745213D01*
X847297Y745257D01*
X847388Y745297D01*
X847481Y745333D01*
X847575Y745366D01*
X847671Y745395D01*
X847767Y745420D01*
X847864Y745441D01*
X847963Y745459D01*
X848061Y745472D01*
X848161Y745482D01*
X848260Y745488D01*
X848360Y745490D01*
X845820Y730250D02*
X845822Y730150D01*
X845828Y730051D01*
X845838Y729951D01*
X845851Y729853D01*
X845869Y729754D01*
X845890Y729657D01*
X845915Y729561D01*
X845944Y729465D01*
X845977Y729371D01*
X846013Y729278D01*
X846053Y729187D01*
X846097Y729097D01*
X846144Y729009D01*
X846194Y728923D01*
X846248Y728839D01*
X846305Y728757D01*
X846365Y728678D01*
X846429Y728600D01*
X846495Y728526D01*
X846564Y728454D01*
X846636Y728385D01*
X846710Y728319D01*
X846788Y728255D01*
X846867Y728195D01*
X846949Y728138D01*
X847033Y728084D01*
X847119Y728034D01*
X847207Y727987D01*
X847297Y727943D01*
X847388Y727903D01*
X847481Y727867D01*
X847575Y727834D01*
X847671Y727805D01*
X847767Y727780D01*
X847864Y727759D01*
X847963Y727741D01*
X848061Y727728D01*
X848161Y727718D01*
X848260Y727712D01*
X848360Y727710D01*
X878840Y727710D02*
X878940Y727712D01*
X879039Y727718D01*
X879139Y727728D01*
X879237Y727741D01*
X879336Y727759D01*
X879433Y727780D01*
X879529Y727805D01*
X879625Y727834D01*
X879719Y727867D01*
X879812Y727903D01*
X879903Y727943D01*
X879993Y727987D01*
X880081Y728034D01*
X880167Y728084D01*
X880251Y728138D01*
X880333Y728195D01*
X880412Y728255D01*
X880490Y728319D01*
X880564Y728385D01*
X880636Y728454D01*
X880705Y728526D01*
X880771Y728600D01*
X880835Y728678D01*
X880895Y728757D01*
X880952Y728839D01*
X881006Y728923D01*
X881056Y729009D01*
X881103Y729097D01*
X881147Y729187D01*
X881187Y729278D01*
X881223Y729371D01*
X881256Y729465D01*
X881285Y729561D01*
X881310Y729657D01*
X881331Y729754D01*
X881349Y729853D01*
X881362Y729951D01*
X881372Y730051D01*
X881378Y730150D01*
X881380Y730250D01*
X881380Y742950D02*
X881378Y743050D01*
X881372Y743149D01*
X881362Y743249D01*
X881349Y743347D01*
X881331Y743446D01*
X881310Y743543D01*
X881285Y743639D01*
X881256Y743735D01*
X881223Y743829D01*
X881187Y743922D01*
X881147Y744013D01*
X881103Y744103D01*
X881056Y744191D01*
X881006Y744277D01*
X880952Y744361D01*
X880895Y744443D01*
X880835Y744522D01*
X880771Y744600D01*
X880705Y744674D01*
X880636Y744746D01*
X880564Y744815D01*
X880490Y744881D01*
X880412Y744945D01*
X880333Y745005D01*
X880251Y745062D01*
X880167Y745116D01*
X880081Y745166D01*
X879993Y745213D01*
X879903Y745257D01*
X879812Y745297D01*
X879719Y745333D01*
X879625Y745366D01*
X879529Y745395D01*
X879433Y745420D01*
X879336Y745441D01*
X879237Y745459D01*
X879139Y745472D01*
X879039Y745482D01*
X878940Y745488D01*
X878840Y745490D01*
X850900Y745490D02*
X848360Y745490D01*
X850900Y745490D02*
X852170Y744220D01*
X850900Y727710D02*
X848360Y727710D01*
X850900Y727710D02*
X852170Y728980D01*
X875030Y744220D02*
X876300Y745490D01*
X875030Y744220D02*
X852170Y744220D01*
X875030Y728980D02*
X876300Y727710D01*
X875030Y728980D02*
X852170Y728980D01*
X876300Y745490D02*
X878840Y745490D01*
X878840Y727710D02*
X876300Y727710D01*
D12*
X844042Y748792D02*
X844042Y757682D01*
X846511Y757682D01*
X846609Y757680D01*
X846707Y757674D01*
X846805Y757664D01*
X846902Y757651D01*
X846999Y757633D01*
X847095Y757612D01*
X847189Y757587D01*
X847283Y757558D01*
X847376Y757526D01*
X847467Y757489D01*
X847557Y757450D01*
X847645Y757406D01*
X847731Y757359D01*
X847816Y757309D01*
X847898Y757256D01*
X847978Y757199D01*
X848056Y757139D01*
X848131Y757076D01*
X848204Y757010D01*
X848274Y756941D01*
X848341Y756870D01*
X848406Y756796D01*
X848467Y756719D01*
X848526Y756640D01*
X848581Y756559D01*
X848633Y756476D01*
X848681Y756390D01*
X848726Y756303D01*
X848768Y756214D01*
X848806Y756124D01*
X848840Y756032D01*
X848871Y755939D01*
X848898Y755844D01*
X848921Y755749D01*
X848941Y755652D01*
X848956Y755556D01*
X848968Y755458D01*
X848976Y755360D01*
X848980Y755262D01*
X848980Y755164D01*
X848976Y755066D01*
X848968Y754968D01*
X848956Y754870D01*
X848941Y754774D01*
X848921Y754677D01*
X848898Y754582D01*
X848871Y754487D01*
X848840Y754394D01*
X848806Y754302D01*
X848768Y754212D01*
X848726Y754123D01*
X848681Y754036D01*
X848633Y753950D01*
X848581Y753867D01*
X848526Y753786D01*
X848467Y753707D01*
X848406Y753630D01*
X848341Y753556D01*
X848274Y753485D01*
X848204Y753416D01*
X848131Y753350D01*
X848056Y753287D01*
X847978Y753227D01*
X847898Y753170D01*
X847816Y753117D01*
X847731Y753067D01*
X847645Y753020D01*
X847557Y752976D01*
X847467Y752937D01*
X847376Y752900D01*
X847283Y752868D01*
X847189Y752839D01*
X847095Y752814D01*
X846999Y752793D01*
X846902Y752775D01*
X846805Y752762D01*
X846707Y752752D01*
X846609Y752746D01*
X846511Y752744D01*
X846511Y752743D02*
X844042Y752743D01*
X847005Y752743D02*
X848981Y748792D01*
X852892Y751261D02*
X852894Y751359D01*
X852900Y751457D01*
X852910Y751555D01*
X852923Y751652D01*
X852941Y751749D01*
X852962Y751845D01*
X852987Y751939D01*
X853016Y752033D01*
X853048Y752126D01*
X853085Y752217D01*
X853124Y752307D01*
X853168Y752395D01*
X853215Y752481D01*
X853265Y752566D01*
X853318Y752648D01*
X853375Y752728D01*
X853435Y752806D01*
X853498Y752881D01*
X853564Y752954D01*
X853633Y753024D01*
X853704Y753091D01*
X853778Y753156D01*
X853855Y753217D01*
X853934Y753276D01*
X854015Y753331D01*
X854098Y753383D01*
X854184Y753431D01*
X854271Y753476D01*
X854360Y753518D01*
X854450Y753556D01*
X854542Y753590D01*
X854635Y753621D01*
X854730Y753648D01*
X854825Y753671D01*
X854922Y753691D01*
X855018Y753706D01*
X855116Y753718D01*
X855214Y753726D01*
X855312Y753730D01*
X855410Y753730D01*
X855508Y753726D01*
X855606Y753718D01*
X855704Y753706D01*
X855800Y753691D01*
X855897Y753671D01*
X855992Y753648D01*
X856087Y753621D01*
X856180Y753590D01*
X856272Y753556D01*
X856362Y753518D01*
X856451Y753476D01*
X856538Y753431D01*
X856624Y753383D01*
X856707Y753331D01*
X856788Y753276D01*
X856867Y753217D01*
X856944Y753156D01*
X857018Y753091D01*
X857089Y753024D01*
X857158Y752954D01*
X857224Y752881D01*
X857287Y752806D01*
X857347Y752728D01*
X857404Y752648D01*
X857457Y752566D01*
X857507Y752481D01*
X857554Y752395D01*
X857598Y752307D01*
X857637Y752217D01*
X857674Y752126D01*
X857706Y752033D01*
X857735Y751939D01*
X857760Y751845D01*
X857781Y751749D01*
X857799Y751652D01*
X857812Y751555D01*
X857822Y751457D01*
X857828Y751359D01*
X857830Y751261D01*
X857828Y751163D01*
X857822Y751065D01*
X857812Y750967D01*
X857799Y750870D01*
X857781Y750773D01*
X857760Y750677D01*
X857735Y750583D01*
X857706Y750489D01*
X857674Y750396D01*
X857637Y750305D01*
X857598Y750215D01*
X857554Y750127D01*
X857507Y750041D01*
X857457Y749956D01*
X857404Y749874D01*
X857347Y749794D01*
X857287Y749716D01*
X857224Y749641D01*
X857158Y749568D01*
X857089Y749498D01*
X857018Y749431D01*
X856944Y749366D01*
X856867Y749305D01*
X856788Y749246D01*
X856707Y749191D01*
X856624Y749139D01*
X856538Y749091D01*
X856451Y749046D01*
X856362Y749004D01*
X856272Y748966D01*
X856180Y748932D01*
X856087Y748901D01*
X855992Y748874D01*
X855897Y748851D01*
X855800Y748831D01*
X855704Y748816D01*
X855606Y748804D01*
X855508Y748796D01*
X855410Y748792D01*
X855312Y748792D01*
X855214Y748796D01*
X855116Y748804D01*
X855018Y748816D01*
X854922Y748831D01*
X854825Y748851D01*
X854730Y748874D01*
X854635Y748901D01*
X854542Y748932D01*
X854450Y748966D01*
X854360Y749004D01*
X854271Y749046D01*
X854184Y749091D01*
X854098Y749139D01*
X854015Y749191D01*
X853934Y749246D01*
X853855Y749305D01*
X853778Y749366D01*
X853704Y749431D01*
X853633Y749498D01*
X853564Y749568D01*
X853498Y749641D01*
X853435Y749716D01*
X853375Y749794D01*
X853318Y749874D01*
X853265Y749956D01*
X853215Y750041D01*
X853168Y750127D01*
X853124Y750215D01*
X853085Y750305D01*
X853048Y750396D01*
X853016Y750489D01*
X852987Y750583D01*
X852962Y750677D01*
X852941Y750773D01*
X852923Y750870D01*
X852910Y750967D01*
X852900Y751065D01*
X852894Y751163D01*
X852892Y751261D01*
X853385Y755706D02*
X853387Y755793D01*
X853393Y755881D01*
X853402Y755968D01*
X853416Y756054D01*
X853433Y756140D01*
X853454Y756224D01*
X853479Y756308D01*
X853508Y756391D01*
X853540Y756472D01*
X853575Y756552D01*
X853614Y756630D01*
X853657Y756707D01*
X853703Y756781D01*
X853752Y756853D01*
X853804Y756923D01*
X853860Y756991D01*
X853918Y757056D01*
X853979Y757119D01*
X854043Y757178D01*
X854110Y757235D01*
X854178Y757289D01*
X854250Y757340D01*
X854323Y757387D01*
X854398Y757432D01*
X854476Y757473D01*
X854555Y757510D01*
X854635Y757544D01*
X854717Y757574D01*
X854800Y757601D01*
X854885Y757624D01*
X854970Y757643D01*
X855056Y757658D01*
X855143Y757670D01*
X855230Y757678D01*
X855317Y757682D01*
X855405Y757682D01*
X855492Y757678D01*
X855579Y757670D01*
X855666Y757658D01*
X855752Y757643D01*
X855837Y757624D01*
X855922Y757601D01*
X856005Y757574D01*
X856087Y757544D01*
X856167Y757510D01*
X856246Y757473D01*
X856324Y757432D01*
X856399Y757387D01*
X856472Y757340D01*
X856544Y757289D01*
X856612Y757235D01*
X856679Y757178D01*
X856743Y757119D01*
X856804Y757056D01*
X856862Y756991D01*
X856918Y756923D01*
X856970Y756853D01*
X857019Y756781D01*
X857065Y756707D01*
X857108Y756630D01*
X857147Y756552D01*
X857182Y756472D01*
X857214Y756391D01*
X857243Y756308D01*
X857268Y756224D01*
X857289Y756140D01*
X857306Y756054D01*
X857320Y755968D01*
X857329Y755881D01*
X857335Y755793D01*
X857337Y755706D01*
X857335Y755619D01*
X857329Y755531D01*
X857320Y755444D01*
X857306Y755358D01*
X857289Y755272D01*
X857268Y755188D01*
X857243Y755104D01*
X857214Y755021D01*
X857182Y754940D01*
X857147Y754860D01*
X857108Y754782D01*
X857065Y754705D01*
X857019Y754631D01*
X856970Y754559D01*
X856918Y754489D01*
X856862Y754421D01*
X856804Y754356D01*
X856743Y754293D01*
X856679Y754234D01*
X856612Y754177D01*
X856544Y754123D01*
X856472Y754072D01*
X856399Y754025D01*
X856324Y753980D01*
X856246Y753939D01*
X856167Y753902D01*
X856087Y753868D01*
X856005Y753838D01*
X855922Y753811D01*
X855837Y753788D01*
X855752Y753769D01*
X855666Y753754D01*
X855579Y753742D01*
X855492Y753734D01*
X855405Y753730D01*
X855317Y753730D01*
X855230Y753734D01*
X855143Y753742D01*
X855056Y753754D01*
X854970Y753769D01*
X854885Y753788D01*
X854800Y753811D01*
X854717Y753838D01*
X854635Y753868D01*
X854555Y753902D01*
X854476Y753939D01*
X854398Y753980D01*
X854323Y754025D01*
X854250Y754072D01*
X854178Y754123D01*
X854110Y754177D01*
X854043Y754234D01*
X853979Y754293D01*
X853918Y754356D01*
X853860Y754421D01*
X853804Y754489D01*
X853752Y754559D01*
X853703Y754631D01*
X853657Y754705D01*
X853614Y754782D01*
X853575Y754860D01*
X853540Y754940D01*
X853508Y755021D01*
X853479Y755104D01*
X853454Y755188D01*
X853433Y755272D01*
X853416Y755358D01*
X853402Y755444D01*
X853393Y755531D01*
X853387Y755619D01*
X853385Y755706D01*
D11*
X111760Y605790D02*
X111660Y605788D01*
X111561Y605782D01*
X111461Y605772D01*
X111363Y605759D01*
X111264Y605741D01*
X111167Y605720D01*
X111071Y605695D01*
X110975Y605666D01*
X110881Y605633D01*
X110788Y605597D01*
X110697Y605557D01*
X110607Y605513D01*
X110519Y605466D01*
X110433Y605416D01*
X110349Y605362D01*
X110267Y605305D01*
X110188Y605245D01*
X110110Y605181D01*
X110036Y605115D01*
X109964Y605046D01*
X109895Y604974D01*
X109829Y604900D01*
X109765Y604822D01*
X109705Y604743D01*
X109648Y604661D01*
X109594Y604577D01*
X109544Y604491D01*
X109497Y604403D01*
X109453Y604313D01*
X109413Y604222D01*
X109377Y604129D01*
X109344Y604035D01*
X109315Y603939D01*
X109290Y603843D01*
X109269Y603746D01*
X109251Y603647D01*
X109238Y603549D01*
X109228Y603449D01*
X109222Y603350D01*
X109220Y603250D01*
X109220Y590550D02*
X109222Y590450D01*
X109228Y590351D01*
X109238Y590251D01*
X109251Y590153D01*
X109269Y590054D01*
X109290Y589957D01*
X109315Y589861D01*
X109344Y589765D01*
X109377Y589671D01*
X109413Y589578D01*
X109453Y589487D01*
X109497Y589397D01*
X109544Y589309D01*
X109594Y589223D01*
X109648Y589139D01*
X109705Y589057D01*
X109765Y588978D01*
X109829Y588900D01*
X109895Y588826D01*
X109964Y588754D01*
X110036Y588685D01*
X110110Y588619D01*
X110188Y588555D01*
X110267Y588495D01*
X110349Y588438D01*
X110433Y588384D01*
X110519Y588334D01*
X110607Y588287D01*
X110697Y588243D01*
X110788Y588203D01*
X110881Y588167D01*
X110975Y588134D01*
X111071Y588105D01*
X111167Y588080D01*
X111264Y588059D01*
X111363Y588041D01*
X111461Y588028D01*
X111561Y588018D01*
X111660Y588012D01*
X111760Y588010D01*
X142240Y588010D02*
X142340Y588012D01*
X142439Y588018D01*
X142539Y588028D01*
X142637Y588041D01*
X142736Y588059D01*
X142833Y588080D01*
X142929Y588105D01*
X143025Y588134D01*
X143119Y588167D01*
X143212Y588203D01*
X143303Y588243D01*
X143393Y588287D01*
X143481Y588334D01*
X143567Y588384D01*
X143651Y588438D01*
X143733Y588495D01*
X143812Y588555D01*
X143890Y588619D01*
X143964Y588685D01*
X144036Y588754D01*
X144105Y588826D01*
X144171Y588900D01*
X144235Y588978D01*
X144295Y589057D01*
X144352Y589139D01*
X144406Y589223D01*
X144456Y589309D01*
X144503Y589397D01*
X144547Y589487D01*
X144587Y589578D01*
X144623Y589671D01*
X144656Y589765D01*
X144685Y589861D01*
X144710Y589957D01*
X144731Y590054D01*
X144749Y590153D01*
X144762Y590251D01*
X144772Y590351D01*
X144778Y590450D01*
X144780Y590550D01*
X144780Y603250D02*
X144778Y603350D01*
X144772Y603449D01*
X144762Y603549D01*
X144749Y603647D01*
X144731Y603746D01*
X144710Y603843D01*
X144685Y603939D01*
X144656Y604035D01*
X144623Y604129D01*
X144587Y604222D01*
X144547Y604313D01*
X144503Y604403D01*
X144456Y604491D01*
X144406Y604577D01*
X144352Y604661D01*
X144295Y604743D01*
X144235Y604822D01*
X144171Y604900D01*
X144105Y604974D01*
X144036Y605046D01*
X143964Y605115D01*
X143890Y605181D01*
X143812Y605245D01*
X143733Y605305D01*
X143651Y605362D01*
X143567Y605416D01*
X143481Y605466D01*
X143393Y605513D01*
X143303Y605557D01*
X143212Y605597D01*
X143119Y605633D01*
X143025Y605666D01*
X142929Y605695D01*
X142833Y605720D01*
X142736Y605741D01*
X142637Y605759D01*
X142539Y605772D01*
X142439Y605782D01*
X142340Y605788D01*
X142240Y605790D01*
X114300Y605790D02*
X111760Y605790D01*
X114300Y605790D02*
X115570Y604520D01*
X114300Y588010D02*
X111760Y588010D01*
X114300Y588010D02*
X115570Y589280D01*
X138430Y604520D02*
X139700Y605790D01*
X138430Y604520D02*
X115570Y604520D01*
X138430Y589280D02*
X139700Y588010D01*
X138430Y589280D02*
X115570Y589280D01*
X139700Y605790D02*
X142240Y605790D01*
X142240Y588010D02*
X139700Y588010D01*
D12*
X107442Y609092D02*
X107442Y617982D01*
X109911Y617982D01*
X110009Y617980D01*
X110107Y617974D01*
X110205Y617964D01*
X110302Y617951D01*
X110399Y617933D01*
X110495Y617912D01*
X110589Y617887D01*
X110683Y617858D01*
X110776Y617826D01*
X110867Y617789D01*
X110957Y617750D01*
X111045Y617706D01*
X111131Y617659D01*
X111216Y617609D01*
X111298Y617556D01*
X111378Y617499D01*
X111456Y617439D01*
X111531Y617376D01*
X111604Y617310D01*
X111674Y617241D01*
X111741Y617170D01*
X111806Y617096D01*
X111867Y617019D01*
X111926Y616940D01*
X111981Y616859D01*
X112033Y616776D01*
X112081Y616690D01*
X112126Y616603D01*
X112168Y616514D01*
X112206Y616424D01*
X112240Y616332D01*
X112271Y616239D01*
X112298Y616144D01*
X112321Y616049D01*
X112341Y615952D01*
X112356Y615856D01*
X112368Y615758D01*
X112376Y615660D01*
X112380Y615562D01*
X112380Y615464D01*
X112376Y615366D01*
X112368Y615268D01*
X112356Y615170D01*
X112341Y615074D01*
X112321Y614977D01*
X112298Y614882D01*
X112271Y614787D01*
X112240Y614694D01*
X112206Y614602D01*
X112168Y614512D01*
X112126Y614423D01*
X112081Y614336D01*
X112033Y614250D01*
X111981Y614167D01*
X111926Y614086D01*
X111867Y614007D01*
X111806Y613930D01*
X111741Y613856D01*
X111674Y613785D01*
X111604Y613716D01*
X111531Y613650D01*
X111456Y613587D01*
X111378Y613527D01*
X111298Y613470D01*
X111216Y613417D01*
X111131Y613367D01*
X111045Y613320D01*
X110957Y613276D01*
X110867Y613237D01*
X110776Y613200D01*
X110683Y613168D01*
X110589Y613139D01*
X110495Y613114D01*
X110399Y613093D01*
X110302Y613075D01*
X110205Y613062D01*
X110107Y613052D01*
X110009Y613046D01*
X109911Y613044D01*
X109911Y613043D02*
X107442Y613043D01*
X110405Y613043D02*
X112381Y609092D01*
X118267Y613043D02*
X121231Y613043D01*
X118267Y613043D02*
X118181Y613045D01*
X118095Y613051D01*
X118009Y613060D01*
X117924Y613073D01*
X117839Y613090D01*
X117756Y613110D01*
X117673Y613134D01*
X117591Y613162D01*
X117511Y613193D01*
X117432Y613228D01*
X117355Y613266D01*
X117279Y613308D01*
X117205Y613352D01*
X117134Y613400D01*
X117064Y613451D01*
X116997Y613505D01*
X116932Y613562D01*
X116870Y613622D01*
X116810Y613684D01*
X116753Y613749D01*
X116699Y613816D01*
X116648Y613886D01*
X116600Y613957D01*
X116556Y614031D01*
X116514Y614107D01*
X116476Y614184D01*
X116441Y614263D01*
X116410Y614343D01*
X116382Y614425D01*
X116358Y614508D01*
X116338Y614591D01*
X116321Y614676D01*
X116308Y614761D01*
X116299Y614847D01*
X116293Y614933D01*
X116291Y615019D01*
X116292Y615019D02*
X116292Y615513D01*
X116294Y615611D01*
X116300Y615709D01*
X116310Y615807D01*
X116323Y615904D01*
X116341Y616001D01*
X116362Y616097D01*
X116387Y616191D01*
X116416Y616285D01*
X116448Y616378D01*
X116485Y616469D01*
X116524Y616559D01*
X116568Y616647D01*
X116615Y616733D01*
X116665Y616818D01*
X116718Y616900D01*
X116775Y616980D01*
X116835Y617058D01*
X116898Y617133D01*
X116964Y617206D01*
X117033Y617276D01*
X117104Y617343D01*
X117178Y617408D01*
X117255Y617469D01*
X117334Y617528D01*
X117415Y617583D01*
X117498Y617635D01*
X117584Y617683D01*
X117671Y617728D01*
X117760Y617770D01*
X117850Y617808D01*
X117942Y617842D01*
X118035Y617873D01*
X118130Y617900D01*
X118225Y617923D01*
X118322Y617943D01*
X118418Y617958D01*
X118516Y617970D01*
X118614Y617978D01*
X118712Y617982D01*
X118810Y617982D01*
X118908Y617978D01*
X119006Y617970D01*
X119104Y617958D01*
X119200Y617943D01*
X119297Y617923D01*
X119392Y617900D01*
X119487Y617873D01*
X119580Y617842D01*
X119672Y617808D01*
X119762Y617770D01*
X119851Y617728D01*
X119938Y617683D01*
X120024Y617635D01*
X120107Y617583D01*
X120188Y617528D01*
X120267Y617469D01*
X120344Y617408D01*
X120418Y617343D01*
X120489Y617276D01*
X120558Y617206D01*
X120624Y617133D01*
X120687Y617058D01*
X120747Y616980D01*
X120804Y616900D01*
X120857Y616818D01*
X120907Y616733D01*
X120954Y616647D01*
X120998Y616559D01*
X121037Y616469D01*
X121074Y616378D01*
X121106Y616285D01*
X121135Y616191D01*
X121160Y616097D01*
X121181Y616001D01*
X121199Y615904D01*
X121212Y615807D01*
X121222Y615709D01*
X121228Y615611D01*
X121230Y615513D01*
X121231Y615513D02*
X121231Y613043D01*
X121229Y612919D01*
X121223Y612795D01*
X121213Y612671D01*
X121200Y612548D01*
X121182Y612425D01*
X121161Y612303D01*
X121136Y612181D01*
X121107Y612060D01*
X121074Y611941D01*
X121038Y611822D01*
X120997Y611705D01*
X120954Y611589D01*
X120906Y611474D01*
X120855Y611361D01*
X120800Y611249D01*
X120742Y611140D01*
X120681Y611032D01*
X120616Y610926D01*
X120548Y610822D01*
X120476Y610721D01*
X120402Y610621D01*
X120324Y610525D01*
X120244Y610430D01*
X120160Y610338D01*
X120074Y610249D01*
X119985Y610163D01*
X119893Y610079D01*
X119798Y609999D01*
X119702Y609921D01*
X119602Y609847D01*
X119501Y609775D01*
X119397Y609707D01*
X119291Y609642D01*
X119183Y609581D01*
X119074Y609523D01*
X118962Y609468D01*
X118849Y609417D01*
X118734Y609369D01*
X118618Y609326D01*
X118501Y609285D01*
X118382Y609249D01*
X118263Y609216D01*
X118142Y609187D01*
X118020Y609162D01*
X117898Y609141D01*
X117775Y609123D01*
X117652Y609110D01*
X117528Y609100D01*
X117404Y609094D01*
X117280Y609092D01*
D11*
X845820Y577850D02*
X845822Y577950D01*
X845828Y578049D01*
X845838Y578149D01*
X845851Y578247D01*
X845869Y578346D01*
X845890Y578443D01*
X845915Y578539D01*
X845944Y578635D01*
X845977Y578729D01*
X846013Y578822D01*
X846053Y578913D01*
X846097Y579003D01*
X846144Y579091D01*
X846194Y579177D01*
X846248Y579261D01*
X846305Y579343D01*
X846365Y579422D01*
X846429Y579500D01*
X846495Y579574D01*
X846564Y579646D01*
X846636Y579715D01*
X846710Y579781D01*
X846788Y579845D01*
X846867Y579905D01*
X846949Y579962D01*
X847033Y580016D01*
X847119Y580066D01*
X847207Y580113D01*
X847297Y580157D01*
X847388Y580197D01*
X847481Y580233D01*
X847575Y580266D01*
X847671Y580295D01*
X847767Y580320D01*
X847864Y580341D01*
X847963Y580359D01*
X848061Y580372D01*
X848161Y580382D01*
X848260Y580388D01*
X848360Y580390D01*
X845820Y565150D02*
X845822Y565050D01*
X845828Y564951D01*
X845838Y564851D01*
X845851Y564753D01*
X845869Y564654D01*
X845890Y564557D01*
X845915Y564461D01*
X845944Y564365D01*
X845977Y564271D01*
X846013Y564178D01*
X846053Y564087D01*
X846097Y563997D01*
X846144Y563909D01*
X846194Y563823D01*
X846248Y563739D01*
X846305Y563657D01*
X846365Y563578D01*
X846429Y563500D01*
X846495Y563426D01*
X846564Y563354D01*
X846636Y563285D01*
X846710Y563219D01*
X846788Y563155D01*
X846867Y563095D01*
X846949Y563038D01*
X847033Y562984D01*
X847119Y562934D01*
X847207Y562887D01*
X847297Y562843D01*
X847388Y562803D01*
X847481Y562767D01*
X847575Y562734D01*
X847671Y562705D01*
X847767Y562680D01*
X847864Y562659D01*
X847963Y562641D01*
X848061Y562628D01*
X848161Y562618D01*
X848260Y562612D01*
X848360Y562610D01*
X878840Y562610D02*
X878940Y562612D01*
X879039Y562618D01*
X879139Y562628D01*
X879237Y562641D01*
X879336Y562659D01*
X879433Y562680D01*
X879529Y562705D01*
X879625Y562734D01*
X879719Y562767D01*
X879812Y562803D01*
X879903Y562843D01*
X879993Y562887D01*
X880081Y562934D01*
X880167Y562984D01*
X880251Y563038D01*
X880333Y563095D01*
X880412Y563155D01*
X880490Y563219D01*
X880564Y563285D01*
X880636Y563354D01*
X880705Y563426D01*
X880771Y563500D01*
X880835Y563578D01*
X880895Y563657D01*
X880952Y563739D01*
X881006Y563823D01*
X881056Y563909D01*
X881103Y563997D01*
X881147Y564087D01*
X881187Y564178D01*
X881223Y564271D01*
X881256Y564365D01*
X881285Y564461D01*
X881310Y564557D01*
X881331Y564654D01*
X881349Y564753D01*
X881362Y564851D01*
X881372Y564951D01*
X881378Y565050D01*
X881380Y565150D01*
X881380Y577850D02*
X881378Y577950D01*
X881372Y578049D01*
X881362Y578149D01*
X881349Y578247D01*
X881331Y578346D01*
X881310Y578443D01*
X881285Y578539D01*
X881256Y578635D01*
X881223Y578729D01*
X881187Y578822D01*
X881147Y578913D01*
X881103Y579003D01*
X881056Y579091D01*
X881006Y579177D01*
X880952Y579261D01*
X880895Y579343D01*
X880835Y579422D01*
X880771Y579500D01*
X880705Y579574D01*
X880636Y579646D01*
X880564Y579715D01*
X880490Y579781D01*
X880412Y579845D01*
X880333Y579905D01*
X880251Y579962D01*
X880167Y580016D01*
X880081Y580066D01*
X879993Y580113D01*
X879903Y580157D01*
X879812Y580197D01*
X879719Y580233D01*
X879625Y580266D01*
X879529Y580295D01*
X879433Y580320D01*
X879336Y580341D01*
X879237Y580359D01*
X879139Y580372D01*
X879039Y580382D01*
X878940Y580388D01*
X878840Y580390D01*
X850900Y580390D02*
X848360Y580390D01*
X850900Y580390D02*
X852170Y579120D01*
X850900Y562610D02*
X848360Y562610D01*
X850900Y562610D02*
X852170Y563880D01*
X875030Y579120D02*
X876300Y580390D01*
X875030Y579120D02*
X852170Y579120D01*
X875030Y563880D02*
X876300Y562610D01*
X875030Y563880D02*
X852170Y563880D01*
X876300Y580390D02*
X878840Y580390D01*
X878840Y562610D02*
X876300Y562610D01*
D12*
X844042Y583692D02*
X844042Y592582D01*
X846511Y592582D01*
X846609Y592580D01*
X846707Y592574D01*
X846805Y592564D01*
X846902Y592551D01*
X846999Y592533D01*
X847095Y592512D01*
X847189Y592487D01*
X847283Y592458D01*
X847376Y592426D01*
X847467Y592389D01*
X847557Y592350D01*
X847645Y592306D01*
X847731Y592259D01*
X847816Y592209D01*
X847898Y592156D01*
X847978Y592099D01*
X848056Y592039D01*
X848131Y591976D01*
X848204Y591910D01*
X848274Y591841D01*
X848341Y591770D01*
X848406Y591696D01*
X848467Y591619D01*
X848526Y591540D01*
X848581Y591459D01*
X848633Y591376D01*
X848681Y591290D01*
X848726Y591203D01*
X848768Y591114D01*
X848806Y591024D01*
X848840Y590932D01*
X848871Y590839D01*
X848898Y590744D01*
X848921Y590649D01*
X848941Y590552D01*
X848956Y590456D01*
X848968Y590358D01*
X848976Y590260D01*
X848980Y590162D01*
X848980Y590064D01*
X848976Y589966D01*
X848968Y589868D01*
X848956Y589770D01*
X848941Y589674D01*
X848921Y589577D01*
X848898Y589482D01*
X848871Y589387D01*
X848840Y589294D01*
X848806Y589202D01*
X848768Y589112D01*
X848726Y589023D01*
X848681Y588936D01*
X848633Y588850D01*
X848581Y588767D01*
X848526Y588686D01*
X848467Y588607D01*
X848406Y588530D01*
X848341Y588456D01*
X848274Y588385D01*
X848204Y588316D01*
X848131Y588250D01*
X848056Y588187D01*
X847978Y588127D01*
X847898Y588070D01*
X847816Y588017D01*
X847731Y587967D01*
X847645Y587920D01*
X847557Y587876D01*
X847467Y587837D01*
X847376Y587800D01*
X847283Y587768D01*
X847189Y587739D01*
X847095Y587714D01*
X846999Y587693D01*
X846902Y587675D01*
X846805Y587662D01*
X846707Y587652D01*
X846609Y587646D01*
X846511Y587644D01*
X846511Y587643D02*
X844042Y587643D01*
X847005Y587643D02*
X848981Y583692D01*
X852892Y590606D02*
X855361Y592582D01*
X855361Y583692D01*
X852892Y583692D02*
X857831Y583692D01*
X861807Y588137D02*
X861809Y588312D01*
X861815Y588487D01*
X861826Y588661D01*
X861840Y588836D01*
X861859Y589009D01*
X861882Y589183D01*
X861909Y589356D01*
X861940Y589528D01*
X861975Y589699D01*
X862015Y589869D01*
X862058Y590039D01*
X862106Y590207D01*
X862157Y590374D01*
X862212Y590540D01*
X862272Y590705D01*
X862335Y590868D01*
X862402Y591029D01*
X862473Y591189D01*
X862548Y591347D01*
X862549Y591348D02*
X862578Y591426D01*
X862610Y591504D01*
X862647Y591579D01*
X862686Y591653D01*
X862729Y591725D01*
X862775Y591796D01*
X862825Y591863D01*
X862877Y591929D01*
X862932Y591992D01*
X862991Y592052D01*
X863052Y592110D01*
X863115Y592165D01*
X863181Y592217D01*
X863250Y592266D01*
X863320Y592311D01*
X863392Y592354D01*
X863467Y592393D01*
X863543Y592428D01*
X863620Y592460D01*
X863699Y592488D01*
X863780Y592513D01*
X863861Y592534D01*
X863943Y592551D01*
X864026Y592565D01*
X864109Y592574D01*
X864193Y592580D01*
X864277Y592582D01*
X864361Y592580D01*
X864445Y592574D01*
X864528Y592565D01*
X864611Y592551D01*
X864693Y592534D01*
X864774Y592513D01*
X864855Y592488D01*
X864934Y592460D01*
X865011Y592428D01*
X865087Y592393D01*
X865162Y592354D01*
X865234Y592311D01*
X865305Y592266D01*
X865373Y592217D01*
X865439Y592165D01*
X865502Y592110D01*
X865563Y592052D01*
X865622Y591992D01*
X865677Y591929D01*
X865729Y591863D01*
X865779Y591796D01*
X865825Y591725D01*
X865868Y591653D01*
X865907Y591579D01*
X865944Y591504D01*
X865976Y591426D01*
X866005Y591347D01*
X866080Y591189D01*
X866151Y591029D01*
X866218Y590868D01*
X866281Y590705D01*
X866341Y590540D01*
X866396Y590374D01*
X866447Y590207D01*
X866495Y590039D01*
X866538Y589869D01*
X866578Y589699D01*
X866613Y589528D01*
X866644Y589356D01*
X866671Y589183D01*
X866694Y589009D01*
X866713Y588836D01*
X866727Y588661D01*
X866738Y588487D01*
X866744Y588312D01*
X866746Y588137D01*
X861808Y588137D02*
X861810Y587962D01*
X861816Y587787D01*
X861827Y587613D01*
X861841Y587438D01*
X861860Y587265D01*
X861883Y587091D01*
X861910Y586918D01*
X861941Y586746D01*
X861976Y586575D01*
X862016Y586405D01*
X862059Y586235D01*
X862107Y586067D01*
X862158Y585900D01*
X862213Y585734D01*
X862273Y585569D01*
X862336Y585406D01*
X862403Y585245D01*
X862474Y585085D01*
X862549Y584927D01*
X862549Y584926D02*
X862578Y584848D01*
X862610Y584770D01*
X862647Y584695D01*
X862686Y584621D01*
X862729Y584548D01*
X862775Y584478D01*
X862825Y584411D01*
X862877Y584345D01*
X862933Y584282D01*
X862991Y584222D01*
X863052Y584164D01*
X863115Y584109D01*
X863181Y584057D01*
X863250Y584008D01*
X863320Y583963D01*
X863392Y583920D01*
X863467Y583881D01*
X863543Y583846D01*
X863620Y583814D01*
X863699Y583786D01*
X863780Y583761D01*
X863861Y583740D01*
X863943Y583723D01*
X864026Y583709D01*
X864109Y583700D01*
X864193Y583694D01*
X864277Y583692D01*
X866005Y584927D02*
X866080Y585085D01*
X866151Y585245D01*
X866218Y585406D01*
X866281Y585569D01*
X866341Y585734D01*
X866396Y585900D01*
X866447Y586067D01*
X866495Y586235D01*
X866538Y586405D01*
X866578Y586575D01*
X866613Y586746D01*
X866644Y586918D01*
X866671Y587091D01*
X866694Y587265D01*
X866713Y587438D01*
X866727Y587613D01*
X866738Y587787D01*
X866744Y587962D01*
X866746Y588137D01*
X866005Y584926D02*
X865976Y584848D01*
X865944Y584770D01*
X865907Y584695D01*
X865868Y584621D01*
X865825Y584549D01*
X865779Y584478D01*
X865729Y584411D01*
X865677Y584345D01*
X865622Y584282D01*
X865563Y584222D01*
X865502Y584164D01*
X865439Y584109D01*
X865373Y584057D01*
X865305Y584008D01*
X865234Y583963D01*
X865162Y583920D01*
X865087Y583881D01*
X865011Y583846D01*
X864934Y583814D01*
X864855Y583786D01*
X864774Y583761D01*
X864693Y583740D01*
X864611Y583723D01*
X864528Y583709D01*
X864445Y583700D01*
X864361Y583694D01*
X864277Y583692D01*
X862301Y585668D02*
X866252Y590606D01*
D11*
X848360Y516890D02*
X848260Y516888D01*
X848161Y516882D01*
X848061Y516872D01*
X847963Y516859D01*
X847864Y516841D01*
X847767Y516820D01*
X847671Y516795D01*
X847575Y516766D01*
X847481Y516733D01*
X847388Y516697D01*
X847297Y516657D01*
X847207Y516613D01*
X847119Y516566D01*
X847033Y516516D01*
X846949Y516462D01*
X846867Y516405D01*
X846788Y516345D01*
X846710Y516281D01*
X846636Y516215D01*
X846564Y516146D01*
X846495Y516074D01*
X846429Y516000D01*
X846365Y515922D01*
X846305Y515843D01*
X846248Y515761D01*
X846194Y515677D01*
X846144Y515591D01*
X846097Y515503D01*
X846053Y515413D01*
X846013Y515322D01*
X845977Y515229D01*
X845944Y515135D01*
X845915Y515039D01*
X845890Y514943D01*
X845869Y514846D01*
X845851Y514747D01*
X845838Y514649D01*
X845828Y514549D01*
X845822Y514450D01*
X845820Y514350D01*
X845820Y501650D02*
X845822Y501550D01*
X845828Y501451D01*
X845838Y501351D01*
X845851Y501253D01*
X845869Y501154D01*
X845890Y501057D01*
X845915Y500961D01*
X845944Y500865D01*
X845977Y500771D01*
X846013Y500678D01*
X846053Y500587D01*
X846097Y500497D01*
X846144Y500409D01*
X846194Y500323D01*
X846248Y500239D01*
X846305Y500157D01*
X846365Y500078D01*
X846429Y500000D01*
X846495Y499926D01*
X846564Y499854D01*
X846636Y499785D01*
X846710Y499719D01*
X846788Y499655D01*
X846867Y499595D01*
X846949Y499538D01*
X847033Y499484D01*
X847119Y499434D01*
X847207Y499387D01*
X847297Y499343D01*
X847388Y499303D01*
X847481Y499267D01*
X847575Y499234D01*
X847671Y499205D01*
X847767Y499180D01*
X847864Y499159D01*
X847963Y499141D01*
X848061Y499128D01*
X848161Y499118D01*
X848260Y499112D01*
X848360Y499110D01*
X878840Y499110D02*
X878940Y499112D01*
X879039Y499118D01*
X879139Y499128D01*
X879237Y499141D01*
X879336Y499159D01*
X879433Y499180D01*
X879529Y499205D01*
X879625Y499234D01*
X879719Y499267D01*
X879812Y499303D01*
X879903Y499343D01*
X879993Y499387D01*
X880081Y499434D01*
X880167Y499484D01*
X880251Y499538D01*
X880333Y499595D01*
X880412Y499655D01*
X880490Y499719D01*
X880564Y499785D01*
X880636Y499854D01*
X880705Y499926D01*
X880771Y500000D01*
X880835Y500078D01*
X880895Y500157D01*
X880952Y500239D01*
X881006Y500323D01*
X881056Y500409D01*
X881103Y500497D01*
X881147Y500587D01*
X881187Y500678D01*
X881223Y500771D01*
X881256Y500865D01*
X881285Y500961D01*
X881310Y501057D01*
X881331Y501154D01*
X881349Y501253D01*
X881362Y501351D01*
X881372Y501451D01*
X881378Y501550D01*
X881380Y501650D01*
X881380Y514350D02*
X881378Y514450D01*
X881372Y514549D01*
X881362Y514649D01*
X881349Y514747D01*
X881331Y514846D01*
X881310Y514943D01*
X881285Y515039D01*
X881256Y515135D01*
X881223Y515229D01*
X881187Y515322D01*
X881147Y515413D01*
X881103Y515503D01*
X881056Y515591D01*
X881006Y515677D01*
X880952Y515761D01*
X880895Y515843D01*
X880835Y515922D01*
X880771Y516000D01*
X880705Y516074D01*
X880636Y516146D01*
X880564Y516215D01*
X880490Y516281D01*
X880412Y516345D01*
X880333Y516405D01*
X880251Y516462D01*
X880167Y516516D01*
X880081Y516566D01*
X879993Y516613D01*
X879903Y516657D01*
X879812Y516697D01*
X879719Y516733D01*
X879625Y516766D01*
X879529Y516795D01*
X879433Y516820D01*
X879336Y516841D01*
X879237Y516859D01*
X879139Y516872D01*
X879039Y516882D01*
X878940Y516888D01*
X878840Y516890D01*
X850900Y516890D02*
X848360Y516890D01*
X850900Y516890D02*
X852170Y515620D01*
X850900Y499110D02*
X848360Y499110D01*
X850900Y499110D02*
X852170Y500380D01*
X875030Y515620D02*
X876300Y516890D01*
X875030Y515620D02*
X852170Y515620D01*
X875030Y500380D02*
X876300Y499110D01*
X875030Y500380D02*
X852170Y500380D01*
X876300Y516890D02*
X878840Y516890D01*
X878840Y499110D02*
X876300Y499110D01*
D12*
X844042Y520192D02*
X844042Y529082D01*
X846511Y529082D01*
X846609Y529080D01*
X846707Y529074D01*
X846805Y529064D01*
X846902Y529051D01*
X846999Y529033D01*
X847095Y529012D01*
X847189Y528987D01*
X847283Y528958D01*
X847376Y528926D01*
X847467Y528889D01*
X847557Y528850D01*
X847645Y528806D01*
X847731Y528759D01*
X847816Y528709D01*
X847898Y528656D01*
X847978Y528599D01*
X848056Y528539D01*
X848131Y528476D01*
X848204Y528410D01*
X848274Y528341D01*
X848341Y528270D01*
X848406Y528196D01*
X848467Y528119D01*
X848526Y528040D01*
X848581Y527959D01*
X848633Y527876D01*
X848681Y527790D01*
X848726Y527703D01*
X848768Y527614D01*
X848806Y527524D01*
X848840Y527432D01*
X848871Y527339D01*
X848898Y527244D01*
X848921Y527149D01*
X848941Y527052D01*
X848956Y526956D01*
X848968Y526858D01*
X848976Y526760D01*
X848980Y526662D01*
X848980Y526564D01*
X848976Y526466D01*
X848968Y526368D01*
X848956Y526270D01*
X848941Y526174D01*
X848921Y526077D01*
X848898Y525982D01*
X848871Y525887D01*
X848840Y525794D01*
X848806Y525702D01*
X848768Y525612D01*
X848726Y525523D01*
X848681Y525436D01*
X848633Y525350D01*
X848581Y525267D01*
X848526Y525186D01*
X848467Y525107D01*
X848406Y525030D01*
X848341Y524956D01*
X848274Y524885D01*
X848204Y524816D01*
X848131Y524750D01*
X848056Y524687D01*
X847978Y524627D01*
X847898Y524570D01*
X847816Y524517D01*
X847731Y524467D01*
X847645Y524420D01*
X847557Y524376D01*
X847467Y524337D01*
X847376Y524300D01*
X847283Y524268D01*
X847189Y524239D01*
X847095Y524214D01*
X846999Y524193D01*
X846902Y524175D01*
X846805Y524162D01*
X846707Y524152D01*
X846609Y524146D01*
X846511Y524144D01*
X846511Y524143D02*
X844042Y524143D01*
X847005Y524143D02*
X848981Y520192D01*
X852892Y527106D02*
X855361Y529082D01*
X855361Y520192D01*
X852892Y520192D02*
X857831Y520192D01*
D11*
X845820Y679450D02*
X845822Y679550D01*
X845828Y679649D01*
X845838Y679749D01*
X845851Y679847D01*
X845869Y679946D01*
X845890Y680043D01*
X845915Y680139D01*
X845944Y680235D01*
X845977Y680329D01*
X846013Y680422D01*
X846053Y680513D01*
X846097Y680603D01*
X846144Y680691D01*
X846194Y680777D01*
X846248Y680861D01*
X846305Y680943D01*
X846365Y681022D01*
X846429Y681100D01*
X846495Y681174D01*
X846564Y681246D01*
X846636Y681315D01*
X846710Y681381D01*
X846788Y681445D01*
X846867Y681505D01*
X846949Y681562D01*
X847033Y681616D01*
X847119Y681666D01*
X847207Y681713D01*
X847297Y681757D01*
X847388Y681797D01*
X847481Y681833D01*
X847575Y681866D01*
X847671Y681895D01*
X847767Y681920D01*
X847864Y681941D01*
X847963Y681959D01*
X848061Y681972D01*
X848161Y681982D01*
X848260Y681988D01*
X848360Y681990D01*
X845820Y666750D02*
X845822Y666650D01*
X845828Y666551D01*
X845838Y666451D01*
X845851Y666353D01*
X845869Y666254D01*
X845890Y666157D01*
X845915Y666061D01*
X845944Y665965D01*
X845977Y665871D01*
X846013Y665778D01*
X846053Y665687D01*
X846097Y665597D01*
X846144Y665509D01*
X846194Y665423D01*
X846248Y665339D01*
X846305Y665257D01*
X846365Y665178D01*
X846429Y665100D01*
X846495Y665026D01*
X846564Y664954D01*
X846636Y664885D01*
X846710Y664819D01*
X846788Y664755D01*
X846867Y664695D01*
X846949Y664638D01*
X847033Y664584D01*
X847119Y664534D01*
X847207Y664487D01*
X847297Y664443D01*
X847388Y664403D01*
X847481Y664367D01*
X847575Y664334D01*
X847671Y664305D01*
X847767Y664280D01*
X847864Y664259D01*
X847963Y664241D01*
X848061Y664228D01*
X848161Y664218D01*
X848260Y664212D01*
X848360Y664210D01*
X878840Y664210D02*
X878940Y664212D01*
X879039Y664218D01*
X879139Y664228D01*
X879237Y664241D01*
X879336Y664259D01*
X879433Y664280D01*
X879529Y664305D01*
X879625Y664334D01*
X879719Y664367D01*
X879812Y664403D01*
X879903Y664443D01*
X879993Y664487D01*
X880081Y664534D01*
X880167Y664584D01*
X880251Y664638D01*
X880333Y664695D01*
X880412Y664755D01*
X880490Y664819D01*
X880564Y664885D01*
X880636Y664954D01*
X880705Y665026D01*
X880771Y665100D01*
X880835Y665178D01*
X880895Y665257D01*
X880952Y665339D01*
X881006Y665423D01*
X881056Y665509D01*
X881103Y665597D01*
X881147Y665687D01*
X881187Y665778D01*
X881223Y665871D01*
X881256Y665965D01*
X881285Y666061D01*
X881310Y666157D01*
X881331Y666254D01*
X881349Y666353D01*
X881362Y666451D01*
X881372Y666551D01*
X881378Y666650D01*
X881380Y666750D01*
X881380Y679450D02*
X881378Y679550D01*
X881372Y679649D01*
X881362Y679749D01*
X881349Y679847D01*
X881331Y679946D01*
X881310Y680043D01*
X881285Y680139D01*
X881256Y680235D01*
X881223Y680329D01*
X881187Y680422D01*
X881147Y680513D01*
X881103Y680603D01*
X881056Y680691D01*
X881006Y680777D01*
X880952Y680861D01*
X880895Y680943D01*
X880835Y681022D01*
X880771Y681100D01*
X880705Y681174D01*
X880636Y681246D01*
X880564Y681315D01*
X880490Y681381D01*
X880412Y681445D01*
X880333Y681505D01*
X880251Y681562D01*
X880167Y681616D01*
X880081Y681666D01*
X879993Y681713D01*
X879903Y681757D01*
X879812Y681797D01*
X879719Y681833D01*
X879625Y681866D01*
X879529Y681895D01*
X879433Y681920D01*
X879336Y681941D01*
X879237Y681959D01*
X879139Y681972D01*
X879039Y681982D01*
X878940Y681988D01*
X878840Y681990D01*
X850900Y681990D02*
X848360Y681990D01*
X850900Y681990D02*
X852170Y680720D01*
X850900Y664210D02*
X848360Y664210D01*
X850900Y664210D02*
X852170Y665480D01*
X875030Y680720D02*
X876300Y681990D01*
X875030Y680720D02*
X852170Y680720D01*
X875030Y665480D02*
X876300Y664210D01*
X875030Y665480D02*
X852170Y665480D01*
X876300Y681990D02*
X878840Y681990D01*
X878840Y664210D02*
X876300Y664210D01*
D12*
X844042Y685292D02*
X844042Y694182D01*
X846511Y694182D01*
X846609Y694180D01*
X846707Y694174D01*
X846805Y694164D01*
X846902Y694151D01*
X846999Y694133D01*
X847095Y694112D01*
X847189Y694087D01*
X847283Y694058D01*
X847376Y694026D01*
X847467Y693989D01*
X847557Y693950D01*
X847645Y693906D01*
X847731Y693859D01*
X847816Y693809D01*
X847898Y693756D01*
X847978Y693699D01*
X848056Y693639D01*
X848131Y693576D01*
X848204Y693510D01*
X848274Y693441D01*
X848341Y693370D01*
X848406Y693296D01*
X848467Y693219D01*
X848526Y693140D01*
X848581Y693059D01*
X848633Y692976D01*
X848681Y692890D01*
X848726Y692803D01*
X848768Y692714D01*
X848806Y692624D01*
X848840Y692532D01*
X848871Y692439D01*
X848898Y692344D01*
X848921Y692249D01*
X848941Y692152D01*
X848956Y692056D01*
X848968Y691958D01*
X848976Y691860D01*
X848980Y691762D01*
X848980Y691664D01*
X848976Y691566D01*
X848968Y691468D01*
X848956Y691370D01*
X848941Y691274D01*
X848921Y691177D01*
X848898Y691082D01*
X848871Y690987D01*
X848840Y690894D01*
X848806Y690802D01*
X848768Y690712D01*
X848726Y690623D01*
X848681Y690536D01*
X848633Y690450D01*
X848581Y690367D01*
X848526Y690286D01*
X848467Y690207D01*
X848406Y690130D01*
X848341Y690056D01*
X848274Y689985D01*
X848204Y689916D01*
X848131Y689850D01*
X848056Y689787D01*
X847978Y689727D01*
X847898Y689670D01*
X847816Y689617D01*
X847731Y689567D01*
X847645Y689520D01*
X847557Y689476D01*
X847467Y689437D01*
X847376Y689400D01*
X847283Y689368D01*
X847189Y689339D01*
X847095Y689314D01*
X846999Y689293D01*
X846902Y689275D01*
X846805Y689262D01*
X846707Y689252D01*
X846609Y689246D01*
X846511Y689244D01*
X846511Y689243D02*
X844042Y689243D01*
X847005Y689243D02*
X848981Y685292D01*
X857831Y691960D02*
X857829Y692052D01*
X857823Y692144D01*
X857814Y692235D01*
X857801Y692326D01*
X857784Y692416D01*
X857763Y692506D01*
X857739Y692594D01*
X857711Y692682D01*
X857679Y692768D01*
X857644Y692853D01*
X857605Y692936D01*
X857563Y693018D01*
X857518Y693098D01*
X857469Y693176D01*
X857417Y693252D01*
X857362Y693325D01*
X857304Y693397D01*
X857244Y693466D01*
X857180Y693532D01*
X857114Y693596D01*
X857045Y693656D01*
X856973Y693714D01*
X856900Y693769D01*
X856824Y693821D01*
X856746Y693870D01*
X856666Y693915D01*
X856584Y693957D01*
X856501Y693996D01*
X856416Y694031D01*
X856330Y694063D01*
X856242Y694091D01*
X856154Y694115D01*
X856064Y694136D01*
X855974Y694153D01*
X855883Y694166D01*
X855792Y694175D01*
X855700Y694181D01*
X855608Y694183D01*
X855608Y694182D02*
X855502Y694180D01*
X855397Y694174D01*
X855292Y694164D01*
X855187Y694151D01*
X855083Y694133D01*
X854980Y694112D01*
X854877Y694087D01*
X854775Y694058D01*
X854675Y694025D01*
X854576Y693989D01*
X854478Y693949D01*
X854382Y693905D01*
X854287Y693858D01*
X854195Y693808D01*
X854104Y693754D01*
X854015Y693696D01*
X853929Y693636D01*
X853845Y693572D01*
X853763Y693506D01*
X853683Y693436D01*
X853607Y693363D01*
X853533Y693288D01*
X853462Y693210D01*
X853394Y693129D01*
X853328Y693046D01*
X853266Y692960D01*
X853208Y692873D01*
X853152Y692783D01*
X853100Y692691D01*
X853051Y692597D01*
X853006Y692502D01*
X852964Y692405D01*
X852926Y692306D01*
X852892Y692207D01*
X857090Y690231D02*
X857159Y690300D01*
X857225Y690370D01*
X857288Y690444D01*
X857347Y690520D01*
X857404Y690598D01*
X857458Y690678D01*
X857508Y690761D01*
X857555Y690845D01*
X857598Y690932D01*
X857638Y691020D01*
X857674Y691109D01*
X857707Y691200D01*
X857736Y691292D01*
X857761Y691386D01*
X857782Y691480D01*
X857800Y691575D01*
X857813Y691671D01*
X857823Y691767D01*
X857829Y691863D01*
X857831Y691960D01*
X857090Y690231D02*
X852892Y685292D01*
X857831Y685292D01*
D11*
X111760Y554990D02*
X111660Y554988D01*
X111561Y554982D01*
X111461Y554972D01*
X111363Y554959D01*
X111264Y554941D01*
X111167Y554920D01*
X111071Y554895D01*
X110975Y554866D01*
X110881Y554833D01*
X110788Y554797D01*
X110697Y554757D01*
X110607Y554713D01*
X110519Y554666D01*
X110433Y554616D01*
X110349Y554562D01*
X110267Y554505D01*
X110188Y554445D01*
X110110Y554381D01*
X110036Y554315D01*
X109964Y554246D01*
X109895Y554174D01*
X109829Y554100D01*
X109765Y554022D01*
X109705Y553943D01*
X109648Y553861D01*
X109594Y553777D01*
X109544Y553691D01*
X109497Y553603D01*
X109453Y553513D01*
X109413Y553422D01*
X109377Y553329D01*
X109344Y553235D01*
X109315Y553139D01*
X109290Y553043D01*
X109269Y552946D01*
X109251Y552847D01*
X109238Y552749D01*
X109228Y552649D01*
X109222Y552550D01*
X109220Y552450D01*
X109220Y539750D02*
X109222Y539650D01*
X109228Y539551D01*
X109238Y539451D01*
X109251Y539353D01*
X109269Y539254D01*
X109290Y539157D01*
X109315Y539061D01*
X109344Y538965D01*
X109377Y538871D01*
X109413Y538778D01*
X109453Y538687D01*
X109497Y538597D01*
X109544Y538509D01*
X109594Y538423D01*
X109648Y538339D01*
X109705Y538257D01*
X109765Y538178D01*
X109829Y538100D01*
X109895Y538026D01*
X109964Y537954D01*
X110036Y537885D01*
X110110Y537819D01*
X110188Y537755D01*
X110267Y537695D01*
X110349Y537638D01*
X110433Y537584D01*
X110519Y537534D01*
X110607Y537487D01*
X110697Y537443D01*
X110788Y537403D01*
X110881Y537367D01*
X110975Y537334D01*
X111071Y537305D01*
X111167Y537280D01*
X111264Y537259D01*
X111363Y537241D01*
X111461Y537228D01*
X111561Y537218D01*
X111660Y537212D01*
X111760Y537210D01*
X142240Y537210D02*
X142340Y537212D01*
X142439Y537218D01*
X142539Y537228D01*
X142637Y537241D01*
X142736Y537259D01*
X142833Y537280D01*
X142929Y537305D01*
X143025Y537334D01*
X143119Y537367D01*
X143212Y537403D01*
X143303Y537443D01*
X143393Y537487D01*
X143481Y537534D01*
X143567Y537584D01*
X143651Y537638D01*
X143733Y537695D01*
X143812Y537755D01*
X143890Y537819D01*
X143964Y537885D01*
X144036Y537954D01*
X144105Y538026D01*
X144171Y538100D01*
X144235Y538178D01*
X144295Y538257D01*
X144352Y538339D01*
X144406Y538423D01*
X144456Y538509D01*
X144503Y538597D01*
X144547Y538687D01*
X144587Y538778D01*
X144623Y538871D01*
X144656Y538965D01*
X144685Y539061D01*
X144710Y539157D01*
X144731Y539254D01*
X144749Y539353D01*
X144762Y539451D01*
X144772Y539551D01*
X144778Y539650D01*
X144780Y539750D01*
X144780Y552450D02*
X144778Y552550D01*
X144772Y552649D01*
X144762Y552749D01*
X144749Y552847D01*
X144731Y552946D01*
X144710Y553043D01*
X144685Y553139D01*
X144656Y553235D01*
X144623Y553329D01*
X144587Y553422D01*
X144547Y553513D01*
X144503Y553603D01*
X144456Y553691D01*
X144406Y553777D01*
X144352Y553861D01*
X144295Y553943D01*
X144235Y554022D01*
X144171Y554100D01*
X144105Y554174D01*
X144036Y554246D01*
X143964Y554315D01*
X143890Y554381D01*
X143812Y554445D01*
X143733Y554505D01*
X143651Y554562D01*
X143567Y554616D01*
X143481Y554666D01*
X143393Y554713D01*
X143303Y554757D01*
X143212Y554797D01*
X143119Y554833D01*
X143025Y554866D01*
X142929Y554895D01*
X142833Y554920D01*
X142736Y554941D01*
X142637Y554959D01*
X142539Y554972D01*
X142439Y554982D01*
X142340Y554988D01*
X142240Y554990D01*
X114300Y554990D02*
X111760Y554990D01*
X114300Y554990D02*
X115570Y553720D01*
X114300Y537210D02*
X111760Y537210D01*
X114300Y537210D02*
X115570Y538480D01*
X138430Y553720D02*
X139700Y554990D01*
X138430Y553720D02*
X115570Y553720D01*
X138430Y538480D02*
X139700Y537210D01*
X138430Y538480D02*
X115570Y538480D01*
X139700Y554990D02*
X142240Y554990D01*
X142240Y537210D02*
X139700Y537210D01*
D12*
X107442Y558292D02*
X107442Y567182D01*
X109911Y567182D01*
X110009Y567180D01*
X110107Y567174D01*
X110205Y567164D01*
X110302Y567151D01*
X110399Y567133D01*
X110495Y567112D01*
X110589Y567087D01*
X110683Y567058D01*
X110776Y567026D01*
X110867Y566989D01*
X110957Y566950D01*
X111045Y566906D01*
X111131Y566859D01*
X111216Y566809D01*
X111298Y566756D01*
X111378Y566699D01*
X111456Y566639D01*
X111531Y566576D01*
X111604Y566510D01*
X111674Y566441D01*
X111741Y566370D01*
X111806Y566296D01*
X111867Y566219D01*
X111926Y566140D01*
X111981Y566059D01*
X112033Y565976D01*
X112081Y565890D01*
X112126Y565803D01*
X112168Y565714D01*
X112206Y565624D01*
X112240Y565532D01*
X112271Y565439D01*
X112298Y565344D01*
X112321Y565249D01*
X112341Y565152D01*
X112356Y565056D01*
X112368Y564958D01*
X112376Y564860D01*
X112380Y564762D01*
X112380Y564664D01*
X112376Y564566D01*
X112368Y564468D01*
X112356Y564370D01*
X112341Y564274D01*
X112321Y564177D01*
X112298Y564082D01*
X112271Y563987D01*
X112240Y563894D01*
X112206Y563802D01*
X112168Y563712D01*
X112126Y563623D01*
X112081Y563536D01*
X112033Y563450D01*
X111981Y563367D01*
X111926Y563286D01*
X111867Y563207D01*
X111806Y563130D01*
X111741Y563056D01*
X111674Y562985D01*
X111604Y562916D01*
X111531Y562850D01*
X111456Y562787D01*
X111378Y562727D01*
X111298Y562670D01*
X111216Y562617D01*
X111131Y562567D01*
X111045Y562520D01*
X110957Y562476D01*
X110867Y562437D01*
X110776Y562400D01*
X110683Y562368D01*
X110589Y562339D01*
X110495Y562314D01*
X110399Y562293D01*
X110302Y562275D01*
X110205Y562262D01*
X110107Y562252D01*
X110009Y562246D01*
X109911Y562244D01*
X109911Y562243D02*
X107442Y562243D01*
X110405Y562243D02*
X112381Y558292D01*
X116292Y558292D02*
X118761Y558292D01*
X118859Y558294D01*
X118957Y558300D01*
X119055Y558310D01*
X119152Y558323D01*
X119249Y558341D01*
X119345Y558362D01*
X119439Y558387D01*
X119533Y558416D01*
X119626Y558448D01*
X119717Y558485D01*
X119807Y558524D01*
X119895Y558568D01*
X119981Y558615D01*
X120066Y558665D01*
X120148Y558718D01*
X120228Y558775D01*
X120306Y558835D01*
X120381Y558898D01*
X120454Y558964D01*
X120524Y559033D01*
X120591Y559104D01*
X120656Y559178D01*
X120717Y559255D01*
X120776Y559334D01*
X120831Y559415D01*
X120883Y559498D01*
X120931Y559584D01*
X120976Y559671D01*
X121018Y559760D01*
X121056Y559850D01*
X121090Y559942D01*
X121121Y560035D01*
X121148Y560130D01*
X121171Y560225D01*
X121191Y560322D01*
X121206Y560418D01*
X121218Y560516D01*
X121226Y560614D01*
X121230Y560712D01*
X121230Y560810D01*
X121226Y560908D01*
X121218Y561006D01*
X121206Y561104D01*
X121191Y561200D01*
X121171Y561297D01*
X121148Y561392D01*
X121121Y561487D01*
X121090Y561580D01*
X121056Y561672D01*
X121018Y561762D01*
X120976Y561851D01*
X120931Y561938D01*
X120883Y562024D01*
X120831Y562107D01*
X120776Y562188D01*
X120717Y562267D01*
X120656Y562344D01*
X120591Y562418D01*
X120524Y562489D01*
X120454Y562558D01*
X120381Y562624D01*
X120306Y562687D01*
X120228Y562747D01*
X120148Y562804D01*
X120066Y562857D01*
X119981Y562907D01*
X119895Y562954D01*
X119807Y562998D01*
X119717Y563037D01*
X119626Y563074D01*
X119533Y563106D01*
X119439Y563135D01*
X119345Y563160D01*
X119249Y563181D01*
X119152Y563199D01*
X119055Y563212D01*
X118957Y563222D01*
X118859Y563228D01*
X118761Y563230D01*
X119255Y567182D02*
X116292Y567182D01*
X119255Y567182D02*
X119342Y567180D01*
X119430Y567174D01*
X119517Y567165D01*
X119603Y567151D01*
X119689Y567134D01*
X119773Y567113D01*
X119857Y567088D01*
X119940Y567059D01*
X120021Y567027D01*
X120101Y566992D01*
X120179Y566953D01*
X120256Y566910D01*
X120330Y566864D01*
X120402Y566815D01*
X120472Y566763D01*
X120540Y566707D01*
X120605Y566649D01*
X120668Y566588D01*
X120727Y566524D01*
X120784Y566457D01*
X120838Y566389D01*
X120889Y566317D01*
X120936Y566244D01*
X120981Y566169D01*
X121022Y566091D01*
X121059Y566012D01*
X121093Y565932D01*
X121123Y565850D01*
X121150Y565767D01*
X121173Y565682D01*
X121192Y565597D01*
X121207Y565511D01*
X121219Y565424D01*
X121227Y565337D01*
X121231Y565250D01*
X121231Y565162D01*
X121227Y565075D01*
X121219Y564988D01*
X121207Y564901D01*
X121192Y564815D01*
X121173Y564730D01*
X121150Y564645D01*
X121123Y564562D01*
X121093Y564480D01*
X121059Y564400D01*
X121022Y564321D01*
X120981Y564243D01*
X120936Y564168D01*
X120889Y564095D01*
X120838Y564023D01*
X120784Y563955D01*
X120727Y563888D01*
X120668Y563824D01*
X120605Y563763D01*
X120540Y563705D01*
X120472Y563649D01*
X120402Y563597D01*
X120330Y563548D01*
X120256Y563502D01*
X120179Y563459D01*
X120101Y563420D01*
X120021Y563385D01*
X119940Y563353D01*
X119857Y563324D01*
X119773Y563299D01*
X119689Y563278D01*
X119603Y563261D01*
X119517Y563247D01*
X119430Y563238D01*
X119342Y563232D01*
X119255Y563230D01*
X119255Y563231D02*
X117280Y563231D01*
D11*
X109220Y692150D02*
X109222Y692250D01*
X109228Y692349D01*
X109238Y692449D01*
X109251Y692547D01*
X109269Y692646D01*
X109290Y692743D01*
X109315Y692839D01*
X109344Y692935D01*
X109377Y693029D01*
X109413Y693122D01*
X109453Y693213D01*
X109497Y693303D01*
X109544Y693391D01*
X109594Y693477D01*
X109648Y693561D01*
X109705Y693643D01*
X109765Y693722D01*
X109829Y693800D01*
X109895Y693874D01*
X109964Y693946D01*
X110036Y694015D01*
X110110Y694081D01*
X110188Y694145D01*
X110267Y694205D01*
X110349Y694262D01*
X110433Y694316D01*
X110519Y694366D01*
X110607Y694413D01*
X110697Y694457D01*
X110788Y694497D01*
X110881Y694533D01*
X110975Y694566D01*
X111071Y694595D01*
X111167Y694620D01*
X111264Y694641D01*
X111363Y694659D01*
X111461Y694672D01*
X111561Y694682D01*
X111660Y694688D01*
X111760Y694690D01*
X109220Y679450D02*
X109222Y679350D01*
X109228Y679251D01*
X109238Y679151D01*
X109251Y679053D01*
X109269Y678954D01*
X109290Y678857D01*
X109315Y678761D01*
X109344Y678665D01*
X109377Y678571D01*
X109413Y678478D01*
X109453Y678387D01*
X109497Y678297D01*
X109544Y678209D01*
X109594Y678123D01*
X109648Y678039D01*
X109705Y677957D01*
X109765Y677878D01*
X109829Y677800D01*
X109895Y677726D01*
X109964Y677654D01*
X110036Y677585D01*
X110110Y677519D01*
X110188Y677455D01*
X110267Y677395D01*
X110349Y677338D01*
X110433Y677284D01*
X110519Y677234D01*
X110607Y677187D01*
X110697Y677143D01*
X110788Y677103D01*
X110881Y677067D01*
X110975Y677034D01*
X111071Y677005D01*
X111167Y676980D01*
X111264Y676959D01*
X111363Y676941D01*
X111461Y676928D01*
X111561Y676918D01*
X111660Y676912D01*
X111760Y676910D01*
X142240Y676910D02*
X142340Y676912D01*
X142439Y676918D01*
X142539Y676928D01*
X142637Y676941D01*
X142736Y676959D01*
X142833Y676980D01*
X142929Y677005D01*
X143025Y677034D01*
X143119Y677067D01*
X143212Y677103D01*
X143303Y677143D01*
X143393Y677187D01*
X143481Y677234D01*
X143567Y677284D01*
X143651Y677338D01*
X143733Y677395D01*
X143812Y677455D01*
X143890Y677519D01*
X143964Y677585D01*
X144036Y677654D01*
X144105Y677726D01*
X144171Y677800D01*
X144235Y677878D01*
X144295Y677957D01*
X144352Y678039D01*
X144406Y678123D01*
X144456Y678209D01*
X144503Y678297D01*
X144547Y678387D01*
X144587Y678478D01*
X144623Y678571D01*
X144656Y678665D01*
X144685Y678761D01*
X144710Y678857D01*
X144731Y678954D01*
X144749Y679053D01*
X144762Y679151D01*
X144772Y679251D01*
X144778Y679350D01*
X144780Y679450D01*
X144780Y692150D02*
X144778Y692250D01*
X144772Y692349D01*
X144762Y692449D01*
X144749Y692547D01*
X144731Y692646D01*
X144710Y692743D01*
X144685Y692839D01*
X144656Y692935D01*
X144623Y693029D01*
X144587Y693122D01*
X144547Y693213D01*
X144503Y693303D01*
X144456Y693391D01*
X144406Y693477D01*
X144352Y693561D01*
X144295Y693643D01*
X144235Y693722D01*
X144171Y693800D01*
X144105Y693874D01*
X144036Y693946D01*
X143964Y694015D01*
X143890Y694081D01*
X143812Y694145D01*
X143733Y694205D01*
X143651Y694262D01*
X143567Y694316D01*
X143481Y694366D01*
X143393Y694413D01*
X143303Y694457D01*
X143212Y694497D01*
X143119Y694533D01*
X143025Y694566D01*
X142929Y694595D01*
X142833Y694620D01*
X142736Y694641D01*
X142637Y694659D01*
X142539Y694672D01*
X142439Y694682D01*
X142340Y694688D01*
X142240Y694690D01*
X114300Y694690D02*
X111760Y694690D01*
X114300Y694690D02*
X115570Y693420D01*
X114300Y676910D02*
X111760Y676910D01*
X114300Y676910D02*
X115570Y678180D01*
X138430Y693420D02*
X139700Y694690D01*
X138430Y693420D02*
X115570Y693420D01*
X138430Y678180D02*
X139700Y676910D01*
X138430Y678180D02*
X115570Y678180D01*
X139700Y694690D02*
X142240Y694690D01*
X142240Y676910D02*
X139700Y676910D01*
D12*
X107442Y697992D02*
X107442Y706882D01*
X109911Y706882D01*
X110009Y706880D01*
X110107Y706874D01*
X110205Y706864D01*
X110302Y706851D01*
X110399Y706833D01*
X110495Y706812D01*
X110589Y706787D01*
X110683Y706758D01*
X110776Y706726D01*
X110867Y706689D01*
X110957Y706650D01*
X111045Y706606D01*
X111131Y706559D01*
X111216Y706509D01*
X111298Y706456D01*
X111378Y706399D01*
X111456Y706339D01*
X111531Y706276D01*
X111604Y706210D01*
X111674Y706141D01*
X111741Y706070D01*
X111806Y705996D01*
X111867Y705919D01*
X111926Y705840D01*
X111981Y705759D01*
X112033Y705676D01*
X112081Y705590D01*
X112126Y705503D01*
X112168Y705414D01*
X112206Y705324D01*
X112240Y705232D01*
X112271Y705139D01*
X112298Y705044D01*
X112321Y704949D01*
X112341Y704852D01*
X112356Y704756D01*
X112368Y704658D01*
X112376Y704560D01*
X112380Y704462D01*
X112380Y704364D01*
X112376Y704266D01*
X112368Y704168D01*
X112356Y704070D01*
X112341Y703974D01*
X112321Y703877D01*
X112298Y703782D01*
X112271Y703687D01*
X112240Y703594D01*
X112206Y703502D01*
X112168Y703412D01*
X112126Y703323D01*
X112081Y703236D01*
X112033Y703150D01*
X111981Y703067D01*
X111926Y702986D01*
X111867Y702907D01*
X111806Y702830D01*
X111741Y702756D01*
X111674Y702685D01*
X111604Y702616D01*
X111531Y702550D01*
X111456Y702487D01*
X111378Y702427D01*
X111298Y702370D01*
X111216Y702317D01*
X111131Y702267D01*
X111045Y702220D01*
X110957Y702176D01*
X110867Y702137D01*
X110776Y702100D01*
X110683Y702068D01*
X110589Y702039D01*
X110495Y702014D01*
X110399Y701993D01*
X110302Y701975D01*
X110205Y701962D01*
X110107Y701952D01*
X110009Y701946D01*
X109911Y701944D01*
X109911Y701943D02*
X107442Y701943D01*
X110405Y701943D02*
X112381Y697992D01*
X116292Y699968D02*
X118267Y706882D01*
X116292Y699968D02*
X121231Y699968D01*
X119749Y701943D02*
X119749Y697992D01*
D11*
X566420Y679450D02*
X566422Y679550D01*
X566428Y679649D01*
X566438Y679749D01*
X566451Y679847D01*
X566469Y679946D01*
X566490Y680043D01*
X566515Y680139D01*
X566544Y680235D01*
X566577Y680329D01*
X566613Y680422D01*
X566653Y680513D01*
X566697Y680603D01*
X566744Y680691D01*
X566794Y680777D01*
X566848Y680861D01*
X566905Y680943D01*
X566965Y681022D01*
X567029Y681100D01*
X567095Y681174D01*
X567164Y681246D01*
X567236Y681315D01*
X567310Y681381D01*
X567388Y681445D01*
X567467Y681505D01*
X567549Y681562D01*
X567633Y681616D01*
X567719Y681666D01*
X567807Y681713D01*
X567897Y681757D01*
X567988Y681797D01*
X568081Y681833D01*
X568175Y681866D01*
X568271Y681895D01*
X568367Y681920D01*
X568464Y681941D01*
X568563Y681959D01*
X568661Y681972D01*
X568761Y681982D01*
X568860Y681988D01*
X568960Y681990D01*
X566420Y666750D02*
X566422Y666650D01*
X566428Y666551D01*
X566438Y666451D01*
X566451Y666353D01*
X566469Y666254D01*
X566490Y666157D01*
X566515Y666061D01*
X566544Y665965D01*
X566577Y665871D01*
X566613Y665778D01*
X566653Y665687D01*
X566697Y665597D01*
X566744Y665509D01*
X566794Y665423D01*
X566848Y665339D01*
X566905Y665257D01*
X566965Y665178D01*
X567029Y665100D01*
X567095Y665026D01*
X567164Y664954D01*
X567236Y664885D01*
X567310Y664819D01*
X567388Y664755D01*
X567467Y664695D01*
X567549Y664638D01*
X567633Y664584D01*
X567719Y664534D01*
X567807Y664487D01*
X567897Y664443D01*
X567988Y664403D01*
X568081Y664367D01*
X568175Y664334D01*
X568271Y664305D01*
X568367Y664280D01*
X568464Y664259D01*
X568563Y664241D01*
X568661Y664228D01*
X568761Y664218D01*
X568860Y664212D01*
X568960Y664210D01*
X599440Y664210D02*
X599540Y664212D01*
X599639Y664218D01*
X599739Y664228D01*
X599837Y664241D01*
X599936Y664259D01*
X600033Y664280D01*
X600129Y664305D01*
X600225Y664334D01*
X600319Y664367D01*
X600412Y664403D01*
X600503Y664443D01*
X600593Y664487D01*
X600681Y664534D01*
X600767Y664584D01*
X600851Y664638D01*
X600933Y664695D01*
X601012Y664755D01*
X601090Y664819D01*
X601164Y664885D01*
X601236Y664954D01*
X601305Y665026D01*
X601371Y665100D01*
X601435Y665178D01*
X601495Y665257D01*
X601552Y665339D01*
X601606Y665423D01*
X601656Y665509D01*
X601703Y665597D01*
X601747Y665687D01*
X601787Y665778D01*
X601823Y665871D01*
X601856Y665965D01*
X601885Y666061D01*
X601910Y666157D01*
X601931Y666254D01*
X601949Y666353D01*
X601962Y666451D01*
X601972Y666551D01*
X601978Y666650D01*
X601980Y666750D01*
X601980Y679450D02*
X601978Y679550D01*
X601972Y679649D01*
X601962Y679749D01*
X601949Y679847D01*
X601931Y679946D01*
X601910Y680043D01*
X601885Y680139D01*
X601856Y680235D01*
X601823Y680329D01*
X601787Y680422D01*
X601747Y680513D01*
X601703Y680603D01*
X601656Y680691D01*
X601606Y680777D01*
X601552Y680861D01*
X601495Y680943D01*
X601435Y681022D01*
X601371Y681100D01*
X601305Y681174D01*
X601236Y681246D01*
X601164Y681315D01*
X601090Y681381D01*
X601012Y681445D01*
X600933Y681505D01*
X600851Y681562D01*
X600767Y681616D01*
X600681Y681666D01*
X600593Y681713D01*
X600503Y681757D01*
X600412Y681797D01*
X600319Y681833D01*
X600225Y681866D01*
X600129Y681895D01*
X600033Y681920D01*
X599936Y681941D01*
X599837Y681959D01*
X599739Y681972D01*
X599639Y681982D01*
X599540Y681988D01*
X599440Y681990D01*
X571500Y681990D02*
X568960Y681990D01*
X571500Y681990D02*
X572770Y680720D01*
X571500Y664210D02*
X568960Y664210D01*
X571500Y664210D02*
X572770Y665480D01*
X595630Y680720D02*
X596900Y681990D01*
X595630Y680720D02*
X572770Y680720D01*
X595630Y665480D02*
X596900Y664210D01*
X595630Y665480D02*
X572770Y665480D01*
X596900Y681990D02*
X599440Y681990D01*
X599440Y664210D02*
X596900Y664210D01*
D12*
X564642Y685292D02*
X564642Y694182D01*
X567111Y694182D01*
X567209Y694180D01*
X567307Y694174D01*
X567405Y694164D01*
X567502Y694151D01*
X567599Y694133D01*
X567695Y694112D01*
X567789Y694087D01*
X567883Y694058D01*
X567976Y694026D01*
X568067Y693989D01*
X568157Y693950D01*
X568245Y693906D01*
X568331Y693859D01*
X568416Y693809D01*
X568498Y693756D01*
X568578Y693699D01*
X568656Y693639D01*
X568731Y693576D01*
X568804Y693510D01*
X568874Y693441D01*
X568941Y693370D01*
X569006Y693296D01*
X569067Y693219D01*
X569126Y693140D01*
X569181Y693059D01*
X569233Y692976D01*
X569281Y692890D01*
X569326Y692803D01*
X569368Y692714D01*
X569406Y692624D01*
X569440Y692532D01*
X569471Y692439D01*
X569498Y692344D01*
X569521Y692249D01*
X569541Y692152D01*
X569556Y692056D01*
X569568Y691958D01*
X569576Y691860D01*
X569580Y691762D01*
X569580Y691664D01*
X569576Y691566D01*
X569568Y691468D01*
X569556Y691370D01*
X569541Y691274D01*
X569521Y691177D01*
X569498Y691082D01*
X569471Y690987D01*
X569440Y690894D01*
X569406Y690802D01*
X569368Y690712D01*
X569326Y690623D01*
X569281Y690536D01*
X569233Y690450D01*
X569181Y690367D01*
X569126Y690286D01*
X569067Y690207D01*
X569006Y690130D01*
X568941Y690056D01*
X568874Y689985D01*
X568804Y689916D01*
X568731Y689850D01*
X568656Y689787D01*
X568578Y689727D01*
X568498Y689670D01*
X568416Y689617D01*
X568331Y689567D01*
X568245Y689520D01*
X568157Y689476D01*
X568067Y689437D01*
X567976Y689400D01*
X567883Y689368D01*
X567789Y689339D01*
X567695Y689314D01*
X567599Y689293D01*
X567502Y689275D01*
X567405Y689262D01*
X567307Y689252D01*
X567209Y689246D01*
X567111Y689244D01*
X567111Y689243D02*
X564642Y689243D01*
X567605Y689243D02*
X569581Y685292D01*
X573492Y685292D02*
X576455Y685292D01*
X576544Y685294D01*
X576632Y685300D01*
X576720Y685310D01*
X576808Y685324D01*
X576895Y685342D01*
X576981Y685363D01*
X577066Y685389D01*
X577149Y685418D01*
X577232Y685451D01*
X577312Y685488D01*
X577391Y685528D01*
X577468Y685572D01*
X577544Y685619D01*
X577616Y685669D01*
X577687Y685723D01*
X577755Y685780D01*
X577821Y685840D01*
X577883Y685902D01*
X577943Y685968D01*
X578000Y686036D01*
X578054Y686107D01*
X578104Y686179D01*
X578151Y686254D01*
X578195Y686332D01*
X578235Y686411D01*
X578272Y686491D01*
X578305Y686574D01*
X578334Y686657D01*
X578360Y686742D01*
X578381Y686828D01*
X578399Y686915D01*
X578413Y687003D01*
X578423Y687091D01*
X578429Y687179D01*
X578431Y687268D01*
X578431Y688255D01*
X578429Y688341D01*
X578423Y688427D01*
X578414Y688513D01*
X578401Y688598D01*
X578384Y688683D01*
X578364Y688766D01*
X578340Y688849D01*
X578312Y688931D01*
X578281Y689011D01*
X578246Y689090D01*
X578208Y689167D01*
X578166Y689243D01*
X578122Y689317D01*
X578074Y689388D01*
X578023Y689458D01*
X577969Y689525D01*
X577912Y689590D01*
X577852Y689652D01*
X577790Y689712D01*
X577725Y689769D01*
X577658Y689823D01*
X577588Y689874D01*
X577517Y689922D01*
X577443Y689966D01*
X577367Y690008D01*
X577290Y690046D01*
X577211Y690081D01*
X577131Y690112D01*
X577049Y690140D01*
X576966Y690164D01*
X576883Y690184D01*
X576798Y690201D01*
X576713Y690214D01*
X576627Y690223D01*
X576541Y690229D01*
X576455Y690231D01*
X573492Y690231D01*
X573492Y694182D01*
X578431Y694182D01*
D10*
X127000Y215900D02*
X127000Y127000D01*
X127000Y215900D02*
X101600Y215900D01*
X101600Y127000D01*
X127000Y127000D01*
X838200Y139700D02*
X838200Y228600D01*
X812800Y228600D01*
X812800Y139700D01*
X838200Y139700D01*
D11*
X137160Y321310D02*
X137160Y364490D01*
X167640Y364490D02*
X167640Y321310D01*
X165100Y367030D02*
X139700Y367030D01*
X139700Y318770D02*
X165100Y318770D01*
X137160Y364490D02*
X137162Y364590D01*
X137168Y364689D01*
X137178Y364789D01*
X137191Y364887D01*
X137209Y364986D01*
X137230Y365083D01*
X137255Y365179D01*
X137284Y365275D01*
X137317Y365369D01*
X137353Y365462D01*
X137393Y365553D01*
X137437Y365643D01*
X137484Y365731D01*
X137534Y365817D01*
X137588Y365901D01*
X137645Y365983D01*
X137705Y366062D01*
X137769Y366140D01*
X137835Y366214D01*
X137904Y366286D01*
X137976Y366355D01*
X138050Y366421D01*
X138128Y366485D01*
X138207Y366545D01*
X138289Y366602D01*
X138373Y366656D01*
X138459Y366706D01*
X138547Y366753D01*
X138637Y366797D01*
X138728Y366837D01*
X138821Y366873D01*
X138915Y366906D01*
X139011Y366935D01*
X139107Y366960D01*
X139204Y366981D01*
X139303Y366999D01*
X139401Y367012D01*
X139501Y367022D01*
X139600Y367028D01*
X139700Y367030D01*
X137160Y321310D02*
X137162Y321210D01*
X137168Y321111D01*
X137178Y321011D01*
X137191Y320913D01*
X137209Y320814D01*
X137230Y320717D01*
X137255Y320621D01*
X137284Y320525D01*
X137317Y320431D01*
X137353Y320338D01*
X137393Y320247D01*
X137437Y320157D01*
X137484Y320069D01*
X137534Y319983D01*
X137588Y319899D01*
X137645Y319817D01*
X137705Y319738D01*
X137769Y319660D01*
X137835Y319586D01*
X137904Y319514D01*
X137976Y319445D01*
X138050Y319379D01*
X138128Y319315D01*
X138207Y319255D01*
X138289Y319198D01*
X138373Y319144D01*
X138459Y319094D01*
X138547Y319047D01*
X138637Y319003D01*
X138728Y318963D01*
X138821Y318927D01*
X138915Y318894D01*
X139011Y318865D01*
X139107Y318840D01*
X139204Y318819D01*
X139303Y318801D01*
X139401Y318788D01*
X139501Y318778D01*
X139600Y318772D01*
X139700Y318770D01*
X167640Y364490D02*
X167638Y364590D01*
X167632Y364689D01*
X167622Y364789D01*
X167609Y364887D01*
X167591Y364986D01*
X167570Y365083D01*
X167545Y365179D01*
X167516Y365275D01*
X167483Y365369D01*
X167447Y365462D01*
X167407Y365553D01*
X167363Y365643D01*
X167316Y365731D01*
X167266Y365817D01*
X167212Y365901D01*
X167155Y365983D01*
X167095Y366062D01*
X167031Y366140D01*
X166965Y366214D01*
X166896Y366286D01*
X166824Y366355D01*
X166750Y366421D01*
X166672Y366485D01*
X166593Y366545D01*
X166511Y366602D01*
X166427Y366656D01*
X166341Y366706D01*
X166253Y366753D01*
X166163Y366797D01*
X166072Y366837D01*
X165979Y366873D01*
X165885Y366906D01*
X165789Y366935D01*
X165693Y366960D01*
X165596Y366981D01*
X165497Y366999D01*
X165399Y367012D01*
X165299Y367022D01*
X165200Y367028D01*
X165100Y367030D01*
X167640Y321310D02*
X167638Y321210D01*
X167632Y321111D01*
X167622Y321011D01*
X167609Y320913D01*
X167591Y320814D01*
X167570Y320717D01*
X167545Y320621D01*
X167516Y320525D01*
X167483Y320431D01*
X167447Y320338D01*
X167407Y320247D01*
X167363Y320157D01*
X167316Y320069D01*
X167266Y319983D01*
X167212Y319899D01*
X167155Y319817D01*
X167095Y319738D01*
X167031Y319660D01*
X166965Y319586D01*
X166896Y319514D01*
X166824Y319445D01*
X166750Y319379D01*
X166672Y319315D01*
X166593Y319255D01*
X166511Y319198D01*
X166427Y319144D01*
X166341Y319094D01*
X166253Y319047D01*
X166163Y319003D01*
X166072Y318963D01*
X165979Y318927D01*
X165885Y318894D01*
X165789Y318865D01*
X165693Y318840D01*
X165596Y318819D01*
X165497Y318801D01*
X165399Y318788D01*
X165299Y318778D01*
X165200Y318772D01*
X165100Y318770D01*
X152400Y345440D02*
X152400Y346710D01*
D13*
X152400Y345440D02*
X144780Y345440D01*
X152400Y345440D02*
X160020Y345440D01*
X152400Y340360D02*
X144780Y340360D01*
X152400Y340360D02*
X160020Y340360D01*
D11*
X152400Y340360D02*
X152400Y339090D01*
D10*
X133985Y332105D02*
X133985Y329565D01*
X133983Y329465D01*
X133977Y329366D01*
X133967Y329266D01*
X133954Y329168D01*
X133936Y329069D01*
X133915Y328972D01*
X133890Y328876D01*
X133861Y328780D01*
X133828Y328686D01*
X133792Y328593D01*
X133752Y328502D01*
X133708Y328412D01*
X133661Y328324D01*
X133611Y328238D01*
X133557Y328154D01*
X133500Y328072D01*
X133440Y327993D01*
X133376Y327915D01*
X133310Y327841D01*
X133241Y327769D01*
X133169Y327700D01*
X133095Y327634D01*
X133017Y327570D01*
X132938Y327510D01*
X132856Y327453D01*
X132772Y327399D01*
X132686Y327349D01*
X132598Y327302D01*
X132508Y327258D01*
X132417Y327218D01*
X132324Y327182D01*
X132230Y327149D01*
X132134Y327120D01*
X132038Y327095D01*
X131941Y327074D01*
X131842Y327056D01*
X131744Y327043D01*
X131644Y327033D01*
X131545Y327027D01*
X131445Y327025D01*
X125095Y327025D01*
X124995Y327027D01*
X124896Y327033D01*
X124796Y327043D01*
X124698Y327056D01*
X124599Y327074D01*
X124502Y327095D01*
X124406Y327120D01*
X124310Y327149D01*
X124216Y327182D01*
X124123Y327218D01*
X124032Y327258D01*
X123942Y327302D01*
X123854Y327349D01*
X123768Y327399D01*
X123684Y327453D01*
X123602Y327510D01*
X123523Y327570D01*
X123445Y327634D01*
X123371Y327700D01*
X123299Y327769D01*
X123230Y327841D01*
X123164Y327915D01*
X123100Y327993D01*
X123040Y328072D01*
X122983Y328154D01*
X122929Y328238D01*
X122879Y328324D01*
X122832Y328412D01*
X122788Y328502D01*
X122748Y328593D01*
X122712Y328686D01*
X122679Y328780D01*
X122650Y328876D01*
X122625Y328972D01*
X122604Y329069D01*
X122586Y329168D01*
X122573Y329266D01*
X122563Y329366D01*
X122557Y329465D01*
X122555Y329565D01*
X122555Y332105D01*
X125095Y336587D02*
X122555Y339762D01*
X133985Y339762D01*
X133985Y336587D02*
X133985Y342937D01*
X25400Y63500D02*
X25400Y38100D01*
X76200Y38100D01*
X76200Y63500D01*
X25400Y63500D01*
M02*
