G04 EAGLE Gerber X2 export*
%TF.Part,Single*%
%TF.FileFunction,Soldermask,Bot,1*%
%TF.FilePolarity,Negative*%
%TF.GenerationSoftware,Autodesk,EAGLE,9.0.1*%
%TF.CreationDate,2019-02-05T07:25:25Z*%
G75*
%MOMM*%
%FSLAX34Y34*%
%LPD*%
%AMOC8*
5,1,8,0,0,1.08239X$1,22.5*%
G01*
%ADD10R,1.311200X1.311200*%
%ADD11P,1.649562X8X22.500000*%
%ADD12P,1.951982X8X112.500000*%
%ADD13C,0.959600*%


D10*
X444500Y444500D03*
X444500Y431800D03*
X444500Y419100D03*
X444500Y406400D03*
X444500Y393700D03*
X444500Y381000D03*
X444500Y368300D03*
X444500Y355600D03*
X444500Y342900D03*
X444500Y330200D03*
X444500Y317500D03*
X444500Y304800D03*
X444500Y292100D03*
X444500Y279400D03*
X520700Y444500D03*
X520700Y431800D03*
X520700Y419100D03*
X520700Y406400D03*
X520700Y393700D03*
X520700Y381000D03*
X520700Y368300D03*
X520700Y355600D03*
X520700Y342900D03*
X520700Y330200D03*
X520700Y317500D03*
X520700Y304800D03*
X520700Y292100D03*
X520700Y279400D03*
X444500Y165100D03*
X444500Y152400D03*
X444500Y139700D03*
X444500Y127000D03*
X444500Y114300D03*
X444500Y101600D03*
X444500Y88900D03*
X444500Y76200D03*
X520700Y165100D03*
X520700Y152400D03*
X520700Y139700D03*
X520700Y127000D03*
X520700Y114300D03*
X520700Y101600D03*
X520700Y88900D03*
X520700Y76200D03*
X38100Y546100D03*
X50800Y546100D03*
X927100Y508000D03*
X939800Y508000D03*
X927100Y673100D03*
X939800Y673100D03*
X38100Y685800D03*
X50800Y685800D03*
X571500Y762000D03*
X584200Y762000D03*
X419100Y762000D03*
X431800Y762000D03*
X38100Y736600D03*
X50800Y736600D03*
X927100Y736600D03*
X939800Y736600D03*
X38100Y596900D03*
X50800Y596900D03*
X927100Y571500D03*
X939800Y571500D03*
D11*
X406400Y673100D03*
X457200Y673100D03*
X101600Y736600D03*
X152400Y736600D03*
X838200Y736600D03*
X889000Y736600D03*
X101600Y596900D03*
X152400Y596900D03*
X838200Y571500D03*
X889000Y571500D03*
X838200Y508000D03*
X889000Y508000D03*
X838200Y673100D03*
X889000Y673100D03*
X101600Y546100D03*
X152400Y546100D03*
X101600Y685800D03*
X152400Y685800D03*
X558800Y673100D03*
X609600Y673100D03*
D10*
X127000Y203200D03*
X127000Y190500D03*
X127000Y177800D03*
X127000Y165100D03*
X127000Y152400D03*
X127000Y139700D03*
X838200Y215900D03*
X838200Y203200D03*
X838200Y190500D03*
X838200Y177800D03*
X838200Y165100D03*
X838200Y152400D03*
D12*
X152400Y330200D03*
X152400Y355600D03*
D10*
X38100Y50800D03*
X50800Y50800D03*
X63500Y50800D03*
D13*
X457200Y203200D03*
X406400Y215900D03*
X431800Y203200D03*
X393700Y215900D03*
X393700Y406400D03*
X498320Y177800D03*
X419100Y381000D03*
X427509Y237009D03*
X431800Y254000D03*
X342900Y145768D03*
X355600Y406400D03*
X342900Y431800D03*
X419100Y431800D03*
X508000Y152400D03*
X469900Y190500D03*
X431800Y265506D03*
X431800Y406400D03*
X431800Y431800D03*
X76200Y736600D03*
X50800Y723900D03*
X889000Y762000D03*
X901700Y723900D03*
X787400Y685800D03*
X762000Y660400D03*
X736600Y635000D03*
X571500Y444500D03*
X482600Y431800D03*
X460103Y330200D03*
X88900Y596900D03*
X63500Y596900D03*
X292100Y431800D03*
X557721Y332156D03*
X520700Y292100D03*
X460103Y355600D03*
X495300Y469900D03*
X317500Y546100D03*
X76200Y520700D03*
X152400Y520700D03*
X508000Y317500D03*
X838200Y660400D03*
X812800Y635000D03*
X508000Y330200D03*
X241300Y596900D03*
X228600Y114300D03*
X190500Y139700D03*
X457200Y228600D03*
X533400Y228600D03*
X489232Y357550D03*
X825500Y165100D03*
X647700Y215900D03*
X558800Y304800D03*
X863600Y266700D03*
X825500Y266700D03*
X584200Y330200D03*
X546100Y381000D03*
X596900Y101600D03*
X571500Y101600D03*
X546100Y127000D03*
X584200Y139700D03*
X330200Y127000D03*
X508000Y393700D03*
X50800Y419100D03*
X927100Y495300D03*
X38100Y558800D03*
X393700Y469900D03*
X342900Y457200D03*
X292100Y457200D03*
X127000Y419100D03*
M02*
